<?xml version="1.0" standalone="no"?>
<!DOCTYPE svg PUBLIC "-//W3C//DTD SVG 1.1//EN" "http://www.w3.org/Graphics/SVG/1.1/DTD/svg11.dtd" >
<svg xmlns="http://www.w3.org/2000/svg">
<metadata></metadata>
<defs>
<font id="green_mud_jjitalic" horiz-adv-x="614" >
<font-face units-per-em="2048" ascent="1434" descent="-614" />
<missing-glyph horiz-adv-x="512" />
<glyph horiz-adv-x="2048" />
<glyph horiz-adv-x="2048" />
<glyph unicode="&#xd;" horiz-adv-x="2048" />
<glyph unicode=" "  horiz-adv-x="512" />
<glyph unicode="&#x09;" horiz-adv-x="512" />
<glyph unicode="&#xa0;" horiz-adv-x="512" />
<glyph unicode="!" horiz-adv-x="499" d="M141 315l72 -16q30 118 180 422t176 375q79 210 13 288l-56 -49q16 -17 16.5 -48.5t-9.5 -70t-31 -94.5q-30 -81 -111.5 -242t-153.5 -315t-96 -250zM47 -14l21 8q22 -17 43 -17q13 0 24 7q31 18 29 65q-2 7 -14 57l-41 -10l-3 2q-14 16 -30 20t-23.5 1.5t-13.5 -6.5 q-12 -7 -19 -22.5t-2 -35.5q0 -1 1.5 -3t3 -6.5t2.5 -8.5q0 -1 22 -51z" />
<glyph unicode="&#x22;" horiz-adv-x="593" d="M508 981l74 -49q17 23 31 51t29.5 63t21.5 48q49 130 59 202q-4 2 -39.5 15t-42.5 16q2 -6 -21.5 -83t-41.5 -120q-35 -90 -70 -143zM240 977l73 -49q16 22 29.5 49t29 64t21.5 49q52 129 62 202q-6 2 -42.5 15.5t-41.5 15.5q2 -7 -21 -83.5t-41 -119.5 q-50 -115 -69 -143z" />
<glyph unicode="#" horiz-adv-x="1079" d="M965 543v-64q-76 -2 -232 -14q-98 -222 -227 -494l-60 29q131 281 211 459q-7 0 -20.5 -1t-20.5 -1q-181 -15 -225 -17q-114 -251 -194 -463l-64 25q31 81 182 434q-95 -6 -192 -6h-25v66q123 0 246 6q45 93 98 219h-49q-93 0 -184 6l4 64q140 -10 258 -7q96 238 145 396 l64 -21q-50 -170 -135 -371q58 1 243 15h13q95 250 151 442l64 -16q-56 -192 -144 -420q133 8 199 10v-63q-40 -2 -114 -6.5t-109 -6.5q-50 -123 -86 -211q171 10 203 11zM612 520q13 1 37.5 3t36.5 3q9 21 88 211q-167 -12 -258 -14q-16 -36 -47 -108.5t-47 -108.5 q32 2 95.5 7t94.5 7z" />
<glyph unicode="$" horiz-adv-x="909" d="M809 1468l82 -26q-8 -22 -21.5 -62.5t-25.5 -74.5t-23 -64q144 13 281 -10l-17 -88q-157 25 -299 4q-65 -168 -186 -461q167 -69 199 -192q19 -75 -14 -156t-113 -156q-82 -76 -179 -119.5t-174 -60.5q-96 -244 -120 -328l-86 23q3 10 106 287q-166 -18 -323 34l26 86 q157 -54 334 -24q31 80 87 217t96.5 235t41.5 101h-2q-250 70 -217 256q15 67 64.5 126t118 100t138.5 68.5t138 41.5q33 83 88 243zM516 715q13 31 74.5 181.5t91.5 227.5q-65 -19 -132.5 -52t-128 -88t-73.5 -112q-7 -36 7 -65t49 -47.5t53 -25.5t49 -16q7 -2 10 -3z M713 471q-21 82 -146 135q-3 -6 -40.5 -94.5t-88.5 -212t-78 -195.5q150 49 252 142q126 120 101 225z" />
<glyph unicode="%" horiz-adv-x="909" d="M41 0l55 -33q418 691 905 1241l-47 43q-497 -558 -913 -1251zM356 936l-41 33q-92 -121 -161 -236q-43 -84 -21 -122q21 -36 84 3q68 40 154 136q95 109 75 165q-18 48 -92 37zM360 920l5 -33q8 2 18 2q-11 -46 -88 -125q-52 -55 -94 -82q48 89 159 238zM616 518l15 -29 q-56 -62 -87 -137.5t-26 -128.5q2 -59 33.5 -75t76.5 5.5t93 69.5q68 68 108 156q38 86 15.5 138t-94.5 46q-3 0 -9.5 -1t-9.5 -1l-2 4q-3 -1 -8 -4t-6 -4q-43 -12 -99 -39zM584 256q10 63 52 132t103 108q46 10 51 -15t-20 -75q-40 -82 -96 -138q-77 -73 -89 -56 q-6 9 -1 44z" />
<glyph unicode="&#x26;" horiz-adv-x="612" d="M707 1403l-7 -17q-50 -124 -84 -223q92 22 183 13l-4 -78q-116 11 -217.5 -27t-206.5 -133q-139 -120 -119 -190q21 -70 211 -113q26 -9 33.5 -18t7.5 -33q0 -15 -17 -27t-70 -39q-5 -2 -8.5 -4t-7.5 -4t-35.5 -20t-44 -25.5t-41.5 -25.5t-44 -29.5t-35 -27.5t-32.5 -31 t-18.5 -29q-23 -49 -26.5 -90t10.5 -66t40 -36.5t65 -2t83 38.5l43 -66q-80 -45 -154 -45q-22 -80 -52 -156.5t-46 -129.5l-76 20q13 40 47.5 128.5t48.5 150.5q-83 28 -86 127q-5 58 35 153q14 34 57.5 74.5t98 75.5t85 53t52.5 29q-169 45 -197 151q-28 118 139 262 q104 93 209 140q31 112 105 282l4 19z" />
<glyph unicode="'" horiz-adv-x="282" d="M451 1303l-89 10q-6 -41 -38 -156q-14 -44 -45.5 -117.5t-36.5 -76.5q7 -3 42.5 -16t39.5 -15q37 58 84 194q3 12 11.5 39.5t13.5 46t10.5 44.5t7.5 47z" />
<glyph unicode="(" horiz-adv-x="372" d="M678 1434l-45 49q-153 -135 -276 -326.5t-197 -400.5q-78 -207 -111 -440t-14 -449l63 4q-23 286 42 583t205.5 554t332.5 426z" />
<glyph unicode=")" horiz-adv-x="448" d="M-119 -145l49 -43q109 125 203.5 272t171 316.5t119.5 344.5t49.5 355t-39.5 348l-61 -14q42 -163 35.5 -336t-49 -342.5t-116 -332.5t-165 -305.5t-197.5 -262.5z" />
<glyph unicode="*" horiz-adv-x="657" d="M766 1393l43 -52q-33 -26 -66.5 -50.5t-77 -54.5t-59.5 -42q96 -13 182 -33l-16 -63q-83 21 -180 30q4 -6 48.5 -84.5t64.5 -109.5l-54 -35q-27 39 -125 215q-56 -131 -67 -262l-66 4q8 100 47 217q-89 -73 -157 -160l-52 41q82 105 191 189q-21 1 -64.5 2t-64.5 2v65 q29 -1 89 -3t89 -3q-46 69 -92 121l49 43q31 -33 92 -119q4 8 50.5 95.5t56.5 111.5l59 -28q-43 -89 -84 -160q97 68 164 123z" />
<glyph unicode="+" horiz-adv-x="1228" d="M1212 672l-41 -90h-473q-18 -64 -39 -138q-13 -45 -30.5 -110.5t-34 -118.5t-43.5 -127l-84 31q27 74 42.5 125.5t33 116t30.5 108.5q30 102 33 113h-475l41 90h461q61 202 172 424l80 -43q-107 -215 -158 -381h485z" />
<glyph unicode="," horiz-adv-x="348" d="M-109 -262l72 -49q54 74 90 159q51 117 17 175q-30 50 -107 38l17 -90q11 5 14 2q0 -33 -25 -96q-20 -51 -78 -139z" />
<glyph unicode="-" d="M129 672l-31 -80q61 -5 146 -7t147.5 -1.5t134 1.5t84.5 1l25 80q-13 0 -83 -1t-131 -1.5t-145 1.5t-147 7z" />
<glyph unicode="." horiz-adv-x="280" d="M-43 -14l20 8q22 -17 43 -17q14 0 25 7q31 18 29 65q-8 29 -15 57l-41 -10l-2 2q-14 16 -30 20t-23.5 1.5t-13.5 -6.5q-12 -7 -19 -22.5t-2 -35.5q0 -1 1 -3t2.5 -6.5t2.5 -8.5t4.5 -11.5t9 -19t9.5 -20.5z" />
<glyph unicode="/" horiz-adv-x="528" d="M-182 -217l53 -35q31 55 156 277t171 302.5t142 248t173.5 298t160.5 267.5q10 16 69.5 119.5t77.5 132.5l-47 41q-61 -99 -151 -250q-101 -170 -214.5 -365.5t-182 -315.5t-211 -372t-197.5 -348z" />
<glyph unicode="0" horiz-adv-x="745" d="M408 1083l-13 13q-73 -60 -143 -189q-63 -118 -109.5 -271t-58.5 -286q-21 -162 13.5 -264.5t114 -112.5t198.5 93q59 49 113.5 149t87.5 196t59 201q11 46 20 92t18.5 108t13.5 116.5t2.5 112t-11.5 100t-33 74t-57 40.5q-20 5 -42 -2t-39.5 -19t-39 -34.5t-34.5 -39 t-32.5 -42.5t-27.5 -35zM287 838l35 -21q58 106 108.5 182.5t81.5 112.5t56.5 55.5t35.5 22t17 0.5q25 -6 35.5 -82.5t2.5 -159.5q-2 -115 -51 -315q-38 -162 -99 -306.5t-138 -213.5q-68 -58 -116.5 -73.5t-73.5 5t-34 70.5q-20 79 -5 216t61 283q54 164 84 224z" />
<glyph unicode="1" horiz-adv-x="747" d="M326 958l-37 50q5 5 23 24t35 35.5t42 41t47.5 44.5t48 41.5t48 35.5t43.5 23.5t37 9t26 -11.5q4 -5 4.5 -15t-3 -26t-7.5 -31t-12 -37.5t-13 -36t-14 -37t-12 -30.5q-88 -235 -188 -535t-136 -462q34 2 283 22l6 -63q-12 -1 -117 -10t-163 -12.5t-154 -2.5t-170 11l8 63 q105 -15 242 -12q34 163 133.5 463t193.5 542q3 7 18.5 41.5t25 60.5t5.5 30q-2 2 -7.5 0t-14.5 -8.5t-19 -14.5t-24.5 -21.5t-28 -26.5t-33 -32t-36 -34.5t-39.5 -38.5t-41 -40z" />
<glyph unicode="2" horiz-adv-x="876" d="M692 0l37 55q-124 82 -305 117q131 199 213 442q22 63 37.5 130.5t24 147.5t-6.5 154.5t-55 124.5q-89 113 -297 72l20 -65q162 37 226 -43q41 -50 46 -141.5t-14 -178t-51 -170.5q-69 -244 -219 -457h-2q-199 28 -313 -22q-40 -18 -56 -44t-8 -54t34.5 -58t68.5 -57 q64 -39 137 -2q81 38 174 166q174 -26 309 -117zM297 129q-17 -38 -85 -94t-103 -33q-59 38 -67 64t28 45q29 11 62.5 16t55.5 5t58.5 -1.5t50.5 -1.5z" />
<glyph unicode="3" horiz-adv-x="720" d="M74 -16l43 -52q30 23 101 59.5t130.5 67t114.5 82t69 109.5q5 22 6 41t-4 37t-9.5 31t-18.5 29t-22.5 25.5t-29 25t-31.5 23.5t-36 25q-28 19 -40 27.5t-30 23.5t-21 25.5t-4 25t10 30t32 34.5q23 22 145 107q178 118 219 215q19 47 20.5 84.5t-11.5 63.5t-41.5 45.5 t-62.5 31t-81 18t-91 9t-99 2.5v-66q37 0 68.5 -0.5t67 -3t62.5 -8.5t53.5 -14.5t41.5 -22t24 -30.5t4.5 -41.5t-20.5 -53.5q-20 -34 -75.5 -83t-121.5 -91q-54 -37 -88.5 -63t-66 -55.5t-44 -52.5t-16 -49t11.5 -51t44.5 -53t76.5 -59q74 -48 99.5 -79.5t13.5 -80.5 q-11 -46 -65 -92.5t-114.5 -77.5t-126 -65t-87.5 -53z" />
<glyph unicode="4" horiz-adv-x="851" d="M911 1307l60 -43q-53 -83 -96.5 -172.5t-70 -154.5t-57 -170.5t-43 -155.5t-42.5 -175q-5 -22 -20 -85t-23 -96t-22 -86.5t-28 -101.5t-30 -96l-70 29q53 162 104.5 383t79.5 319q-87 -2 -200.5 -13t-171.5 -15q-54 -3 -84 11t-37 44t0 67.5t28 90.5q31 85 162 342 l66 -35q-131 -261 -160 -336q-32 -82 -28 -100t46 -15q51 5 132.5 12.5t109 10t71 5t85.5 3.5q94 309 239 533z" />
<glyph unicode="5" horiz-adv-x="937" d="M92 238l-65 34q-59 -142 -4.5 -218.5t190.5 -76.5q95 0 195.5 36t184 96.5t142 146.5t70.5 178q16 102 -12 174.5t-93.5 112t-152 56t-199.5 14.5q-54 -1 -59.5 16.5t19.5 96.5q18 58 28 97q12 41 31.5 70.5t41 49.5t58.5 33t68.5 19.5t88 9.5t100 4t121 2t136.5 3 l-12 70q-58 -2 -162 -4q-103 -2 -150 -3.5t-117.5 -9t-102.5 -21.5t-71.5 -39t-61 -63.5t-36.5 -93.5q-10 -38 -24 -83t-21.5 -68.5t-14.5 -52t-5 -42t9 -28t25.5 -20t45.5 -9.5t69 -4q80 0 139.5 -6t113 -23.5t84.5 -47t44.5 -77.5t3.5 -114q-10 -75 -52.5 -142.5 t-105 -116.5t-134.5 -84t-148 -53q-82 -20 -142 -5.5t-79.5 61t16.5 125.5z" />
<glyph unicode="6" horiz-adv-x="790" d="M94 489l21 -14q-39 -188 -15 -313q21 -101 73.5 -144t111.5 -43q56 0 111.5 35t100.5 93t80 121t60 130q48 126 22 244q-23 121 -112.5 160t-206.5 -23q-60 -35 -98 -73q108 292 266 432q121 109 229 71l25 64q-140 52 -299 -84q-84 -74 -159.5 -197t-131.5 -274 q-30 -88 -43 -137q-6 -8 -17.5 -24t-17.5 -24zM268 47q-64 17 -90.5 94t-19 172t36.5 195q88 119 178 168q53 27 97 28t74 -27.5t45 -71t10.5 -104t-30.5 -126.5q-21 -62 -54 -122.5t-72.5 -111.5t-86 -77.5t-88.5 -16.5z" />
<glyph unicode="7" horiz-adv-x="798" d="M199 1157v72q388 4 493 -4q73 -6 118 -18t68 -34t17 -55.5t-39 -81.5q-27 -36 -169 -187.5t-208 -236.5q50 -3 103 4l14 -71q-85 -11 -166 0q-191 -258 -299 -565l-68 20q102 290 285 555q-44 3 -117 -20l-22 69q92 30 188 19q92 124 231.5 270t168.5 182q31 40 22 53 q-13 19 -137 27h-4q-99 6 -479 2z" />
<glyph unicode="8" horiz-adv-x="761" d="M797 1288l-29 66q-474 -189 -522 -406q-31 -149 96 -313q-115 -110 -195.5 -204.5t-132.5 -199.5q-40 -79 -34 -137q3 -51 37 -81t86 -36.5t108.5 -0.5t110.5 24q72 22 141 61.5t102 83.5q67 107 21 236q-25 60 -75.5 134t-80.5 106q175 167 250 270q132 169 158 338 l-72 18q-11 -66 -39 -131.5t-58.5 -115t-84.5 -112.5t-90 -100.5t-103 -103.5q-99 143 -74 244q37 181 480 360zM387 575q3 -4 24.5 -31.5t34.5 -46.5t34 -53t30.5 -63t17 -63t0 -67.5t-27.5 -62.5q-17 -31 -74 -64t-129 -56q-159 -54 -218.5 -21.5t-0.5 148.5 q50 97 124 184t185 196z" />
<glyph unicode="9" horiz-adv-x="862" d="M344 0l66 -10q9 86 51 191.5t83 179t113 192.5q47 79 73 126t64.5 124t59 134t36 128t15.5 135q0 24 -17.5 32.5t-36.5 0t-24 -28.5q-14 -54 -38 -110.5t-76.5 -129.5t-120.5 -126q-192 -150 -303 -33q-63 66 -17 141q28 51 95 100.5t159 88.5q83 34 158.5 48t114.5 3 l16 63q-57 16 -145 -1.5t-172 -53.5q-100 -41 -174.5 -97t-108.5 -114q-68 -117 27 -223q156 -156 393 24q15 12 28.5 25t24.5 23.5t22.5 24t19 22.5t17.5 23t15 20.5t13.5 21t11 19t11 18.5t9.5 16q-19 -61 -56.5 -138t-65.5 -126.5t-85 -144.5q-55 -91 -87 -148t-73 -139 t-64.5 -156t-31.5 -145z" />
<glyph unicode=":" horiz-adv-x="366" d="M143 528h23q13 -21 35 -30q16 -4 24 -2q35 4 49 51q6 51 7 59l-41 4l-2 2q-7 19 -21 29t-23.5 9t-15.5 -1q-14 -2 -26 -14t-13 -33v-18q0 -2 4 -56zM-51 -27h22q13 -21 35 -30q16 -4 25 -2q35 4 49 51q4 28 6 59l-41 4l-2 2q-7 19 -20.5 29t-23 9t-15.5 -1 q-14 -2 -26 -14t-13 -33l1 -3v-7t-1 -8q0 -2 4 -56z" />
<glyph unicode=";" horiz-adv-x="483" d="M215 535h23q17 -26 34 -29q10 -4 25 -4q38 9 49 53q3 23 6 57l-41 6l-2 3q-7 19 -20.5 28.5t-22.5 8.5t-14 -1q-36 -9 -39 -47v-20q-2 -9 2 -55zM-66 -262l74 -51q54 75 88 159q53 116 19 174q-30 51 -107 39l17 -90q11 5 14 2q0 -33 -25 -94q-23 -61 -80 -139z" />
<glyph unicode="&#x3c;" horiz-adv-x="1054" d="M1221 1235l-50 78q-189 -138 -370 -257t-257 -163.5t-198 -114.5q-106 -56 -147 -85t-52 -64q-12 -36 5 -62t75 -78q51 -43 85.5 -75.5t98.5 -99.5t131 -158.5t134 -202.5l72 47q-69 114 -135.5 206.5t-130 160.5t-95.5 98.5t-84 77.5q-9 9 -27 23t-28 23.5t-10 16.5 q0 13 20 26.5t62 33t55 26.5q7 4 49.5 28.5t58.5 34t62.5 36.5t73.5 43.5t78 48t89 56t94 61t106 71t111.5 77t123.5 87.5z" />
<glyph unicode="=" horiz-adv-x="1239" d="M227 733h1018l21 84h-1018zM102 508l-20 -86q82 0 198.5 4t122.5 4q357 8 652 8l20 86q-115 0 -655 -8q-7 0 -121.5 -4t-196.5 -4z" />
<glyph unicode="&#x3e;" horiz-adv-x="968" d="M-117 0l47 -63q92 74 182.5 141.5t155 113t142.5 96t116 73.5t105 63t82 49q131 80 162 108q32 28 43 58q14 41 -9.5 76.5t-99.5 109.5q-149 156 -373 465l-61 -57q239 -332 383 -469q14 -17 41.5 -44t36.5 -40q2 -7 2.5 -13.5t-7.5 -15.5t-15 -16.5t-21 -17.5t-24.5 -17 t-25.5 -16.5t-25 -15t-22 -12t-16 -9.5q-16 -9 -84.5 -50t-107 -64.5t-118 -74.5t-145 -97.5t-158.5 -115.5t-186 -145z" />
<glyph unicode="?" horiz-adv-x="823" d="M260 324l74 -25q10 56 37.5 114t55.5 100.5t80.5 100t82 86.5t90.5 86q58 53 90.5 85t75.5 81.5t64.5 88t35 86.5t8.5 94q-18 122 -90 182q-61 55 -159 55q-118 0 -222 -74q-110 -81 -125 -188l78 -10q9 75 92 135.5t177 60.5q39 0 71.5 -12t62.5 -52.5t38 -107.5 q5 -42 -8.5 -82.5t-56.5 -93t-69.5 -79.5t-97.5 -95q-5 -6 -8.5 -9.5t-7.5 -6.5q-62 -58 -96 -91t-86.5 -91t-83.5 -104t-60 -108.5t-43 -125.5zM182 -14l21 8q22 -17 43 -17q14 0 24 7q31 18 29 65l-14 57l-41 -10l-2 2q-14 16 -30 20t-24 1.5t-14 -6.5q-31 -18 -20 -58 q0 -1 1 -3t2.5 -6.5t2.5 -8.5q0 -1 22 -51z" />
<glyph unicode="@" horiz-adv-x="1005" d="M713 866l4 13q-85 26 -228 -68q-50 -33 -95 -75.5t-78.5 -91t-38.5 -91.5t26 -78q74 -71 172 -16q33 17 72 53q-18 -85 18 -117q33 -26 87 -0.5t112 84.5t111 127t94 135q69 111 97.5 207.5t14 168t-84 106.5t-189.5 22q-292 -28 -496 -270q-171 -194 -235 -477 q-37 -173 -4.5 -305t125.5 -183q65 -38 153.5 -28t206 79t250.5 191l-53 55q-353 -322 -521 -231q-69 40 -91 149.5t8 257.5q26 118 81.5 230.5t137 211t198 165t248.5 79.5q82 7 129.5 -9.5t60.5 -58t-1.5 -100.5t-55.5 -141q-74 -147 -194 -280q-75 -81 -138 -119 q0 56 78 223q68 145 66 152l-6 28zM666 805q-18 -35 -80 -127q-160 -218 -230 -148q-22 22 40.5 94.5t135.5 120.5q77 53 134 60z" />
<glyph unicode="A" horiz-adv-x="821" d="M719 662l22 -66q-65 -21 -100 -29q-33 -203 -47.5 -346t-3.5 -248h-70q-17 186 47 572q-181 -53 -282 -35q-322 -530 -330 -549l-55 39q12 19 138.5 232t276 469t193.5 339q12 25 52 91.5t52 80.5q22 30 52.5 39.5t51.5 -8t17 -57.5q-6 -85 -53 -373q-3 -30 -12.5 -89 t-12.5 -79q47 14 64 17zM582 621q4 36 15 105.5t15 102.5q3 15 11.5 64.5t14.5 83t13.5 82t8.5 63t-1 25.5q-15 0 -63 -100q-56 -106 -274 -474q52 -4 117 8t102.5 24.5t40.5 15.5z" />
<glyph unicode="B" horiz-adv-x="759" d="M303 1165l-4 64q83 6 191.5 0t175.5 -21q37 -8 69.5 -19.5t63.5 -29t49 -38.5t25.5 -47.5t-7.5 -57.5q-14 -32 -55.5 -67t-118.5 -87q-41 -30 -62 -45.5t-62.5 -50t-59.5 -60.5t-12 -44q10 -21 34 -54t39 -59t27 -62.5t4.5 -83.5t-35.5 -102q-82 -157 -246 -240 q-160 -80 -294 -53q-2 -4 -5.5 -12t-5.5 -12l-57 24q85 208 143.5 364t124 381t92.5 412h-14zM657 913q9 7 25 18t27.5 19.5t26 19.5t25 19.5t21.5 19t17 18.5t10 16.5t3 16t-7 13.5q-26 40 -149 67t-273 27q-63 -435 -334 -1099q115 -16 242 49q70 36 127 92.5t90 120.5 q29 60 29.5 105.5t-16 70t-44.5 63.5t-41 72q-12 34 -0.5 67t51.5 71t70 61t92 67q2 2 4 3.5t4 2.5z" />
<glyph unicode="C" horiz-adv-x="792" d="M848 1163l16 66q-114 26 -217 -6t-205 -111q-167 -133 -295 -389q-100 -211 -116 -410q-21 -210 82 -293q166 -120 518 166l-43 54q-135 -112 -251 -162.5t-183 -1.5q-73 60 -58 233q12 175 113 385q113 235 274 365q183 148 365 104z" />
<glyph unicode="D" horiz-adv-x="772" d="M313 1255l62 -16q139 4 231.5 -42.5t132.5 -113.5q51 -80 56.5 -188t-24 -211.5t-85.5 -204.5q-133 -236 -335.5 -357.5t-422.5 -121.5h-8v66h31q74 190 201.5 624.5t160.5 564.5zM629 512q85 151 100 297t-45 240q-39 64 -126 97t-196 28q-15 -63 -57 -222.5t-125 -439 t-145 -438.5q133 19 253 89.5t201.5 158t139.5 190.5z" />
<glyph unicode="E" horiz-adv-x="735" d="M881 1239l4 -68q-38 0 -143.5 -7.5t-200 -7.5t-166.5 15q-15 -50 -99 -301q-32 -87 -73 -200q52 4 100 2t109.5 2.5t105.5 19.5l23 -65q-69 -25 -207 -27.5t-158 -5.5l-145 -422q-37 -100 -27 -113q14 -14 61.5 -16t113.5 5t128 16.5t124 19.5t83 12l8 -67 q-3 0 -73.5 -13.5t-143.5 -23t-156.5 -15.5t-143 7.5t-73.5 46.5q-13 19 29 153q1 4 123 346.5t129 360.5q13 39 36 107.5t42 126.5t35 110l4 16q77 -24 180.5 -27t224.5 5t146 8z" />
<glyph unicode="F" horiz-adv-x="714" d="M903 1241l15 -72q-79 -15 -177.5 -19t-168 -1.5t-179.5 10.5q-35 -112 -92 -309q-7 -25 -21.5 -79t-23.5 -83q39 1 119.5 6t93.5 6v-71l-238 -15q-127 -401 -268 -649l-63 35q57 100 104 202.5t92 233t67 200.5t70 232q49 182 111 369l8 -2q343 -36 551 6z" />
<glyph unicode="G" horiz-adv-x="825" d="M805 1190l14 65q-141 25 -269.5 -30t-234.5 -185q-166 -202 -235 -499q-32 -136 -34 -256.5t26 -196.5q26 -66 70 -94.5t98 -21.5t105.5 29.5t105.5 59.5q147 96 223 211q81 117 37 189q-27 43 -89.5 56.5t-132.5 6.5l5 -65q130 11 159 -33q10 -14 0.5 -46.5t-35.5 -68.5 q-74 -109 -204 -194q-53 -35 -96 -54t-79.5 -22.5t-62.5 14t-41 56.5q-25 68 -23 178t31 235q71 287 224 473q37 45 78.5 81.5t96.5 68.5t122.5 44t140.5 -1z" />
<glyph unicode="H" horiz-adv-x="786" d="M713 647l8 -41q-3 0 -10.5 -1t-10.5 -1q-9 -30 -77 -297q-52 -217 -88 -340l-64 21q23 74 88 336q6 23 32 122.5t42 153.5q-77 0 -160 6q-197 9 -262 -4q-59 -195 -118 -348.5t-138 -288.5l-55 35q59 103 114 238t85.5 229.5t78.5 255.5q101 349 182 532l60 -28 q-97 -235 -187 -555q84 11 240 0q122 -8 178 -6q19 72 49 157q80 257 207 445l56 -39q-143 -205 -250 -582z" />
<glyph unicode="I" horiz-adv-x="782" d="M944 1229l14 -70q-138 -34 -305 -37q-276 -609 -368 -1028q132 14 250 6l-5 -69q-103 7 -207.5 -3t-225.5 -30.5t-177 -26.5l-6 70q54 5 166 23.5t133 21.5q89 421 367 1036q-165 6 -285 43l18 66q131 -38 299 -39t332 37z" />
<glyph unicode="J" horiz-adv-x="845" d="M1044 1231v-70q-190 0 -284 -2l6 -2q-30 -120 -47.5 -188t-57.5 -196t-81 -230q-64 -171 -156.5 -317.5t-202.5 -215.5q-53 -33 -98.5 -36t-79.5 28q-39 36 -49 117.5t3 157.5t36 120l61 -32q-15 -29 -26.5 -92.5t-7.5 -130.5t30 -89q26 -23 94 17q177 105 332 495 q103 269 176 592q-46 0 -138.5 -1t-137.5 -1v72q53 0 158.5 1t154.5 1q104 2 315 2z" />
<glyph unicode="K" horiz-adv-x="768" d="M858 1227l53 -47q-96 -128 -273.5 -284.5t-315.5 -252.5q-31 -22 -44.5 -45.5t-14.5 -45.5t13 -51t31.5 -55.5t47.5 -67.5q5 -6 7.5 -9.5t6.5 -9.5t8 -11q45 -56 63.5 -81t52.5 -76.5t51 -97t23 -93.5l-69 -4q-3 21 -9.5 43.5t-12.5 40t-20 43t-21 37.5t-26.5 40.5 t-24.5 36t-28.5 38.5t-25.5 34t-15 18.5t-16 19.5t-14.5 18t-15.5 19.5t-13 18t-13.5 19.5t-12 18t-11.5 18.5t-9 17t-9 18.5q-33 -74 -99 -218q-111 -228 -157 -356l-62 31q44 118 158 360q59 129 85.5 188.5t76.5 180.5t74 198.5t45.5 176.5t23.5 180l66 -6 q-5 -215 -121 -518q146 107 310 250.5t257 265.5z" />
<glyph unicode="L" horiz-adv-x="702" d="M379 1229l-72 8q-4 -122 -65 -334t-135 -402.5t-154 -367.5q-88 -192 -62 -205q3 -1 7 0q129 38 235.5 56t165 17t121.5 -1.5t104 0.5l-8 70q-43 -3 -98 -1.5t-103 4.5t-137 -11t-201 -48q-5 -3 8 30t42 99t63 143.5t75.5 182t74.5 197.5q129 364 139 563z" />
<glyph unicode="M" horiz-adv-x="872" d="M-94 -33l63 -20q17 56 109 320.5t121 377.5q24 97 57 212.5t57.5 190t28.5 74.5q6 0 23 -84q76 -337 153 -350q11 -2 24.5 4t31 22t31 28.5t35 39t30.5 38.5t31.5 41.5t25.5 33.5q64 86 135 170.5t78 77.5q5 -3 -53 -182q-10 -30 -36.5 -113t-48.5 -150t-44 -127 q-12 -37 -48 -142.5t-50 -147.5t-36 -111t-31.5 -107.5t-12.5 -62.5l65 -10q3 22 13 61t31.5 105t36.5 112t48 143.5t47 137.5q88 250 137 414q4 13 12 39.5t12.5 42.5t11 39.5t9 39t4 32t-1 28.5t-8.5 20q-59 52 -180 -86q-17 -18 -88.5 -116t-131.5 -174.5t-69 -67.5 q-22 22 -51 118t-47 177q-36 136 -47 159q-18 37 -47 37q-38 0 -88 -182q-93 -316 -115 -405q-29 -116 -118.5 -372.5t-108.5 -324.5z" />
<glyph unicode="N" horiz-adv-x="878" d="M-100 0l65 -29q56 127 119 304.5t96 280t90 288.5l88 272q0 -266 27 -571q10 -105 19 -178.5t25.5 -172.5t41.5 -165.5t57 -94.5q79 -58 125 70q42 99 197 651q144 512 172 574l-64 31q-31 -67 -178 -584q-47 -177 -113 -398.5t-94 -283.5q-74 68 -116 559 q-27 301 -27 551q0 6 1 22t1 24.5v24t-1 24.5t-2.5 22t-5 21t-8.5 16t-12 12.5t-16 5.5q-16 4 -31 -8t-28.5 -39.5t-19.5 -41.5t-15 -40q-29 -82 -96.5 -303t-143.5 -444.5t-153 -399.5z" />
<glyph unicode="O" horiz-adv-x="788" d="M442 1108l-45 55q-70 -61 -147.5 -207t-126.5 -280q-57 -147 -95 -318.5t-16 -257.5q66 -263 428 31q94 78 178 208.5t146 291.5q58 131 78 276q47 300 -94 344q-110 34 -306 -143zM358 1004l48 -39q59 63 111.5 109t85.5 66.5t62 34t42 11.5t24 -2q42 -12 49.5 -99 t-16 -204t-66.5 -222q-56 -151 -137.5 -275.5t-169.5 -199.5q-55 -45 -97.5 -75t-75 -46.5t-55.5 -21.5t-39.5 2.5t-27 24t-16.5 43.5q-15 79 12.5 223t91.5 313q85 214 174 357z" />
<glyph unicode="P" horiz-adv-x="718" d="M379 1257l65 -28q123 63 223 83t157.5 -10t54.5 -108q-9 -123 -199 -307q-201 -197 -459 -318q-5 -16 -36 -113t-42 -131t-36.5 -108.5t-47.5 -131.5t-47 -114l-63 29q86 199 186 535l-14 -7l-29 64q6 2 31 12.5t37 16.5q2 2 2 4q117 399 217 632zM807 1200q4 55 -73 52 q-118 -5 -333 -126q-63 -163 -151 -462q211 109 381 274q170 170 176 262z" />
<glyph unicode="Q" horiz-adv-x="724" d="M455 1245l24 -22q77 57 146.5 30t107.5 -135q72 -205 -16 -453.5t-271 -447.5q2 -13 17 -103.5t18 -113.5l-67 -10q-10 79 -29 166q-142 -136 -233 -179q-117 -41 -155 33.5t-5 231.5q27 150 112 368q86 213 183 389.5t168 245.5zM344 457l68 8q4 -55 20 -156 q94 111 155.5 230.5t83 222.5t20.5 187.5t-23 146.5q-46 110 -106 94t-120 -143l-36 18q-114 -185 -236 -481q-89 -238 -111 -357q-36 -177 13 -192q18 -5 51 8q99 45 248 199q-23 163 -27 215z" />
<glyph unicode="R" horiz-adv-x="794" d="M338 1243l59 -10q97 11 176 14q193 5 280.5 -54t29.5 -179q-26 -55 -68 -105t-99.5 -93.5t-98.5 -70.5t-107 -65q-47 -28 -74.5 -45.5t-59 -41t-45 -43t-9.5 -36.5q11 -64 50.5 -146.5t79.5 -143.5t86.5 -128.5t57.5 -87.5l-61 -41q-257 356 -287 535q-5 30 8 60 t33.5 52.5t54 47.5t58.5 40t58 34q9 5 13 7q63 37 102.5 63t91.5 66t89 83.5t61 91.5q34 70 -22 100t-220 27q-69 -2 -178 -15q-26 -130 -71 -269.5t-73 -208t-97 -230.5q-136 -319 -187 -476l-69 25q53 167 190 481q63 149 90.5 217.5t70 198t68.5 248.5h-4l-12 74 q10 3 31 6q1 3 2 9t2 9z" />
<glyph unicode="S" horiz-adv-x="612" d="M-31 41l8 -68q36 0 99 23q201 75 308 154.5t132 171.5q6 33 7.5 60t-10.5 61.5t-23.5 61t-32.5 59t-37 55t-37 49.5q-68 87 -99 148t-14 116q9 49 73.5 99.5t145.5 87t179 67.5l-27 65q-389 -129 -438 -297q-27 -97 51 -224q17 -28 72 -105q19 -24 28.5 -37t26 -35.5 t25 -36.5t20 -34.5t16 -36.5t9 -34.5t4 -36t-5.5 -34.5q-42 -150 -402 -279q-50 -20 -78 -20z" />
<glyph unicode="T" horiz-adv-x="868" d="M1063 1245l8 -71q-5 0 -225 -11q-115 -8 -182 -10q-154 -631 -322 -1051q-10 -22 -25.5 -67.5t-25.5 -67.5l-68 33q9 34 53 133q148 379 312 1020q-194 0 -314 43l15 68q134 -42 317 -39q4 16 4 22l64 -20q63 2 160 10q160 8 229 8z" />
<glyph unicode="U" horiz-adv-x="974" d="M420 1229l-62 37q-92 -169 -161 -356t-103 -355q-20 -100 -26.5 -189t9.5 -182.5t62 -144.5q120 -111 316 -16q92 46 183 142t156.5 199.5t120.5 221.5q95 192 142.5 364.5t27.5 266.5l-65 -9q15 -203 -168 -590q-84 -171 -202 -324t-230 -206q-160 -69 -227 -2 q-44 51 -52.5 167.5t23.5 283.5q67 338 256 692z" />
<glyph unicode="V" horiz-adv-x="909" d="M344 1208l-68 15q-80 -479 -57 -908q12 -158 27 -229q21 -105 57 -107q43 -3 135 134q10 15 21 32q43 70 207 359q282 520 442 725l-51 43q-65 -85 -150.5 -221t-146.5 -241t-156 -273q-124 -222 -196 -340q-73 -129 -89 -129q-18 0 -34 270q-29 365 59 870z" />
<glyph unicode="W" horiz-adv-x="1103" d="M381 1237l-62 29q-121 -259 -186 -785q-15 -112 -25.5 -230t-14 -175.5t-3.5 -69.5q6 -46 37 -44q38 2 80 71q11 15 24 36.5t30.5 53l27.5 49.5q113 198 157 258q32 47 57.5 73.5t35 31t12.5 2.5q11 -9 43 -179q15 -93 26 -146t35.5 -114t57.5 -84q68 -47 102 31 q46 109 107 287q14 38 53 143.5t59.5 161.5t56.5 151.5t59 153t50 123t46.5 105.5t33.5 59l-57 39q-15 -20 -34.5 -60t-47.5 -107t-50.5 -122t-60 -155t-57 -151.5t-62 -166.5t-55.5 -150q-58 -166 -104 -286q-4 -10 -20 19q-16 33 -34 91q-19 65 -34 189q-23 116 -37 162.5 t-37 62.5q-17 13 -36 15t-39.5 -9t-40 -27.5t-44 -47.5t-45.5 -61t-49.5 -76.5t-51.5 -86t-55 -96.5q-10 -16 -32.5 -54.5t-34.5 -56.5q28 292 41 385q66 507 178 758z" />
<glyph unicode="X" horiz-adv-x="753" d="M879 1262l61 -35q-148 -268 -481 -666q47 -234 94 -561l-70 -10q-35 234 -82 504q-10 -13 -29.5 -36.5t-29.5 -35.5q-11 -13 -56.5 -67t-62 -73.5t-55.5 -66.5t-61 -74.5l-54 -67.5t-58.5 -75t-51.5 -70l-56 41q120 166 402 500q13 15 98 115q-67 376 -104 624l69 13 q33 -236 92 -572q296 356 435 613z" />
<glyph unicode="Y" horiz-adv-x="700" d="M846 1284l55 -47q-21 -29 -69.5 -98t-70 -99t-63 -87.5t-69.5 -95t-67 -88.5t-77 -99q-32 -42 -68.5 -72.5t-60.5 -38.5q-7 -49 -33.5 -137t-29.5 -100q-3 -9 -13.5 -45.5t-14 -50t-12 -45.5t-13 -51t-10 -46.5t-9.5 -52t-6 -49.5l-70 18q17 132 82 350q4 17 27.5 96.5 t30.5 122.5q-49 46 -49 201q0 112 49 479l67 -20q-43 -341 -45 -449q-2 -137 19 -155q7 -6 50.5 35.5t69.5 74.5q68 85 400 549z" />
<glyph unicode="Z" horiz-adv-x="679" d="M309 1188l-12 65q8 -1 324 9q110 0 146.5 -30t8.5 -116q-21 -66 -74 -139q-96 -133 -253 -318h118l13 -65q-124 0 -181 4q-23 -28 -69.5 -82.5t-73 -86t-60.5 -76t-59 -81.5q-155 -233 23 -233q94 0 295 49l32 -61q-208 -54 -311 -54h-4q-107 0 -152 51t-20 138 q18 56 80 151q80 121 231 293q-5 1 -18 2t-19 2l-10 66q23 -2 54.5 -5.5t41.5 -4.5q2 3 7.5 8t7.5 8q200 234 270 338q87 124 78 164q-2 13 -100 10q-29 0 -106 -2t-139 -3.5t-69 -0.5z" />
<glyph unicode="[" horiz-adv-x="520" d="M825 1434l-6 65q-28 -3 -69 1.5t-81.5 5t-80.5 -12.5q-16 -5 -31.5 -20.5t-50.5 -76.5t-82 -169q-84 -187 -198.5 -505t-202.5 -587q-86 -263 -80 -291q6 -41 60 -59t113 -14.5t101 16.5l-20 61q-46 -17 -106 -13t-73 26q-6 8 17.5 93t50.5 165q246 736 389 1065 q109 243 135 248q30 12 108.5 5.5t106.5 -3.5z" />
<glyph unicode="\" horiz-adv-x="704" d="M338 1413l-70 -18q32 -145 52.5 -312t28.5 -272.5t19 -301.5l3 -60q20 -477 53 -740l74 10q-38 269 -58 732q-7 201 -14.5 325t-29.5 301t-58 336z" />
<glyph unicode="]" horiz-adv-x="559" d="M-193 -174l-8 -64q48 -8 163.5 11t150.5 61q80 100 194 383t197.5 544t118.5 408q53 219 43 289q-11 38 -64 51t-108.5 6.5t-98.5 -20.5l19 -61q123 30 188 6q7 -49 -39 -238q-41 -164 -122 -420t-191.5 -532.5t-188.5 -374.5q-17 -23 -115.5 -39.5t-138.5 -9.5z" />
<glyph unicode="^" horiz-adv-x="858" d="M211 899l65 -82q300 239 490 424q-35 -221 4 -448l98 18q-41 263 25 520q12 58 5 77q-8 17 -24 26q-11 7 -23.5 7.5t-22 -3t-22 -13.5t-19.5 -16.5t-19 -19.5t-16 -17q-249 -242 -541 -473z" />
<glyph unicode="_" d="M-213 -174l41 106q33 0 159.5 1t159.5 1t146.5 -1t146.5 -1l-41 -106q-33 0 -147.5 1t-145.5 1t-158.5 -1t-160.5 -1z" />
<glyph unicode="`" horiz-adv-x="450" d="M406 1681l-87 -24q27 -76 105 -203q32 -51 48 -79t35 -70.5t25 -75.5l89 16q-3 16 -7.5 33t-9.5 31t-14 33.5t-15 30.5l-18 33t-17 30.5t-19.5 32.5t-18.5 30q-78 126 -96 182z" />
<glyph unicode="a" horiz-adv-x="704" d="M575 815l-22 59q-293 -106 -469 -389q-66 -106 -99.5 -221t-25.5 -203q0 -60 31 -100.5t78 -40.5q76 0 186 119q27 31 92 123q-9 -80 14 -121q43 -55 127 -23l-26 62q-35 -13 -43 -2q-3 3 -5.5 11.5t-1 40t12.5 75.5q2 7 8 30.5t10 37.5t11 35.5t15 42.5t17 42 q0 1 36.5 75t75.5 152t42 85t9 20t9 20.5t7 18t5 17.5t0.5 14.5t-4 13t-10.5 8.5q-26 19 -42 -0.5t-68 -118.5q-95 -204 -121 -276q-68 -126 -128.5 -216t-105 -135t-75.5 -64t-54 -19q-29 6 -36 78q-7 68 20.5 172t95.5 213q165 261 434 364z" />
<glyph unicode="b" horiz-adv-x="704" d="M496 1434h-68q-41 -158 -162 -504q-13 -36 -44.5 -124t-49.5 -136q-48 -69 -156 -348q-28 -69 -59.5 -158.5t-38.5 -108.5q-15 -46 10 -65q20 -15 39 6l4 4q29 -30 89.5 -18.5t127 44.5t127.5 78q106 76 185 170t116 187q49 114 38 216t-89 146q-83 45 -196 4 q-51 -21 -86 -47q8 24 23.5 67t21.5 60q119 330 168 527zM229 639q70 91 164 127q84 28 139 0q52 -29 58 -103.5t-35 -177.5q-32 -84 -104.5 -170t-171.5 -157q-79 -55 -153 -89t-110 -22q-21 8 11 99t103.5 255.5t98.5 237.5z" />
<glyph unicode="c" horiz-adv-x="579" d="M567 748l4 71q-95 6 -183.5 -29.5t-157.5 -99.5t-121.5 -144.5t-85.5 -170.5q-27 -71 -36 -140.5t5.5 -132.5t56.5 -94q33 -22 71.5 -26t80.5 10.5t82.5 38t89.5 59.5l-41 55q-177 -127 -240 -79q-27 20 -33.5 71t2.5 106.5t29 106.5q29 81 75.5 153t106.5 129.5t137 89 t158 26.5z" />
<glyph unicode="d" horiz-adv-x="651" d="M412 0h-74q0 54 4 104q-88 -127 -168 -127h-4q-69 4 -113.5 74.5t-48 176t34.5 229.5q33 97 85.5 175.5t111.5 123.5q148 99 303 14q8 23 106.5 299.5t106.5 294.5q2 6 6.5 17t7 17t7 16.5t7.5 15.5t8.5 14t9.5 11t10.5 7t12 2.5t13.5 -2.5q11 -4 15 -12.5t1 -27 t-6.5 -30t-12.5 -39.5q-1 -5 -2 -7t-2 -6t-2 -7q-1 -2 -28 -79.5t-67 -191t-82 -234t-78.5 -227t-51.5 -152.5q-81 -250 -95.5 -309.5t-14.5 -139.5zM446 477q1 3 29.5 89t44.5 136q-68 41 -115.5 41t-115.5 -43q-123 -82 -185 -270q-24 -71 -25.5 -159.5t21.5 -152.5 t62 -67q8 -1 19 1.5t30 12t43.5 35t48.5 64.5q19 26 38.5 64.5t31.5 67t36 90t37 91.5z" />
<glyph unicode="e" horiz-adv-x="630" d="M483 129l-34 45q-94 -71 -177.5 -105.5t-141 -24.5t-78.5 68.5t9 172.5q112 22 215.5 68.5t188 118.5t125.5 157q27 51 31.5 95t-13.5 71.5t-51 40t-83.5 1.5t-108.5 -46q-152 -87 -265 -259q-80 -126 -107.5 -256t13 -218.5t146.5 -88.5q129 0 331 160zM530 645 q-48 -93 -162 -175.5t-288 -117.5q38 111 118 214t191 167q102 63 144 35.5t-3 -123.5z" />
<glyph unicode="f" horiz-adv-x="595" d="M143 680v68q113 0 207 6q79 282 144 448q88 222 184 254.5t188 -143.5l-59 -31q-65 128 -120 107t-130 -211q-46 -116 -137 -420q100 11 158 20l12 -65q-112 -18 -191 -23q-180 -661 -311 -807q-37 -45 -80.5 -58.5t-73.5 -2.5l17 65q37 -15 86 41q37 39 74 112t76.5 187 t63 190t63.5 212q4 12 5.5 19t5 17.5t5.5 18.5q-118 -4 -187 -4z" />
<glyph unicode="g" horiz-adv-x="686" d="M-170 -428l-61 22q-48 -131 6 -192q41 -46 112.5 -27t149.5 93q84 79 190 239q35 55 64 112t47 96.5t63 141.5q94 216 162 420q45 110 72 193q41 137 41 145q0 25 -14.5 34t-31 0.5t-22.5 -28.5q-8 -19 -45 -133q-4 -15 -61 -188q-8 -23 -35 -84q-39 -93 -77.5 -163.5 t-66 -108t-53 -61.5t-39.5 -31t-26 -9q-44 -6 -69 35.5t-26 103t7 129.5q12 67 36 133t63.5 128t88.5 106t116 63.5t140 3.5l14 64q-113 25 -214 -19t-179 -153q-98 -135 -129.5 -314.5t25.5 -277.5q47 -71 116 -69.5t128 65.5q-38 -86 -54 -121.5t-41 -82.5t-55 -95 q-58 -90 -112 -154.5t-93.5 -94t-61.5 -41.5t-38 -15q-43 -9 -52.5 31.5t15.5 103.5z" />
<glyph unicode="h" horiz-adv-x="749" d="M508 1452l-55 -18q23 -46 -82 -344l-94.5 -269.5t-96.5 -271.5q-8 -24 -47 -108.5t-59 -135.5q-122 -311 -64 -336q25 -11 49 26t50 107q13 35 52 171t64 196q35 80 65 123t103 104q125 103 185 97q42 -4 49 -57.5t-11 -120t-49 -136.5q-46 -101 -74.5 -177t-43.5 -141.5 t-9 -110t33 -70.5l47 45q-15 15 -16.5 46t6.5 66.5t26.5 88t36.5 97t45 106.5q9 20 13 30q33 79 50 144.5t17.5 122t-28 91t-84.5 41.5q-23 3 -47.5 -0.5t-49 -14.5t-44 -21.5t-43 -28t-35 -27t-31.5 -27t-21 -18.5q14 42 55 160.5t62 183.5q17 53 29.5 96.5t22.5 76.5 t16.5 60t11.5 45t6 34t3 23t-0.5 17.5t-2.5 12t-4.5 11.5t-5.5 11z" />
<glyph unicode="i" horiz-adv-x="387" d="M449 1094l-27 4q0 3 3.5 11.5t2.5 12.5l-72 -10q-2 -8 -4.5 -17.5t-5.5 -19.5q-13 -38 -12 -62.5t28 -21.5q18 2 32 17.5t31 45.5t24 40zM207 838l24 -64q25 11 25 -3q-1 -13 -29 -87q-13 -41 -80 -201q-73 -164 -108 -270q-39 -123 -19 -183.5t105 -60.5l-6 68 q-40 -5 -40 40q-1 38 25 116q19 62 105 264q40 94 60 144t36 102t14.5 81t-18.5 47q-37 32 -94 7z" />
<glyph unicode="j" horiz-adv-x="366" d="M352 1110l-28 8l-31 -84q-1 -19 9.5 -30t23.5 -11q26 0 47 41q5 6 20.5 26.5t28.5 35.5l-53 39q-2 -3 -17 -25zM-326 -362l-63 -11q17 -88 55 -120t94 2t119 133q86 133 170 329q86 198 167 463t95 387l-65 8q-14 -118 -95 -380.5t-163 -450.5q-67 -163 -162 -320 q-31 -49 -54.5 -76.5t-38.5 -36.5t-26.5 0.5t-18 25.5t-14.5 47z" />
<glyph unicode="k" horiz-adv-x="653" d="M678 879l41 -60q-51 -34 -175 -112.5t-222.5 -142t-116.5 -77.5q-6 -19 -18.5 -55t-18.5 -55q5 -15 46.5 -90t95.5 -171t75 -136l-61 -33q-31 58 -108.5 193.5t-82.5 144.5q-68 -172 -137 -316l-62 31q73 149 160 379q-19 80 51 147q32 92 156 483t143 449l66 -24 q-17 -52 -129 -405t-137 -429q9 6 94 59.5t184.5 117.5t155.5 102z" />
<glyph unicode="l" horiz-adv-x="440" d="M358 1411l37 -57q61 39 66 30q18 -35 -41 -233q-55 -177 -164 -455q-15 -40 -48.5 -128.5t-52 -139t-42.5 -119t-38 -119.5t-20 -88q-12 -68 13 -100t73 -20t99 61l-41 53q-11 -8 -24.5 -18.5t-19.5 -15t-15.5 -11t-12 -5.5t-8.5 1q-7 5 -8 20.5t4.5 41t14 56.5t22 71 t27.5 79t32 87.5t33.5 89t34.5 90.5t32 86q99 246 174 471q85 261 14 307q-43 28 -141 -35z" />
<glyph unicode="m" horiz-adv-x="1179" d="M160 803l-8 -70q52 -3 58 -70t-34 -184q-40 -119 -199 -471q-17 -33 8 -54q23 -19 42 -4q6 4 10 13q113 260 207 447q94 184 170 288q34 47 58.5 73.5t39 27.5t23.5 -4t12.5 -35t4.5 -51t1 -66v-45q1 -77 18.5 -114.5t45.5 -34.5t57.5 24.5t60.5 58.5q4 4 28 36t57.5 71 t68.5 72q130 127 154 110q19 -14 -21 -148q-1 -5 -51 -167q-162 -523 -37 -539l18 64q0 173 86 454q76 247 82 320q3 89 -44 103t-115 -36q-69 -53 -132 -121.5t-149 -175.5q-21 -26 -34 -35t-17.5 -2.5t-6 21t0.5 35.5q3 106 -8.5 176.5t-38.5 100t-68 15.5t-99.5 -80.5 t-129.5 -184.5q8 73 -21.5 124t-97.5 58z" />
<glyph unicode="n" horiz-adv-x="845" d="M152 776l45 -47q38 36 53.5 48t21.5 5q18 -54 -53 -278q-38 -59 -62 -111t-43.5 -111t-23.5 -69q-9 -22 -53 -143l-14 -50q-3 -29 22.5 -37t42.5 17q30 49 95.5 217.5t95.5 257.5q107 163 276 248q79 40 118 42t46 -32.5t-10 -103.5q-17 -77 -82 -250q-24 -67 -40 -116.5 t-29 -100t-15.5 -84.5t2.5 -62t22.5 -42.5t46.5 -16.5l4 66q-26 0 2.5 112.5t67.5 220.5q65 176 84 258q36 154 -28.5 199t-217.5 -33q-117 -57 -202 -145q10 39 13.5 79t-3.5 75.5t-25.5 52t-59 1.5t-97.5 -67z" />
<glyph unicode="o" horiz-adv-x="606" d="M326 825l8 -24q-152 -78 -243 -253.5t-101 -367.5q-10 -175 61 -236q65 -56 165 14q133 92 257 359q125 269 103 416q-21 139 -174 113q-36 -6 -76 -21zM383 745l-8 23q135 39 138 -86q2 -117 -107 -332q-109 -234 -210 -321q-85 -73 -120 3q-21 46 -19 142 q2 109 40 221.5t113.5 209t172.5 140.5z" />
<glyph unicode="p" horiz-adv-x="821" d="M244 797l-70 12q-8 -97 -33 -206t-48.5 -181.5t-65.5 -194.5q-76 -162 -182.5 -474t-98.5 -367q2 -22 15.5 -30.5t30.5 -2t28 23.5q16 26 61 170q14 37 47.5 145.5t68.5 223t40 131.5l14 -57q169 33 320 114t259.5 199.5t147.5 251.5q44 151 -22.5 241.5t-212.5 57.5 q-54 -12 -107 -45.5t-99 -84t-72.5 -84.5t-59.5 -81q-5 -8 -8 -12q38 122 47 250zM90 199q91 204 195 352q144 206 278 237q102 21 140 -42t4 -173q-23 -77 -77 -152t-135 -143t-197 -123.5t-253 -86.5q43 127 45 131z" />
<glyph unicode="q" horiz-adv-x="714" d="M657 799v47q-150 -3 -283 -65.5t-220 -172.5q-92 -108 -136 -243q-39 -130 -20 -238q9 -88 50 -124t99.5 -19t122.5 77q83 73 154 172q-21 -62 -33 -90q-125 -331 -170 -491q-30 -104 -40 -170t-6.5 -91t15.5 -42l54 43q-3 4 -4 16.5t6.5 61t27 121.5t66.5 212.5 t115 319.5q70 189 147 375q17 28 53.5 110t64.5 150l28 69q3 31 -21.5 39.5t-38.5 -8.5q-8 -8 -31 -59zM651 782q-20 -43 -62 -144t-46 -112q-78 -130 -154 -231q-98 -134 -170.5 -194.5t-107.5 -55.5q-36 5 -50 90q-15 92 20.5 210.5t121.5 219.5q98 116 203.5 164 t244.5 53z" />
<glyph unicode="r" horiz-adv-x="684" d="M145 809l43 -53q51 39 58 -7q4 -31 -8 -104q-4 -15 -19.5 -79t-28.5 -105q-16 -36 -32 -76.5t-34 -93.5t-29.5 -87.5t-34.5 -106.5t-33 -103q-7 -21 6 -35t31.5 -11.5t25.5 21.5q16 45 96 264t88 232q69 138 125 207t131 100q41 18 71 17t56 -14.5t80 -51.5l37 53 q-61 45 -97 62.5t-76.5 17.5t-98.5 -22q-92 -42 -197 -175q24 113 -20.5 159t-139.5 -9z" />
<glyph unicode="s" horiz-adv-x="428" d="M-57 57l-41 -49q61 -53 146.5 -32t152.5 102q42 51 63.5 107.5t26 100.5t-5.5 102t-19 88t-28 83q-16 49 -22.5 79.5t-3.5 55t13.5 36.5t38.5 20t62 10t92 2v65q-196 0 -249 -62t9 -226q15 -44 21.5 -65.5t17 -64t10 -72.5t-5.5 -69t-23 -76t-48 -73q-38 -44 -78 -64.5 t-71.5 -18.5t-57.5 21z" />
<glyph unicode="t" horiz-adv-x="538" d="M553 788l8 -67q-47 -3 -145 -23q-16 -39 -68.5 -165.5t-92 -224t-56.5 -150.5q-34 -91 -25 -119l-24 -64l-3 -2h-6q-22 -6 -41 13q-24 26 2 107t142 364q10 25 42 104t50 123q-128 -27 -162 -33l-16 66q110 27 207 41q66 166 104 303q24 76 38 137t16.5 96.5t0 61t-7 35 t-10.5 14.5l43 53q97 -79 -14 -420q-33 -114 -91 -266q71 13 109 16z" />
<glyph unicode="u" horiz-adv-x="772" d="M201 772l-31 59q81 37 115 3q16 -16 21 -43t-2.5 -66.5t-17 -74t-30.5 -87.5t-34 -82.5t-36 -81.5q-78 -172 -75 -270q2 -82 70 -54q32 13 79 54q116 104 195 229q115 194 233 465q20 41 51 29t9 -64q-1 -2 -22 -53t-42 -96q-6 -18 -32 -88.5t-50 -138t-43 -127.5 q-59 -186 -43 -248l-37 -55q-29 27 -35 63t5.5 92t46.5 172q-84 -133 -191 -229q-149 -129 -218 -79q-58 42 -36 187q16 109 76 238q59 125 90.5 222.5t22.5 133.5q-2 3 -39 -10z" />
<glyph unicode="v" horiz-adv-x="657" d="M692 907l43 -53q-16 -14 -115.5 -169.5t-211 -334.5t-132.5 -211q-48 -72 -92 -119q-65 -68 -96 -38t-18 131q1 17 13.5 80.5t33 174.5t35.5 220q6 50 8 96t0 70.5t-4 31.5l53 33q44 -73 -41 -516q-5 -36 -19 -99.5t-20.5 -100.5t-1.5 -37q14 0 102 133q1 2 63 101.5 t112.5 179.5t116 182.5t111 167.5t60.5 77z" />
<glyph unicode="w" horiz-adv-x="931" d="M238 836l-66 4q0 -94 -47 -273q-69 -254 -50 -388q11 -80 53 -75q49 6 126 129q152 243 149 100q0 -14 -2 -32q-11 -122 -2 -198.5t37.5 -103.5t68 -13.5t88.5 71t99 150.5q25 49 134.5 303t148.5 309l-53 37q-56 -83 -144 -299q-161 -399 -252 -482q-61 -56 -67 66 q-2 56 8 148q18 165 -48 180q-53 13 -131 -72q-40 -44 -75 -104q-80 -139 -78 -31q2 87 51 285q1 4 9.5 37.5t10.5 42t9 37.5t9.5 43.5t6 39t5.5 46t2 43.5z" />
<glyph unicode="x" horiz-adv-x="546" d="M461 848l61 -27q-84 -187 -252 -452q0 -5 3.5 -71.5t7.5 -140t10 -159t12 -133.5l-67 -8q-15 152 -27 415q-6 -9 -44.5 -68t-78 -119.5t-55.5 -86.5l-58 35q21 34 118.5 183.5t111.5 172.5q-16 278 -37 430l67 8q21 -146 31 -340q132 219 197 361z" />
<glyph unicode="y" horiz-adv-x="698" d="M-37 -276l-31 59q-102 -54 -144.5 -138t-14.5 -147.5t108 -66.5h2q26 0 56 9.5t72.5 34.5t95 79t106.5 131q103 148 197 368q107 255 198 580q5 19 13 43.5t13.5 39.5t9.5 32.5t3.5 28.5t-6.5 20.5t-18 15.5q-12 3 -21.5 0t-16.5 -13.5t-11.5 -20.5t-12 -30t-12.5 -32 q-2 -4 -21.5 -52.5t-27.5 -68.5t-28.5 -68t-35.5 -80t-35.5 -74.5t-40.5 -78.5q-97 -178 -182 -231q-59 -37 -77 8q-19 45 16 153q28 88 102 260q38 86 56.5 132t33 95t11.5 76.5t-21 45.5q-37 33 -129 -7l31 -61q35 16 51 16q5 -16 -19 -88q-10 -33 -88 -217t-94 -233 q-55 -180 1 -247q43 -51 129 -8q104 52 199 205q21 33 40 70q-127 -344 -262 -540q-41 -59 -83 -104t-72 -67.5t-57.5 -36.5t-41 -17t-21.5 -3q-65 3 -57 61q9 57 70 118q33 32 67 49z" />
<glyph unicode="z" horiz-adv-x="653" d="M176 750l-10 69q31 0 166.5 14.5t191.5 14.5q144 4 158 -52t-107 -145q-148 -112 -262 -211h129h21l6 -67h-20h-209q-96 -94 -134.5 -159t-25.5 -95q6 -23 69 -37t144 -14l6 -68q-109 0 -187 25t-98 73q-33 99 127 273q-9 0 -26.5 -1t-26.5 -1l-8 67q43 2 129 2 q25 24 55 50.5t53.5 46.5t59.5 48.5t54 42t57 43.5t49 38q28 20 42 31t23.5 21.5t5 13.5t-13.5 6.5t-32.5 1.5t-51.5 -1q-54 -2 -176.5 -15t-157.5 -15z" />
<glyph unicode="{" horiz-adv-x="526" d="M762 1434v65q-90 -3 -168 -74q-34 -29 -63.5 -69t-53.5 -93t-40.5 -94.5t-34.5 -109t-25.5 -98.5t-22.5 -99q-5 -25 -8 -37q-11 -40 -33 -60t-48 -24t-51.5 -6.5t-48.5 -15.5t-34 -41q-15 -30 -1 -55.5t37.5 -41t43.5 -34.5t16 -35q-4 -28 -45 -127t-84 -197t-47 -108 q-38 -105 -37.5 -184t52.5 -122.5t149 -35.5l-8 65q-71 -6 -102.5 25t-27.5 88t38 141q1 3 85.5 202.5t90.5 242.5q5 22 1 41t-18 34.5t-23.5 23t-27.5 20.5q-72 46 19 53q131 5 166 133q3 13 13 57t20 85t27 98.5t35.5 106.5t46 101t57.5 88.5t70.5 61.5t84.5 29z" />
<glyph unicode="|" horiz-adv-x="446" d="M-53 -176l63 -23q74 199 156 414q95 247 154.5 408t132.5 384t120 408l-65 19q-47 -183 -120 -405.5t-131.5 -381t-154.5 -409.5q-27 -72 -155 -414z" />
<glyph unicode="}" horiz-adv-x="577" d="M-197 -213v-66q123 -2 203.5 42.5t163.5 181.5q58 97 138.5 321t74.5 309q-2 30 25 52.5t60.5 33.5t60.5 27.5t26 36.5q-1 16 -20 29t-42 19.5t-43.5 15.5t-23.5 18q-5 15 12 44.5t43 61.5t27 33q222 312 156 451q-46 93 -211 102v-65q125 -9 151 -66q48 -108 -151 -383 q-1 -2 -37 -47.5t-50 -81.5t-4 -70q5 -21 29.5 -32t47 -17t24.5 -16q1 -6 -23 -17t-52.5 -24.5t-51 -42.5t-19.5 -66q4 -79 -68 -284.5t-132 -302.5q-3 -5 -16 -27.5t-19.5 -33.5t-23.5 -32.5t-31 -33.5t-38 -28t-49.5 -24t-61 -13.5t-75.5 -4.5z" />
<glyph unicode="~" horiz-adv-x="1036" d="M129 676l61 -74q166 134 256 119q20 -2 38 -11t37 -30t27.5 -32t29.5 -40q84 -108 167 -108q55 0 125 46.5t129 135.5l-79 55q-24 -36 -50 -63.5t-45.5 -41.5t-38 -22t-27.5 -10t-14 -2q-13 0 -42 22t-46 46q-23 33 -36.5 50t-39.5 43.5t-56.5 41t-65.5 18.5 q-142 19 -330 -143z" />
<glyph unicode="&#xa1;" horiz-adv-x="499" d="M485 1087l-20 -8q-22 17 -43 17q-16 0 -25 -6q-30 -17 -28 -66q2 -7 14 -57l41 10l2 -2q33 -37 68 -14q31 18 20 57q0 1 -1 3t-2.5 6.5t-2.5 8.5t-4.5 11.5t-9 19t-9.5 20.5zM-66 -250l72 -16q30 118 180 421t176 375q80 211 13 289l-56 -49q16 -17 16.5 -48.5t-9.5 -70 t-31 -94.5q-30 -81 -111.5 -242t-153.5 -315t-96 -250z" />
<glyph unicode="&#xa9;" horiz-adv-x="1069" d="M213 748l14 -7q-76 -116 -123.5 -233.5t-58.5 -210.5q-9 -94 24 -164.5t109 -97.5q109 -44 212.5 -52t199.5 21.5t177 110.5t134 209q105 242 72 544q-17 144 -68.5 243t-126.5 134q-121 55 -262 -63q-147 -123 -303 -434zM573 983l-14 70q-55 -9 -123 -68q61 86 125 141 q109 92 189 54q61 -27 100 -119.5t53 -202.5q14 -130 -3.5 -266t-63.5 -244q-24 -55 -54.5 -102.5t-85.5 -97t-120.5 -75t-162.5 -22t-208 46.5q-103 44 -88 191q8 91 58 208t132 232q72 105 146 176t120 78zM754 711v69q-106 3 -222 -78q-110 -72 -170 -174 q-64 -106 -22 -182q47 -84 213 -84v72q-128 0 -152 47q-20 44 23 111q46 81 145 150t181 69h4z" />
<glyph unicode="&#xab;" horiz-adv-x="1130" d="M643 764l-55 70q-114 -87 -260 -179q-136 -89 -178 -127q-84 -74 -82 -143q5 -63 67 -123.5t203 -138.5l41 80q-223 124 -223 184q-1 23 30 54t67.5 56.5t106.5 70.5q13 8 19 12q167 109 264 184zM1120 752l-55 67q-75 -57 -260 -178q-10 -6 -34.5 -22t-35 -23l-30 -20 t-30.5 -21t-24.5 -19t-23.5 -20q-84 -75 -82 -143q3 -63 65.5 -124t202.5 -138l43 77q-114 65 -168.5 109t-54.5 78q-2 40 101 112q25 18 122 80q163 105 264 185z" />
<glyph unicode="&#xad;" d="M129 672l-31 -80q61 -5 146 -7t147.5 -1.5t134 1.5t84.5 1l25 80q-13 0 -83 -1t-131 -1.5t-145 1.5t-147 7z" />
<glyph unicode="&#xb7;" horiz-adv-x="368" d="M111 403q15 0 32 17q9 0 15 2q8 -2 22 -2q21 0 33 6q15 4 29 23l6 12q1 1 3 4t3 4q16 23 10 51v8q0 1 -1 5t-1 6q-6 25 -29 36q-18 20 -40 35q-7 11 -19 17q-18 12 -41 -4q-13 -13 -16 -17l-4 -8q-11 -9 -23 -33l-6 -12q-2 -2 -8 -14q-8 -11 -8 -29q-2 -7 2 -16 q-2 -2 -2 -9q0 -14 6 -22v-4v-23q4 -24 28 -30q1 0 4 -1.5t5 -1.5z" />
<glyph unicode="&#xbb;" horiz-adv-x="1114" d="M8 203l53 -68q82 65 254 164q16 9 54.5 31.5t60.5 37t41 29.5q76 58 76 123q1 42 -24.5 86t-75.5 87t-95.5 74.5t-109.5 70.5l-45 -72q114 -73 191 -139.5t73 -102.5q0 -15 -13 -32t-45 -39t-55 -35.5t-74 -42.5q-173 -98 -266 -172zM465 180l53 -67q77 61 254 163 q15 9 43 25.5t43.5 26t35.5 22.5t34 25q76 58 76 123q1 42 -24.5 86t-76 86.5t-95.5 73.5t-110 71l-45 -72q115 -74 192 -139.5t73 -101.5q0 -15 -13.5 -32t-44.5 -38.5t-56 -36.5t-73 -43q-173 -98 -266 -172z" />
<glyph unicode="&#xbf;" horiz-adv-x="823" d="M682 1133l-20 -9q-22 17 -44 17q-15 0 -24 -6q-31 -18 -29 -66l15 -57l41 10l2 -2q33 -37 67 -14q32 18 21 57q0 1 -1 3t-2.5 6.5t-2.5 8.5t-4.5 11.5t-9 19.5t-9.5 21zM604 795l-74 24q-10 -56 -37.5 -114t-55.5 -100.5t-80.5 -100t-82 -86.5t-90.5 -86q-58 -54 -90 -85 t-75.5 -81t-65 -88t-35 -86t-8.5 -94q18 -123 90 -183q61 -55 160 -55q117 0 221 74q110 81 125 188l-78 10q-9 -75 -91.5 -135.5t-176.5 -60.5q-39 0 -71.5 12t-62.5 52.5t-38 107.5q-5 42 8.5 82.5t56.5 93t69.5 79.5t97.5 95q5 6 8.5 9.5t7.5 6.5q61 57 96 91t86.5 91.5 t82.5 104t60 109t43 125.5z" />
<glyph unicode="&#x2000;" horiz-adv-x="840" />
<glyph unicode="&#x2001;" horiz-adv-x="1681" />
<glyph unicode="&#x2002;" horiz-adv-x="840" />
<glyph unicode="&#x2003;" horiz-adv-x="1681" />
<glyph unicode="&#x2004;" horiz-adv-x="560" />
<glyph unicode="&#x2005;" horiz-adv-x="420" />
<glyph unicode="&#x2006;" horiz-adv-x="280" />
<glyph unicode="&#x2007;" horiz-adv-x="280" />
<glyph unicode="&#x2008;" horiz-adv-x="210" />
<glyph unicode="&#x2009;" horiz-adv-x="336" />
<glyph unicode="&#x200a;" horiz-adv-x="93" />
<glyph unicode="&#x2010;" d="M129 672l-31 -80q61 -5 146 -7t147.5 -1.5t134 1.5t84.5 1l25 80q-13 0 -83 -1t-131 -1.5t-145 1.5t-147 7z" />
<glyph unicode="&#x2011;" d="M129 672l-31 -80q61 -5 146 -7t147.5 -1.5t134 1.5t84.5 1l25 80q-13 0 -83 -1t-131 -1.5t-145 1.5t-147 7z" />
<glyph unicode="&#x2012;" d="M129 672l-31 -80q61 -5 146 -7t147.5 -1.5t134 1.5t84.5 1l25 80q-13 0 -83 -1t-131 -1.5t-145 1.5t-147 7z" />
<glyph unicode="&#x2013;" horiz-adv-x="1024" d="M133 672l-33 -80q155 -12 260 -12q385 0 459 2q36 0 66.5 2t66.5 2l27 80q-37 0 -67.5 -2t-67.5 -2q-495 -5 -711 10z" />
<glyph unicode="&#x2014;" horiz-adv-x="1126" d="M131 672l-33 -80q31 -2 62 -5t42 -4t29 -2t35 -1h47q37 0 149.5 1t149.5 1q49 0 229.5 2t213.5 2l26 80q-35 0 -215 -2t-229 -2q-39 0 -107.5 -0.5t-102 0t-86 1t-102 3t-108.5 6.5z" />
<glyph unicode="&#x2018;" horiz-adv-x="303" d="M444 1290l-73 49q-45 -63 -90 -159q-48 -119 -15 -174q16 -23 43 -33q24 -9 62 -6l-13 90q-11 -3 -16 0q-6 18 23 92q24 58 79 141z" />
<glyph unicode="&#x2019;" horiz-adv-x="303" d="M258 995l74 -49q52 69 90 158q48 119 14 176q-11 23 -43 33q-21 9 -61 6l14 -90q10 3 14 0q7 -22 -22 -94q-18 -46 -80 -140z" />
<glyph unicode="&#x201a;" horiz-adv-x="327" d="M-109 -262l72 -49q54 74 90 159q51 117 17 175q-30 50 -107 38l17 -90q11 5 14 2q0 -33 -25 -96q-20 -51 -78 -139z" />
<glyph unicode="&#x201c;" horiz-adv-x="587" d="M410 1290l-74 49q-45 -63 -90 -159q-48 -119 -15 -174q16 -23 43 -33q24 -9 62 -6l-12 90q-11 -3 -17 0q-6 18 23 92q23 54 80 141zM696 1290l-73 49q-48 -67 -91 -159q-47 -118 -14 -174q16 -23 43 -33q24 -9 62 -6l-13 90q-11 -3 -16 0q-6 19 22 92q23 54 80 141z" />
<glyph unicode="&#x201d;" horiz-adv-x="557" d="M223 995l74 -49q52 69 90 158q48 119 14 176q-11 23 -43 33q-21 9 -61 6l14 -90q11 4 15 0q7 -21 -23 -94q-18 -46 -80 -140zM510 995l74 -49q52 69 90 158q48 119 14 176q-11 23 -43 33q-21 9 -61 6l14 -90q10 3 14 0q7 -22 -22 -94q-18 -46 -80 -140z" />
<glyph unicode="&#x201e;" horiz-adv-x="634" d="M-109 -262l72 -49q54 74 90 159q51 117 17 175q-30 50 -107 38l17 -90q11 5 14 2q0 -33 -25 -96q-20 -51 -78 -139zM199 -262l71 -49q54 74 90 159q51 117 17 175q-30 50 -107 38l17 -90q11 5 14 2q0 -33 -25 -96q-21 -55 -77 -139z" />
<glyph unicode="&#x2022;" horiz-adv-x="651" d="M293 489q27 0 45 25h27h34q23 -3 47 6q30 12 43 35q10 14 11 20q2 4 8 13q23 29 16 78v10q0 3 -2 8t-2 8q-8 33 -43 58q-25 29 -61 49q-5 14 -29 26q-30 15 -61 -6q-19 -19 -23 -24q-2 -1 -3 -3.5t-1.5 -5t-1.5 -2.5q-21 -19 -35 -53q-1 -3 -4 -7t-4 -7q-3 -7 -7.5 -15.5 t-6.5 -11.5q-13 -20 -13 -41v-26v-11q0 -19 11 -37v-2q-2 -7 -2 -13t1 -11.5t1 -7.5q7 -40 43 -52h12z" />
<glyph unicode="&#x2026;" horiz-adv-x="925" d="M-43 -14l20 8q22 -17 43 -17q14 0 25 7q31 18 29 65q-8 29 -15 57l-41 -10l-2 2q-14 16 -30 20t-23.5 1.5t-13.5 -6.5q-12 -7 -19 -22.5t-2 -35.5q0 -1 1 -3t2.5 -6.5t2.5 -8.5t4.5 -11.5t9 -19t9.5 -20.5zM252 -14l20 8q22 -17 43 -17q15 0 25 7q31 18 29 65 q-8 29 -15 57l-41 -10l-2 2q-14 16 -30 20t-23.5 1.5t-13.5 -6.5q-12 -7 -19 -22.5t-2 -35.5q0 -1 1 -3t2.5 -6.5t2.5 -8.5t4.5 -11.5t9 -19t9.5 -20.5zM565 -14l21 8q22 -17 43 -17q13 0 24 7q31 18 29 65q-2 7 -14 57l-41 -10l-2 2q-14 16 -30 20t-24 1.5t-14 -6.5 q-31 -18 -20 -58q0 -1 1 -3t2.5 -6.5t2.5 -8.5q0 -1 22 -51z" />
<glyph unicode="&#x202f;" horiz-adv-x="336" />
<glyph unicode="&#x2039;" horiz-adv-x="649" d="M643 764l-55 70q-114 -87 -260 -179q-136 -89 -178 -127q-84 -74 -82 -143q5 -63 67 -123.5t203 -138.5l41 80q-223 124 -223 184q-1 23 30 54t67.5 56.5t106.5 70.5q13 8 19 12q167 109 264 184z" />
<glyph unicode="&#x203a;" horiz-adv-x="649" d="M2 184l53 -67q82 65 254 164q16 9 54.5 31.5t60.5 37t41 29.5q76 58 76 123q1 42 -24.5 86t-75.5 86.5t-95 74t-110 70.5l-46 -71q114 -74 191.5 -140t73.5 -102q0 -15 -13.5 -32t-44.5 -38.5t-56 -36.5t-73 -43q-173 -98 -266 -172z" />
<glyph unicode="&#x205f;" horiz-adv-x="420" />
<glyph unicode="&#xe000;" horiz-adv-x="849" d="M0 850h850v-850h-850v850z" />
<glyph unicode="&#xfb01;" horiz-adv-x="929" d="M831 1434l-26 -60q-28 14 -48.5 20.5t-49.5 2t-54.5 -26t-56 -69.5t-59.5 -123q-50 -125 -138 -420q210 23 334 80q57 25 94 -7q17 -18 18.5 -47t-14.5 -81t-36 -102t-60 -144q-82 -193 -104 -264q-47 -142 -6 -155q8 -3 20 -1l6 -68q-85 0 -105 60.5t19 183.5 q32 97 109 270q67 160 80 201q30 81 28 90.5t-24 -0.5q-79 -35 -194 -57.5t-185 -26.5q-180 -661 -311 -807q-37 -45 -80.5 -58.5t-73.5 -2.5l16 65q37 -15 86 41q37 39 74 112t76.5 187t63 190t63.5 212q4 12 5.5 19t5 17.5t5.5 18.5q-118 -4 -186 -4v68q113 0 207 6 q81 291 143 448q34 85 69 142t68.5 85.5t71.5 36t72.5 -1t76.5 -30.5zM948 1098l27 -4q-7 -10 -23.5 -39.5t-31 -45.5t-31.5 -18q-27 -3 -28 21.5t12 62.5q3 8 4 12.5t3 11.5t3 13l71 10q1 -4 -2.5 -12.5t-3.5 -11.5z" />
<glyph unicode="&#xfb02;" horiz-adv-x="890" d="M123 680v68q113 0 207 6q81 291 143 448q34 85 69 142t68.5 85.5t71.5 36t72.5 -1t76.5 -30.5l-26 -60q-28 14 -48.5 20.5t-49.5 2t-54.5 -26t-56 -69.5t-59.5 -123q-50 -125 -138 -420q100 11 158 20l12 -65q-112 -18 -190 -23q-180 -661 -311 -807q-37 -45 -80.5 -58.5 t-73.5 -2.5l16 65q37 -15 86 41q37 39 74 112t76.5 187t63 190t63.5 212q4 12 5.5 19t5 17.5t5.5 18.5q-118 -4 -186 -4zM805 1257l14 -63q33 5 34 -34q2 -50 -40 -189q-18 -65 -138.5 -392t-133.5 -370q-16 -55 -23.5 -88.5t-5.5 -76.5t25 -60q7 -5 14.5 -8t13.5 -5 t14.5 -1t14 2t14.5 5l13.5 6t15 8.5t14 9t15 10t14.5 9.5l-39 54q-57 -41 -63 -35q-8 24 32 166q8 24 127.5 349.5t139.5 397.5q50 157 34.5 239.5t-106.5 65.5z" />
<glyph unicode="&#xfb03;" horiz-adv-x="1288" d="M1421 1339l-55 -32q-38 65 -74 90q-29 19 -53 16q-99 -9 -231 -323q-55 -133 -111 -299q1 0 68.5 2.5t103 5.5t87 13t75.5 26q48 33 94 -7q17 -18 18.5 -47t-14.5 -81t-36 -102t-60 -144q-86 -202 -105 -264q-47 -145 -3 -156q7 -1 18 0l6 -68q-85 0 -105 60.5t19 183.5 q35 106 108 270q67 160 80 201q30 81 28 90.5t-24 -0.5q-23 -12 -61 -20.5t-90.5 -13.5t-84 -7.5t-88 -5t-57.5 -2.5q-13 -39 -104 -328q-100 -334 -170 -518q-93 -246 -172 -307l-39 53q62 47 150 277q75 205 170 516q59 192 94 301q-135 -13 -404 -29q-180 -661 -311 -807 q-37 -45 -80.5 -58.5t-73.5 -2.5l17 65q37 -15 86 41q37 39 74 112t76.5 187t63 190t63.5 212q4 12 5.5 19t5 17.5t5.5 18.5q-118 -4 -187 -4v68q113 0 207 6q79 282 144 448q41 103 112 156t145.5 52t145.5 -39.5t117 -106.5q14 30 63 100q75 106 156 115q51 8 102 -33 q42 -34 86 -107zM825 784q63 195 123 332q7 16 19.5 45.5t13.5 30.5q-26 49 -67.5 86.5t-90.5 53t-97.5 9.5t-94 -47.5t-74.5 -115.5q-46 -116 -137 -420q103 2 405 26zM1446 1098l27 -4q-7 -10 -24 -40t-31 -45.5t-32 -17.5q-27 -3 -28 21.5t12 62.5q3 8 4 12.5t3 11.5 t3 13l72 10q1 -4 -2.5 -12.5t-3.5 -11.5z" />
<glyph unicode="&#xfb04;" horiz-adv-x="1439" d="M143 680v68q113 0 207 6q79 282 144 448q41 103 112 156t145.5 52t145.5 -39.5t117 -106.5q14 30 63 100q75 106 156 115q83 11 151 -45l-28 -66q-18 20 -53.5 34t-63.5 11q-99 -9 -231 -323q-55 -133 -111 -299q129 7 203 -17l-23 -59q-62 18 -203 10q-13 -39 -104 -328 q-100 -334 -170 -518q-93 -246 -172 -307l-39 53q62 47 150 277q75 205 170 516q59 192 94 301q-135 -13 -404 -29q-180 -661 -311 -807q-37 -45 -80.5 -58.5t-73.5 -2.5l17 65q37 -15 86 41q37 39 74 112t76.5 187t63 190t63.5 212q4 12 5.5 19t5 17.5t5.5 18.5 q-118 -4 -187 -4zM948 1116q7 16 19.5 45.5t13.5 30.5q-26 49 -67.5 86.5t-90.5 53t-97.5 9.5t-94 -47.5t-74.5 -115.5q-46 -116 -137 -420q103 2 405 26q63 195 123 332zM1356 1257l14 -63q33 5 34 -34q2 -49 -40 -189q-18 -65 -138.5 -392t-133.5 -370q-16 -56 -23.5 -89 t-6 -76t24.5 -60q16 -12 31.5 -14.5t36 6t30.5 14.5t35 23q7 5 11 7l-39 54q-57 -42 -64 -35q-8 23 33 166q8 24 127 349.5t139 397.5q50 157 35 239.5t-106 65.5z" />
</font>
</defs>
</svg>
