<?xml version="1.0" standalone="no"?>
<!DOCTYPE svg PUBLIC "-//W3C//DTD SVG 1.1//EN" "http://www.w3.org/Graphics/SVG/1.1/DTD/svg11.dtd" >
<svg xmlns="http://www.w3.org/2000/svg">
<metadata></metadata>
<defs>
<font id="green_mud_jjbold" horiz-adv-x="1228" >
<font-face units-per-em="2048" ascent="1434" descent="-614" />
<missing-glyph horiz-adv-x="512" />
<glyph horiz-adv-x="2048" />
<glyph horiz-adv-x="2048" />
<glyph unicode="&#xd;" horiz-adv-x="2048" />
<glyph unicode=" "  horiz-adv-x="512" />
<glyph unicode="&#x09;" horiz-adv-x="512" />
<glyph unicode="&#xa0;" horiz-adv-x="512" />
<glyph unicode="!" horiz-adv-x="393" d="M78 360h135q0 36 27 240q2 12 11 81.5t12.5 100t12 102t10 112t4.5 104t-1.5 104t-11 85t-20.5 74t-34 46.5q-47 44 -112 25l34 -131l-12 6q15 -15 21 -76q3 -32 3.5 -69.5t-2.5 -85.5t-6 -84.5t-9.5 -98t-10 -91.5t-12.5 -98.5t-11 -87.5q-28 -205 -28 -258zM92 -4l12 4 q31 -31 62 -31q35 0 52.5 23t15.5 53t-7 59l-26 -8q-49 61 -101 31q-25 -15 -29.5 -40.5t2 -44.5t19.5 -46z" />
<glyph unicode="&#x22;" horiz-adv-x="602" d="M213 1343l-133 21q-15 -113 -12 -262q1 -16 2 -46.5t2 -45.5q0 -16 1 -48t1 -47l135 5q0 16 -1 47t-1 47q-8 224 6 329zM500 1343l-133 21q-16 -120 -13 -262q1 -15 2 -46t2 -46q0 -16 1 -48t1 -47l136 5q0 16 -1 47t-1 47q-8 224 6 329z" />
<glyph unicode="#" horiz-adv-x="835" d="M762 856l29 -133q-101 -21 -177 -29q-26 -142 -34 -196q18 0 53 -1t51 -1v-136q-22 0 -63.5 1t-61.5 1q-30 -207 -74 -393l-131 31q37 166 68 362q-97 0 -146 -2q-2 -5 -17 -76t-34 -164t-28 -147l-134 25q20 104 38 190t27 125.5t9 40.5q-56 -4 -90 -8l-14 135 q114 10 133 11q40 194 41 200q-5 0 -146 17l19 133q133 -16 149 -17q43 255 43 471h136q0 -222 -43 -477q49 -2 139 2q52 221 131 408l125 -53q-65 -151 -115 -340q39 4 117 20zM305 498h139q6 35 16.5 99t14.5 87q-67 -4 -133 0q-7 -36 -20 -101z" />
<glyph unicode="$" horiz-adv-x="837" d="M745 1114l-120 -59q-23 46 -80 57q0 -220 -13 -473q53 -42 80 -61q96 -69 133 -150q38 -77 19 -164q-24 -106 -137 -186q-67 -48 -133 -70q-15 -216 -17 -266l-135 8q2 40 7 117.5t7 114.5h-22q-69 0 -137 22q-110 42 -164 139l117 68q36 -57 94 -80q56 -18 121 -12 q1 11 2 32.5t2 32.5q15 234 24 396q-96 86 -153 182q-82 140 -47 264q22 78 81 132t136 79q-1 57 -11 197l136 8q4 -59 8 -193q69 -8 122 -42.5t80 -92.5zM356 831q5 -10 12.5 -20.5t17.5 -23.5t15 -21q9 202 9 326q-2 -1 -29 -17q-45 -36 -57 -84q-19 -74 32 -160zM633 297 q8 34 -8 74q-23 48 -90 96q-6 3 -11 8q-3 -52 -10 -152t-10 -147q0 -12 -2 -16q52 25 87 61.5t44 75.5z" />
<glyph unicode="%" />
<glyph unicode="&#x26;" horiz-adv-x="493" d="M344 1145l53 -105q-180 -94 -219 -147q1 -1 7.5 -4.5t11.5 -5.5q24 -13 62 -29.5t63.5 -28t51.5 -29t39 -42.5t13 -58q-1 -33 -28.5 -68t-65.5 -64t-76 -56.5t-63.5 -56.5t-24.5 -54q1 -16 12.5 -35t59 -58.5t127.5 -82.5l-37 -67q2 -99 -4 -277l-136 4q7 200 5 287 q-153 106 -162 219q-3 44 14.5 85.5t50.5 75.5t63.5 58.5t68.5 51.5t51 38q-26 15 -65.5 31.5t-66 28.5t-53 29t-41 42t-16.5 58q-1 32 14 63t45 58t53 43.5t56 37.5q0 49 2 76q0 109 10 191l135 -17q-10 -72 -10 -192z" />
<glyph unicode="'" horiz-adv-x="325" d="M213 1343l-133 21q-15 -113 -12 -262q1 -16 2 -46.5t2 -45.5q0 -16 1 -48t1 -47l135 5q0 16 -1 47t-1 47q-8 224 6 329z" />
<glyph unicode="(" horiz-adv-x="462" d="M395 1434l-92 98q-116 -110 -183.5 -279t-81 -355t9 -380.5t80 -369t138.5 -306.5l115 72q-73 115 -125.5 274.5t-73 336t-9.5 346t67.5 320t154.5 243.5z" />
<glyph unicode=")" horiz-adv-x="462" d="M33 -88l92 -98q116 110 183.5 279t81 355t-9 380t-80 368.5t-138.5 306.5l-115 -71q73 -115 125.5 -274.5t73 -336t9.5 -346t-67.5 -320t-154.5 -243.5z" />
<glyph unicode="*" horiz-adv-x="659" d="M500 1403l92 -98q-13 -13 -133 -138q60 3 104 11l19 -136q-73 -9 -152 -12q70 -77 117 -141l-109 -80q-31 42 -59 74q2 -14 7 -45.5t7 -49.5l-135 -16q-20 145 -25 166q-50 -43 -100 -80l-78 111q40 28 84 65q-36 4 -104 8l10 136q14 -1 42.5 -3.5t43.5 -3.5 q-56 81 -98 187l125 49q24 -61 53 -109q6 87 29 168l131 -32q-26 -98 -29 -193q99 107 158 162z" />
<glyph unicode="+" horiz-adv-x="1200" d="M1030 692v-135h-368q0 -6 1 -17.5t1 -17.5q14 -182 14 -338h-135q0 139 -15 330q0 7 -1 21.5t-1 21.5h-391v135h383q-7 207 14 371l136 -16q-20 -163 -13 -355h375z" />
<glyph unicode="," horiz-adv-x="397" d="M68 -295l118 -65q86 154 103 241q18 103 -29 185l-119 -66q16 -28 18.5 -54t-18 -86t-73.5 -155z" />
<glyph unicode="-" horiz-adv-x="614" d="M55 705l-22 -134q111 -18 327 -18h95q31 2 92 2v135q-63 0 -94 -2q-298 0 -398 17z" />
<glyph unicode="." horiz-adv-x="337" d="M92 -4l12 4q31 -31 62 -31q35 0 52.5 23t15.5 53t-7 59l-26 -8q-49 61 -101 31q-25 -15 -29.5 -40.5t2 -44.5t19.5 -46z" />
<glyph unicode="/" horiz-adv-x="751" d="M-10 -117l127 -47q94 252 201 516.5t169 409.5t218 506q11 25 33.5 80.5t35.5 85.5l-123 53q-34 -77 -71 -166q-155 -359 -218 -507t-170 -412.5t-202 -518.5z" />
<glyph unicode="0" horiz-adv-x="1069" d="M346 1196l21 -49q-131 -92 -200.5 -285t-64.5 -391q2 -137 40 -247t116 -178.5t186 -68.5q88 0 168.5 42t141 112.5t104.5 156.5t70 181q26 93 34 190.5t-1.5 192.5t-48 178.5t-101.5 136.5q-33 29 -73.5 48.5t-97.5 30.5t-132.5 -1.5t-161.5 -48.5zM551 1077l-4 37 q235 20 278 -276q14 -115 -9.5 -243.5t-73.5 -235t-129.5 -176.5t-168.5 -70q-67 0 -114 51t-68.5 129.5t-23.5 179.5q-3 95 16 197t57 192t101 150t139 65z" />
<glyph unicode="1" horiz-adv-x="686" d="M575 133l9 -133q-52 -3 -231.5 -39.5t-284.5 -26.5l12 136q63 -7 166 8q1 13 15.5 160.5t31 317.5t22.5 249q17 203 17 280q-142 -87 -154 -92l-57 123q168 102 217 127q59 24 90 0.5t37 -82.5q6 -60 -10 -327q-31 -364 -70 -728q128 25 190 27z" />
<glyph unicode="2" horiz-adv-x="890" d="M117 1075l116 -69q36 60 72 89t64 23q56 -14 102 -124.5t51 -205.5q13 -170 -67 -434q-61 20 -109 6q-68 -19 -138 -71t-95 -113q-29 -72 12.5 -138.5t110.5 -66.5q20 0 40 4.5t39 15t35 19.5t34 26.5t29 28t27.5 30.5t23 28t21 27.5t15.5 21.5q4 -3 37.5 -31t54.5 -44 t55 -40t63.5 -38t53.5 -19l24 133q-16 3 -49.5 24.5t-62 44t-64.5 52t-41 33.5q39 80 65.5 244.5t20.5 267.5q-6 92 -36 184t-88 169.5t-132 96.5q-152 38 -284 -174zM371 227q-20 -30 -61.5 -70t-67.5 -51q-14 26 31.5 63t97.5 58z" />
<glyph unicode="3" horiz-adv-x="856" d="M276 276l-126 46q-63 -171 28 -273q55 -61 142 -74.5t169 14.5t150.5 90t89.5 140q25 89 26 151t-26 112.5t-72 88t-125 82.5q108 101 117.5 234t-86.5 246q-92 106 -221.5 120t-239.5 -69l82 -109q76 53 149 42t128 -75q32 -38 46.5 -82t3.5 -95.5t-54 -94.5 q-78 -73 -68 -141q5 -34 32.5 -60.5t58.5 -41t65 -36t49 -45.5q37 -61 18 -148.5t-73 -131.5q-56 -46 -136.5 -57t-123.5 30q-37 42 -3 137z" />
<glyph unicode="4" horiz-adv-x="753" d="M514 1255l133 -20q-30 -185 -47 -438h51v-135h-57q-10 -221 -10 -662h-135q0 439 8 662q-115 3 -182 19.5t-107 59.5q-29 32 -44.5 73t-18.5 111.5t0 131t12 182.5l133 -10q-13 -155 -12 -260.5t28 -134.5q31 -34 199 -37q17 267 49 458z" />
<glyph unicode="5" horiz-adv-x="897" d="M735 1229v-135q-76 0 -236 -5t-239 -2q0 -120 10.5 -208.5t46.5 -155.5q6 -11 15.5 -16.5t17.5 -6.5t21 3t20.5 7.5t21.5 11t19 9.5q48 23 83 34t81 8t82 -32q44 -35 72 -97.5t37 -132.5t6.5 -137.5t-15.5 -121.5q-29 -125 -124.5 -202t-223.5 -77q-90 0 -171 44 t-118 118.5t4 173.5l123 -55q-26 -58 20.5 -97t110.5 -46q75 -9 140 25t94 102q18 43 26 126t-8 167.5t-61 107.5q-18 10 -57 -5t-82 -38.5t-58 -26.5q-54 -13 -97.5 1.5t-72 53.5t-48.5 90t-30 119t-14.5 132.5t-3.5 136.5q-9 0 -25 4l27 131q88 -17 187.5 -19t229 4.5 t189.5 6.5z" />
<glyph unicode="6" horiz-adv-x="886" d="M102 485l27 -34q0 -276 104 -402q43 -53 100 -69t116.5 1.5t119.5 63.5q88 69 140.5 140t66 131.5t3.5 111t-42 90.5q-52 66 -139 91.5t-169.5 16t-156.5 -41.5q0 65 25 164.5t83 216.5t134 182l-90 102q-132 -115 -207 -318.5t-86 -422.5q-5 -4 -14.5 -11.5t-14.5 -11.5 zM264 432q124 62 225 58.5t142 -56.5q32 -39 10.5 -95t-67 -108t-100 -88.5t-87.5 -36.5q-34 0 -60 38.5t-38.5 95t-18.5 106t-6 86.5z" />
<glyph unicode="7" horiz-adv-x="872" d="M741 815l15 -133q-136 -12 -181 -14q-88 -158 -88 -668h-135q0 483 74 670q-103 11 -141 18l26 131q88 -16 185 -16q31 39 83.5 143t57.5 160q-50 5 -291 7.5t-244 2.5l7 135q18 -1 164.5 -0.5t274.5 -4t154 -17.5q30 -13 47 -35.5t20 -53t-3 -66t-23 -79.5t-38.5 -88.5 t-51.5 -97.5q73 5 88 6z" />
<glyph unicode="8" horiz-adv-x="874" d="M334 1262v-45q-91 1 -137 -34t-42 -94.5t52 -132.5q36 -54 215 -268q-20 -32 -58.5 -86t-70.5 -100t-69 -103t-62 -106.5t-43 -98t-17 -89.5t21 -70q22 -31 59.5 -46.5t86.5 -14.5t92.5 7.5t99.5 20.5q249 61 299 219q11 34 11.5 72t-6.5 73t-22 73.5t-31.5 71t-40 68.5 t-42 61.5t-41.5 55.5q105 179 113.5 305.5t-84 194t-283.5 66.5zM389 1077l4 47q66 -5 106.5 -20.5t58 -40t14 -63t-22 -83t-53.5 -106.5q-4 5 -46.5 54.5t-65.5 78.5t-52.5 70t-38.5 65q35 5 96 -2zM236 113q0 23 21 67t57 102t69 106.5t73.5 107t53.5 77.5 q13 -18 23 -32.5t24 -36.5t24.5 -40.5t22 -41t18 -43t11.5 -41t4.5 -40t-6.5 -36.5q-15 -48 -98 -89.5t-171 -57.5t-126 -2z" />
<glyph unicode="9" horiz-adv-x="868" d="M549 0h135q0 101 -32 399t-21 463q8 16 22.5 44.5t26 50.5t25.5 51.5t24.5 52.5t19.5 49t13.5 45t4 36.5t-6.5 27.5q-17 26 -46.5 29t-57.5 -10.5t-52 -37.5q-70 44 -151.5 47.5t-151.5 -29t-123 -100t-69 -155.5q-14 -77 3 -141.5t57.5 -104t93.5 -60t114.5 -13 t116.5 41.5q2 -97 28.5 -386.5t26.5 -299.5zM535 1083q-27 -80 -35 -184q-39 -66 -41 -70q-31 -32 -66 -44.5t-63.5 -4t-51 29t-33 55t-5.5 73.5q11 55 43 96t73.5 60t89 17t89.5 -28z" />
<glyph unicode=":" horiz-adv-x="337" d="M127 569l12 4q30 -30 62 -30q35 0 52.5 23t15.5 53t-7 59l-26 -8q-49 61 -101 30q-25 -15 -29.5 -40.5t2 -44.5t19.5 -46zM127 -4l12 4q31 -31 62 -31q35 0 52.5 23t15.5 53t-7 59l-26 -8q-49 61 -101 31q-25 -15 -29.5 -40.5t2 -44.5t19.5 -46z" />
<glyph unicode=";" horiz-adv-x="362" d="M113 569l12 4q30 -30 61 -30q35 0 53 23t16 53t-7 59l-27 -8q-49 60 -100 30q-25 -15 -29.5 -40.5t2 -44.5t19.5 -46zM68 -295l118 -65q86 154 103 241q18 103 -29 185l-119 -66q16 -28 18.5 -54t-18 -86t-73.5 -155z" />
<glyph unicode="&#x3c;" horiz-adv-x="892" d="M823 1229l-100 88q-123 -140 -241 -256.5t-180 -169t-136 -111.5q-54 -43 -86 -75q-47 -41 -47 -95q0 -45 45 -90q10 -9 80 -63q64 -49 98.5 -77t115 -98.5t168 -162.5t181.5 -205l104 86q-128 152 -257.5 279t-186.5 174t-141 112q-38 26 -62 47q26 26 74 64 q84 68 141 117t180.5 170.5t249.5 265.5z" />
<glyph unicode="=" />
<glyph unicode="&#x3e;" horiz-adv-x="876" d="M51 0l99 -94q216 224 491 452q71 57 113 99q55 55 55 108q0 47 -47 101q-19 24 -90 84q-274 231 -533 561l-106 -82q117 -150 233.5 -276.5t177.5 -182.5t140 -123q77 -68 86 -82q-18 -18 -25 -24q-12 -12 -90 -78q-88 -72 -134 -111t-155 -140.5t-215 -211.5z" />
<glyph unicode="?" horiz-adv-x="704" d="M182 342h135q0 116 16.5 228t45.5 169q22 40 56.5 77t64 60.5t59 55.5t43.5 63q38 78 4 201q-42 141 -108 205q-73 76 -166 57q-56 -9 -107 -52.5t-88 -113.5q-73 -133 -63 -291l133 9q-6 115 49 219q22 40 48.5 66.5t49.5 29.5q32 6 65 -38.5t56 -127.5q22 -69 6 -106 q-10 -18 -39.5 -46.5t-60.5 -56t-66 -68t-55 -79.5q-38 -71 -58 -198.5t-20 -262.5zM209 -4l12 4q31 -31 62 -31q35 0 52.5 23t15.5 53t-7 59l-27 -8q-49 61 -100 31q-25 -15 -29.5 -40.5t2 -44.5t19.5 -46z" />
<glyph unicode="@" />
<glyph unicode="A" horiz-adv-x="712" d="M645 -117l-135 -8q-12 208 -61 545q-1 1 -38 5t-85 7.5t-72 3.5q-60 -382 -92 -475l-129 39q21 61 76 389q94 561 157 744q18 56 45.5 90t69.5 30q35 0 59 -25.5t35 -66.5q15 -47 31 -157q18 -154 63 -459h6l-2 -37q58 -396 72 -625zM279 571q72 -3 151 -12 q-61 412 -61 447q-37 -136 -90 -435z" />
<glyph unicode="B" horiz-adv-x="937" d="M139 1247l133 15q0 -3 1 -9t1 -8q221 4 281 -86q41 -61 14 -160q-14 -44 -59 -132.5t-57 -121.5q-11 -36 -6.5 -50t34.5 -27q23 -11 86 -31.5t109.5 -38t96.5 -54.5t71 -85q41 -90 -15 -211q-36 -73 -107.5 -130.5t-151.5 -88t-149.5 -45.5t-119.5 -15q-178 0 -264 133 l88 60q-9 157 12.5 525.5t1.5 559.5zM707 305q28 66 14 101q-14 30 -72 58t-121 47.5t-123.5 51t-78.5 68.5q-30 64 0 157q13 40 59 133.5t55 118.5q10 27 3.5 43.5t-42.5 22.5t-118 4q5 -143 -16 -481.5t-5 -522.5q64 -6 153 14t175 69.5t117 115.5z" />
<glyph unicode="C" horiz-adv-x="643" d="M455 1092l75 112q-68 48 -158.5 40.5t-146.5 -68.5q-77 -84 -124.5 -231t-61.5 -294q-33 -385 104 -567q54 -70 128.5 -97t155 -13t171.5 61l-66 119q-152 -79 -237 -28t-117 236q-14 74 -9.5 177.5t19.5 203t51 193t85 147.5q20 20 60 24.5t71 -15.5z" />
<glyph unicode="D" horiz-adv-x="702" d="M68 1245v4q139 23 255.5 -22.5t194.5 -153.5q111 -152 117 -373q3 -219 -90 -401q-77 -154 -211 -240t-299 -86h-2v136q29 0 43 2q0 8 -8 136.5t-12 228t-7.5 245t1.5 281t18 243.5zM426 360q77 154 74 336q-6 180 -92 299q-83 112 -215 125q-8 -97 -10 -217.5 t1.5 -245.5t7.5 -213t10.5 -191.5t6.5 -109.5q135 61 217 217z" />
<glyph unicode="E" horiz-adv-x="651" d="M397 641v-135q-82 0 -180 -10q0 -139 -6 -373q9 1 49 7.5t67.5 9.5t71.5 5.5t90 -2t93 -14.5l-27 -131q-64 16 -140.5 14t-127.5 -11t-124 -19.5t-130 -10.5v135h43q0 41 3.5 194.5t4.5 268.5t-2 274t-12 277q-13 0 -33 4l22 133q86 -13 248 -3t254 -1l-18 -133 q-41 5 -92.5 5.5t-87 -1.5t-86.5 -5.5t-70 -4.5q12 -192 12 -481q114 8 178 8z" />
<glyph unicode="F" horiz-adv-x="604" d="M659 1255l13 -135q-282 -23 -486 -26q-12 -159 -4 -478q77 0 185 5l6 -136q-90 -4 -187 -4q7 -317 -20 -512l-133 19q17 123 20.5 278t-2 284t-7 279.5t6.5 264.5h-2v135q312 0 610 26z" />
<glyph unicode="G" horiz-adv-x="837" d="M442 1014l109 84q-78 96 -152 139.5t-149 11.5q-63 -28 -104.5 -122t-58 -212t-19.5 -249.5t3.5 -235t18.5 -168.5q23 -132 87 -212.5t165 -80.5q95 0 190.5 72.5t161.5 175.5q49 81 66.5 148.5t1.5 113t-58.5 71t-113.5 25t-162 -27.5l37 -131q119 36 148.5 7.5 t-33.5 -134.5q-48 -77 -122.5 -135.5t-131.5 -47.5q-53 11 -85 114t-37.5 245.5t3.5 286.5t35.5 251t60.5 123q8 4 24.5 -2.5t47.5 -34.5t67 -75z" />
<glyph unicode="H" horiz-adv-x="710" d="M666 606l-13 -133q-8 1 -24 2t-23 2q-3 -240 -14 -477l-135 6q11 244 14 492q-8 1 -47.5 8t-75.5 12.5t-86 11.5t-88 7q0 -9 -3 -233t-3 -304h-135q0 94 4 345.5t4 478t-8 407.5l135 6q8 -186 8 -563q53 -3 117.5 -11.5t119 -18t58.5 -9.5q-4 388 -35 604l133 18 q37 -252 37 -645q8 -1 18 -2t22.5 -2t19.5 -2z" />
<glyph unicode="I" horiz-adv-x="780" d="M688 1251l6 -135q-69 8 -258 4q-26 -173 -27.5 -386.5t9.5 -387.5q2 -37 5 -109t5 -108q175 11 285 6l-8 -135q-109 5 -275 -6v-25h-135v15q-165 -15 -262 -15v135q87 0 260 15q-2 80 -10 221q0 16 -2.5 82t-3 87.5t-2 82t-1.5 89t0.5 82.5t2.5 90t4.5 84t7 91t10.5 86 q-195 -8 -252 -2l14 135q59 -6 296 4.5t331 -0.5z" />
<glyph unicode="J" horiz-adv-x="786" d="M713 1249l16 -133q-77 -12 -248 -12q3 -36 16 -144t18 -186.5t6.5 -189t-16.5 -219.5t-54 -211q-67 -185 -177 -185q-54 0 -100 48.5t-74 120t-43.5 145t-15.5 131.5h135q0 -88 39 -195q25 -69 40.5 -89.5t29.5 -4.5t37 76q35 95 51 200.5t14 209.5t-8.5 184t-19 178.5 t-15.5 138.5q-105 10 -238 10v135q73 0 199 -8t197.5 -10t210.5 10z" />
<glyph unicode="K" horiz-adv-x="796" d="M518 1257l121 -61q-67 -131 -168.5 -301t-163 -272.5t-61.5 -116.5q3 -6 89 -70t217.5 -170t223.5 -200l-98 -95q-41 42 -82.5 81.5t-75.5 70t-70.5 60.5t-62 49.5t-55 41t-44 31.5t-35 23.5t-22.5 15.5q1 -55 3 -114t5.5 -127.5t4.5 -102.5l-135 -4q-31 774 -7 1235 l136 -8q-13 -260 -13 -480q160 257 293 514z" />
<glyph unicode="L" horiz-adv-x="610" d="M139 1237h135q-4 -316 -51 -825q-3 -46 -8.5 -106.5t-8.5 -104t-3 -80.5q0 -6 33 -6.5t80 3.5t99.5 8.5t92 7t57.5 -0.5l-24 -133q-30 4 -137 -7.5t-198.5 -12t-113.5 29.5q-18 21 -22.5 62.5t0 111.5t20.5 240q1 11 7 82.5t8 94.5t7.5 92.5t7.5 105.5t6 101.5t6 113 t4 107.5t3 116z" />
<glyph unicode="M" horiz-adv-x="919" d="M45 0l133 -27q52 279 39 856q63 -208 186 -272q36 -18 70 -2q34 17 81.5 106.5t73.5 157t46 127.5q8 -624 8 -960h135q0 89 -4 509.5t-4 508.5q0 92 -6 145q-6 28 -15 47q-23 53 -71 53.5t-80 -49.5q-11 -17 -20.5 -36.5t-22 -50.5t-18 -45t-22 -60t-19.5 -54 q-15 -38 -30 -80t-21.5 -58.5t-19 -45t-32.5 -68.5q-10 9 -19 21.5t-16 23t-15 29.5t-12.5 29.5t-12.5 34.5l-11 33t-11.5 36.5t-10.5 34.5q-20 71 -31.5 107t-37.5 88.5t-58 85.5q-20 22 -47.5 24t-49 -16t-24.5 -47q-2 -6 -2 -37.5t2 -56.5q0 -12 2.5 -108t3.5 -135.5 t2 -139t0 -156.5t-3 -147.5t-6.5 -153t-12 -131.5t-17.5 -121z" />
<glyph unicode="N" horiz-adv-x="911" d="M61 -8l136 8q-13 218 -13 590q-2 90 -14 248q-14 140 -14 225l2 -2q76 -126 268 -561q179 -399 236 -490q36 -53 84.5 -38t66.5 79q18 88 18 316q0 227 -12 591q-6 173 -6 271h-135q0 -93 6 -275q11 -446 12 -542q0 -40 -1 -96t-1 -74q-79 161 -143 311q-7 17 -31.5 72.5 t-38.5 86.5t-40 88.5t-44 94.5t-42.5 88t-44.5 85.5t-41 69.5t-39.5 58t-34.5 35q-49 43 -101 24t-67 -92q-3 -13 -4.5 -29t-2 -36t-0.5 -37t1 -42t2 -39.5t3 -42.5t3 -38.5t3.5 -38.5t2.5 -33q12 -155 14 -239q0 -390 12 -596z" />
<glyph unicode="O" horiz-adv-x="778" d="M362 1257l-6 -18q-62 -27 -114 -83.5t-88 -130.5t-60 -151t-39 -159q-18 -96 -21 -194t9 -194t48.5 -177t94.5 -127q124 -100 301 -19q68 32 118.5 90.5t78.5 132t40 155t7 167.5q-4 101 -28.5 207.5t-66 204t-106 174.5t-141.5 112zM377 1096q95 -75 154.5 -233.5 t64.5 -319.5q8 -143 -31.5 -258t-132.5 -158q-102 -46 -162 2q-55 42 -80.5 144.5t-24 210t20.5 208.5q26 135 76 245t115 159z" />
<glyph unicode="P" horiz-adv-x="694" d="M88 1262l66 -9q102 13 190.5 -10.5t151 -76.5t91.5 -141t13 -196q-8 -65 -31 -117t-54.5 -85t-70 -57t-78 -31.5t-78.5 -10t-71 8.5q27 -331 27 -537h-135q0 93 -10.5 271.5t-20.5 332.5t-9.5 340t19.5 318zM403 709q53 54 64.5 142t-25.5 157q-59 121 -231 114 q-13 -157 -2 -440q118 -55 194 27z" />
<glyph unicode="Q" horiz-adv-x="948" d="M915 49l-110 -78q-6 8 -43 58t-66 88q-72 -95 -158 -130t-168 -8.5t-149 105.5q-69 82 -117 214.5t-63 285.5q-19 158 4 295.5t82 230.5q64 100 165 134t224 -1l-14 -49q120 -32 202.5 -136.5t116.5 -266.5q22 -102 18 -206t-22.5 -188t-48.5 -155q26 -32 53.5 -67 t44 -57.5t32 -44.5t17.5 -24zM401 1071v53h-4q-100 0 -155 -88q-46 -70 -64 -186.5t-4 -251.5q13 -131 54.5 -246t97.5 -182q39 -45 80 -59t77 1.5t66 43t57 67.5q-111 123 -157 154l81 108q49 -36 138 -129q62 209 20 408q-28 140 -100.5 223.5t-186.5 83.5z" />
<glyph unicode="R" horiz-adv-x="743" d="M68 1219l96 10q88 31 166 31.5t141 -40.5t92 -118q98 -243 -246 -447q24 -46 85.5 -133t117 -164t108.5 -178t70 -184l-131 -27q-18 86 -88 203t-157.5 237t-104.5 150q-14 -441 -14 -559h-135q0 71 8.5 332.5t8.5 496.5t-17 390zM213 1104q9 -167 6 -350q31 16 60 34.5 t59.5 42.5t52 48.5t38.5 54t18 58.5t-9 61q-21 57 -86.5 69t-138.5 -18z" />
<glyph unicode="S" horiz-adv-x="770" d="M213 244l-131 -25q21 -108 93 -179t177 -71q157 0 258 131q86 110 93 257q7 148 -72 236q-77 85 -213 77q-13 0 -63 -9.5t-87.5 -8.5t-56.5 20q-60 62 -12 229q14 48 42 98.5t64.5 89.5t79.5 33t78 -71l119 65q-93 171 -228 146q-106 -20 -199 -147q-95 -128 -117 -277 q-25 -171 68 -258q31 -29 74 -45q34 -11 82.5 -9t91.5 11t88.5 6t73.5 -25t42.5 -68t14 -90t-7.5 -81q-14 -51 -51 -92t-82 -59t-90 -17t-81 35.5t-48 97.5z" />
<glyph unicode="T" horiz-adv-x="698" d="M631 1257v-135h-230q-4 -352 -8 -520q-8 -402 -8 -602h-135q0 202 8 604q4 168 8 520h-233v136h299q150 -3 299 -3z" />
<glyph unicode="U" horiz-adv-x="901" d="M238 1227l-132 35q-101 -391 -36 -748q13 -66 31.5 -130.5t52.5 -142t75.5 -135t103 -96.5t132.5 -39q432 0 285 1237l-136 -16q53 -438 21 -725q-20 -156 -45 -226q-39 -106 -105 -130q-49 -17 -94.5 15.5t-77 90t-57.5 132t-39.5 130t-19.5 94.5q-47 312 41 654z" />
<glyph unicode="V" horiz-adv-x="860" d="M137 1260l-114 -68q43 -74 86 -260q16 -73 71 -363t78 -385q1 -6 6 -28t8 -34.5t9.5 -35t13 -36t16.5 -31t21 -27t26.5 -16.5t32.5 -7t32 9.5t27.5 30.5t20.5 37t17.5 48t12.5 43.5t10 42.5q2 9 3 13q15 60 70.5 281.5t101.5 397.5t84 312l-127 39q-63 -223 -258 -990 q-23 103 -60 300t-55 284q-2 9 -17.5 84.5t-22 101t-22 82.5t-32.5 97.5t-39 77.5z" />
<glyph unicode="W" horiz-adv-x="1196" d="M168 1239l-135 -8q8 -125 34 -270.5t52 -250.5t69 -268.5t64 -253.5q2 -10 8.5 -46.5t11 -58t16 -48.5t27.5 -41q37 -30 75.5 -17t60.5 52q29 56 52 123t46.5 156t36.5 130q10 -40 32 -140t37 -153q8 -31 11.5 -43.5t15 -43.5t23 -45.5t31.5 -28t44 -13.5q26 0 45.5 18 t31 50.5t18 60t12.5 65.5t8 48q16 68 45.5 202.5t44.5 202.5q11 48 32.5 147.5t34.5 159t34 143.5t42 153l-129 41q-45 -147 -83.5 -311.5t-82.5 -377.5t-67 -315q-6 25 -16.5 74t-17.5 80t-18.5 73t-23.5 76q-26 85 -69 107q-18 9 -34 9t-28.5 -5t-24.5 -18.5t-19 -25 t-15.5 -31t-12.5 -30t-10 -28.5q-20 -58 -52 -167t-44 -145q-20 82 -63.5 245.5t-68 263t-49.5 241t-32 262.5z" />
<glyph unicode="X" horiz-adv-x="700" d="M500 1253l133 -26q-46 -230 -213 -615q143 -382 207 -610l-129 -37q-58 200 -156 469q-124 -281 -180 -471l-129 37q58 208 241 614q-22 58 -100.5 258.5t-128.5 333.5l125 49q24 -63 99 -254.5t81 -207.5q114 281 150 460z" />
<glyph unicode="Y" horiz-adv-x="772" d="M588 1249l117 -69q-75 -129 -173 -330q-6 -12 -17 -36t-17.5 -36t-15.5 -28.5t-18 -28t-18 -19.5q-12 -269 15 -702l-133 -8q-31 396 -17 717q-26 28 -92 149q-121 215 -196 330l114 74q65 -103 152 -255.5t92 -160.5q8 14 80.5 161t126.5 242z" />
<glyph unicode="Z" horiz-adv-x="753" d="M567 686l29 -133q-51 -10 -186 -10q-210 -427 -220 -447q49 3 187.5 19t212.5 16v-135l-461 -37q-61 0 -91 30.5t-5 86.5q31 72 227 473q-80 5 -115 8l11 135l170 -10q6 11 41.5 76.5t65.5 122.5t59 122t34 97q1 7 -81.5 12.5t-191 9t-120.5 4.5l8 136q10 -1 141.5 -5.5 t210 -14.5t111.5 -30q30 -19 45 -45.5t13 -60.5t-9 -66t-27 -75t-35.5 -72t-40 -72t-34.5 -63q-1 -2 -41 -80q72 3 92 8z" />
<glyph unicode="[" horiz-adv-x="489" d="M371 1434l18 133q-207 29 -285 -49q-18 -15 -31 -38t-21 -44t-12 -55.5t-6 -56.5t0 -65t3 -61.5t5 -65t5 -59.5q14 -181 18.5 -258t3.5 -192t-12 -258q-6 -134 -8.5 -240t21.5 -193t80 -135q95 -83 272 -43l-27 131q-115 -21 -157 15q-23 20 -36 59t-15.5 107t-1 116.5 t6.5 144.5q1 19 1 29q13 262 11.5 364t-22.5 365q-13 122 -12 215.5t27 118.5q33 33 174 15z" />
<glyph unicode="\" horiz-adv-x="696" d="M92 1485l-125 -51q63 -151 219 -584q243 -679 377 -956l121 59q-123 255 -371 942q-155 436 -221 590z" />
<glyph unicode="]" horiz-adv-x="411" d="M78 -113l-10 -135q43 0 68.5 2.5t60.5 15t63 37.5q71 71 82 232q3 39 2 237t-3 400t1 375q0 19 1.5 75.5t1 80.5t-1.5 71.5t-5.5 73.5t-12 60t-20.5 57t-31 40q-38 38 -95.5 50.5t-145.5 9.5l4 -135q114 4 143 -21q22 -22 27 -121t0 -239q-3 -152 1 -558t1 -446 q-12 -116 -43 -143q-23 -23 -88 -19z" />
<glyph unicode="^" />
<glyph unicode="_" horiz-adv-x="614" d="M0 -106v-136q2 0 107.5 -2t144.5 -2q55 0 208 2t154 2v136q-3 0 -156 -2.5t-206 -2.5q-37 0 -143 2.5t-109 2.5z" />
<glyph unicode="`" />
<glyph unicode="a" horiz-adv-x="905" d="M635 827l-2 -8q-86 21 -166 13.5t-149 -33t-123.5 -74.5t-91 -111.5t-50.5 -143t-2 -169.5q6 -51 24 -104t47.5 -103.5t75 -85t99.5 -39.5q44 -4 86 12.5t74 43t64 67t52.5 74t42.5 74.5q42 -177 105 -281l117 70q-102 167 -121 436q15 45 28 96t26.5 134t-13 124 t-94.5 17zM481 702q51 0 109 -12q-16 -100 -10 -205q-78 -204 -164 -304q-120 -140 -199 24q-37 80 -36.5 168.5t33.5 161t103.5 120t163.5 47.5z" />
<glyph unicode="b" horiz-adv-x="878" d="M190 1454l-135 -20q14 -89 18 -199t1.5 -188.5t-9 -209t-8.5 -190.5q-1 -17 -10 -108t-14.5 -178.5t-5.5 -182.5t18 -154t55 -59q28 0 46.5 18.5t23.5 47.5q74 -35 146 -47.5t148 2.5t138 63v2q76 63 128 147t73 174.5t-3 185.5t-95 171q-76 81 -173.5 100.5 t-187.5 -21.5t-151 -130q23 601 -3 776zM188 172q0 70 27 202t84 218q66 103 166.5 106.5t169.5 -100.5q42 -66 42 -143t-33 -144.5t-89 -122.5q-140 -138 -367 -16z" />
<glyph unicode="c" horiz-adv-x="628" d="M510 674l55 123q-225 102 -375 -21q-111 -91 -146 -271q-34 -173 20 -324t171 -194q39 -14 84 -14q138 0 287 162l-100 90q-145 -150 -238 -97.5t-98 263.5q-3 110 36.5 190.5t116 110.5t187.5 -18z" />
<glyph unicode="d" horiz-adv-x="792" d="M553 1475l-33 -21q-21 -15 -26.5 -170.5t-2 -288t8.5 -219.5q-131 52 -242.5 4.5t-173.5 -172.5q-35 -72 -49 -155.5t-6 -159.5t34.5 -145t71.5 -113t104 -63t134 5q116 37 184 191q15 -100 43 -199l125 35q-81 295 -88 791q-1 23 -1.5 112.5t-2.5 170t-6.5 169 t-14.5 146t-26 65.5zM209 567q51 90 131 104t162 -44q-1 -76 -4 -126.5t-13 -124t-33.5 -133.5t-60.5 -104q-73 -87 -142 -39q-61 42 -84 156q-30 142 24 270q9 21 20 41z" />
<glyph unicode="e" horiz-adv-x="739" d="M649 68l-74 114q-60 -38 -124 -54t-123 -9t-104 51.5t-62 122.5q400 63 489 260q24 54 20 99t-25.5 81.5t-60 61.5t-82.5 37.5t-93.5 10.5t-92.5 -20q-87 -36 -153.5 -114t-100.5 -171.5t-35 -194.5t32 -182.5t112.5 -134.5t194.5 -53q129 0 282 95zM436 713q62 0 82 -33 t1.5 -75t-58.5 -70q-104 -72 -301 -107q12 65 49.5 129t98.5 110t128 46z" />
<glyph unicode="f" horiz-adv-x="643" d="M745 1149l-133 -29q-7 31 -17 62t-28.5 69.5t-46 60.5t-59.5 19q-121 -13 -113 -299q0 -132 2 -198q106 3 199 20l24 -133q-83 -16 -219 -23q14 -330 54 -698l-134 -14q-52 449 -63 712q-29 1 -90 4.5t-92 4.5h-6l6 135l6 -2q20 -1 55.5 -2.5t64 -2.5t52.5 -1 q-3 145 6 286q3 56 17 110.5t40.5 107t72 87.5t103.5 41q50 5 94.5 -13t76.5 -50t58.5 -76.5t42.5 -88t27 -89.5z" />
<glyph unicode="g" horiz-adv-x="724" d="M209 -305l-70 115q-53 -32 -79.5 -76t-26 -88t21 -88t56 -77t85.5 -54t103 -21q70 0 134 35.5t119.5 119.5t80.5 206q17 77 19 168.5t-4.5 160.5t-18 172t-15.5 164q29 130 36 174q30 217 -66 209q-10 -1 -21 -4q-154 57 -273 14t-190.5 -161t-72.5 -269 q-2 -117 40.5 -222t131.5 -163q64 -42 124 -31.5t106 50t81 102.5q7 -78 8.5 -137.5t-4 -136.5t-30.5 -143t-68 -115q-50 -58 -137 -44q-68 10 -98 51q-35 45 18 82q5 4 10 7zM391 713q38 0 103 -21q-23 -119 -17 -248q-40 -169 -99 -261q-88 -138 -171 16q-33 60 -41 147 t10 169t74.5 140t140.5 58z" />
<glyph unicode="h" horiz-adv-x="831" d="M201 1456l-133 -22q23 -125 35.5 -290t14.5 -255t5 -293q-12 -28 -20.5 -58t-12.5 -69.5t-5.5 -59.5t-3 -71.5t-1.5 -61.5q0 -11 -3.5 -50.5t-4.5 -70t2 -67.5t15.5 -62.5t35.5 -35.5q82 -37 116 116q29 131 19 440v19q38 67 99.5 112.5t129.5 41.5q17 -1 30.5 -7 t23.5 -18t17.5 -23.5t12.5 -31t8 -33t5 -36.5t3 -34t2 -33.5t1 -27.5q0 -38 1 -95.5t-1 -121t7 -129t24 -120t50.5 -93.5t86.5 -49l26 133q-23 4 -37 47t-18 108t-4.5 124.5t1 118.5t1.5 69q-3 40 -4 59t-6.5 61t-12 66.5t-19 59.5t-28 57t-40 42t-54.5 30h-2 q-86 22 -163.5 1.5t-145.5 -77.5q-7 203 -23 406t-30 284z" />
<glyph unicode="i" horiz-adv-x="421" d="M250 1137h-135q0 -5 -0.5 -28.5t-0.5 -34.5t3.5 -30.5t10 -29t20 -17.5t32.5 -8q17 0 30.5 6t23 21t14 24t11.5 31.5t9 26.5l-20 6q2 10 2 33zM233 819l-135 6q-1 -21 -7 -80.5t-11.5 -119t-9 -138.5t-2.5 -148t12 -138.5t30.5 -118.5t55.5 -80t86 -31q70 0 147 80 l-96 94q-27 -29 -47 -36q-17 23 -27.5 56t-14 74.5t-4 72.5t1 78t1.5 63q1 72 9.5 203t10.5 163z" />
<glyph unicode="j" horiz-adv-x="466" d="M180 1163l-125 -49q1 -3 9 -28.5t12.5 -34.5t15 -26t24 -23.5t31.5 -6.5q27 0 43 14t19.5 34.5t4.5 44t-1 42.5h-20q-2 12 -13 33zM49 -385l-129 39q-12 -50 -8 -98.5t38.5 -84.5t90.5 -36q72 0 130 43.5t92.5 107t59.5 147t35.5 150.5t14.5 131q25 355 -99 838l-131 -33 q123 -479 95 -813q-4 -54 -13.5 -110t-30 -135t-60 -132t-91.5 -59q0 20 6 45z" />
<glyph unicode="k" horiz-adv-x="759" d="M608 123l107 -41q-38 -107 -113 -107q-28 0 -52 14t-44.5 42t-32.5 49.5t-29 58.5t-22 47q-34 66 -53.5 101.5t-57.5 87t-78 84.5q7 -267 -6 -467l-133 8q7 167 8 286.5t-7 286.5t-16 287.5t-18.5 287t-15.5 286.5l135 6q6 -146 23.5 -416.5t21.5 -343.5q240 153 250 170 l123 -53q-16 -37 -54 -72.5t-72.5 -57t-89 -52t-75.5 -44.5q68 -50 118 -123.5t101 -175.5t82 -149z" />
<glyph unicode="l" horiz-adv-x="464" d="M23 1370l98 -94q25 25 33 31q7 -30 10.5 -62t2.5 -71t-2 -62.5t-5.5 -72t-5.5 -62.5q-2 -27 -17 -198.5t-20 -262.5q0 -10 -2 -34q-2 -39 -2.5 -61.5t-1 -68.5t1.5 -76.5t7.5 -74t14.5 -72.5t24.5 -61.5t35.5 -51.5t49 -32t65 -13q39 0 88 21l-53 123q-11 -5 -21 -6 t-17.5 2.5t-14 8t-11 14t-8.5 17t-6.5 21t-4 21t-3 22t-2 20.5t-1.5 19q-1 7 -1 10q-4 41 -5 88t-0.5 83t3.5 91.5t5 82.5t7.5 90.5t7.5 84.5q3 36 12 124t13 138t4 122.5t-8 131.5q-12 83 -56 119.5t-102 22t-112 -71.5z" />
<glyph unicode="m" horiz-adv-x="1273" d="M33 791l84 -107q40 31 57 31q10 -4 18 -15.5t12.5 -29t7 -35t3.5 -40t1 -37.5t-0.5 -33.5t-0.5 -22.5q-8 -25 -15.5 -49.5t-19.5 -68.5t-19.5 -84t-14 -87.5t-4.5 -86t10.5 -73t29.5 -56t54 -26.5q15 -2 27.5 0.5t21 10t15.5 16t11.5 23.5t7.5 25.5t5 28t3 27t2 27 t1 21.5q10 110 18 329q75 242 137 242q45 -4 77 -111t34 -182q0 -4 -0.5 -24t0 -27t4 -21.5t12 -23t21.5 -15.5q30 -13 59 3t35 49q6 37 18 80.5t34.5 98t49.5 95.5t66.5 65t83.5 15q26 -15 27 -96t-16 -221t-17 -146q-7 -49 -3.5 -107t13 -109.5t41 -97.5t82.5 -69l55 123 q-34 16 -51 58t-16 102t6.5 110.5t15.5 112t12 76.5q17 148 10 213q-15 142 -114 178l-4 2h-2q-104 27 -189.5 -32t-142.5 -163q-66 172 -168 195q-60 16 -111.5 -19t-89.5 -96q-25 64 -74 90.5t-104 15.5t-106 -52z" />
<glyph unicode="n" horiz-adv-x="815" d="M106 825l-73 -120q20 -12 32.5 -44t16.5 -85t5 -80.5t1 -83.5q-2 -11 -9.5 -48.5t-13.5 -73t-12.5 -82.5t-6 -86t5.5 -73.5t22 -54t45 -19.5q26 0 45.5 16.5t30.5 47t17.5 63t8.5 78t2.5 78.5t0 77.5t-0.5 63.5q6 33 27 89t55 119t84.5 97.5t102.5 12.5q82 -36 59 -283 q-11 -158 -12 -187q-5 -362 219 -249l12 6l-65 119q-20 -10 -27 -10q-12 25 -15 62t-0.5 64t9 72.5l8.5 59.5q27 197 -10 317q-23 74 -68 114.5t-98 45t-110.5 -13.5t-109 -56.5t-89.5 -89.5q-25 96 -89 137z" />
<glyph unicode="o" horiz-adv-x="673" d="M272 811l-10 31q-66 -24 -114.5 -77t-72.5 -122t-34 -138.5t-8 -139.5q3 -63 16.5 -126t41.5 -126t78.5 -102.5t117.5 -39.5q123 0 216.5 123t102.5 328q3 56 -7.5 122.5t-34.5 134.5t-64 112.5t-96.5 55.5t-131.5 -36zM256 682l35 -33q42 42 74 52t52 -11t32 -59t18 -96 q14 -109 -8.5 -219t-91.5 -171q-31 -28 -59.5 -33t-48.5 8.5t-37 40t-27 56t-17 62.5q-11 68 -12.5 139t22 145t68.5 119z" />
<glyph unicode="p" horiz-adv-x="833" d="M223 852l-129 -35q22 -99 17 -377q-18 -125 -20.5 -369.5t-4.5 -279.5q-1 -12 -5 -47t-7 -71t-5.5 -81t0 -83.5t10 -72t25 -52.5t43.5 -19q32 0 55 28.5t34 79t16.5 105.5t4.5 123.5t-3 116.5t-6 101.5t-4 62.5q99 -27 178.5 -7t140 72.5t101 128t60.5 160t19 166.5 q-2 109 -38.5 197t-120.5 126q-60 29 -124.5 18.5t-118.5 -41.5t-99 -79q-6 77 -19 129zM240 152q-1 62 -0.5 92.5t3 91t3.5 92.5q7 42 31.5 96.5t63 106.5t86 73.5t101.5 -2.5q108 -54 70 -342q-9 -67 -43 -123.5t-88 -89.5q-23 -14 -71.5 -28t-99 -9t-56.5 42z" />
<glyph unicode="q" horiz-adv-x="692" d="M508 -614l115 69q-34 58 -52.5 133t-20 172t1 160t13.5 176.5t13 141.5q16 210 38 385q13 114 -2 154q-20 55 -86 22q-102 51 -182 41t-139 -57t-98 -125t-59 -164.5t-23 -174.5q-10 -285 123 -339q31 -10 58.5 -10.5t55.5 12.5t51 29t46.5 40t40 45t32.5 45 q-1 -24 -6 -100t-6.5 -114.5t-3 -110.5t4 -119.5t14.5 -107.5t27 -110t44 -93zM473 676l6 12l-35 -178q-6 -32 -27 -96.5t-53.5 -140.5t-77 -126.5t-85.5 -40.5q-58 24 -37 252q3 41 8.5 79t19.5 90t33.5 89.5t54 64t78.5 26.5q47 0 115 -31z" />
<glyph unicode="r" horiz-adv-x="669" d="M45 752l94 98q26 -26 47 -72q108 79 211 64q125 -18 205 -178l-121 -62q-49 98 -104 107q-62 9 -156 -76q4 -29 8 -86q3 -42 3.5 -131.5t-0.5 -170.5t-2 -159t-1 -86h-135q0 1 2 124t2 242t-4 171q-11 177 -49 215z" />
<glyph unicode="s" horiz-adv-x="587" d="M154 186l-127 -45q18 -51 63 -89.5t100 -57.5t109 -19q95 0 155.5 63.5t65.5 160.5q2 47 -10.5 87t-32 66.5t-53.5 54t-61.5 44t-71 42t-68.5 42.5q-54 36 -29 93q20 47 75 70q75 31 132 -21q6 -5 11 -11l100 90q-98 109 -230 85q-102 -18 -172 -103q-73 -87 -58 -180 q13 -80 93 -134q14 -9 34 -20t38 -20t39.5 -21t38.5 -22.5t35 -25t28.5 -29t19.5 -34t8 -40t-7 -46.5q-14 -44 -63.5 -53.5t-98.5 13t-63 60.5z" />
<glyph unicode="t" horiz-adv-x="532" d="M459 834l6 -136q-18 0 -68 -4q-15 -1 -44 -2t-44 -2q-1 -28 -3.5 -124t-3.5 -140.5t0.5 -118.5t6.5 -135l121 -59q-1 -1 -10 -19t-11.5 -22t-12 -20t-14 -22t-14.5 -18.5t-18 -18t-18.5 -12.5t-21.5 -9.5t-23 -2.5q-48 0 -78 61.5t-40.5 162.5t-13.5 229t3 262 q-37 -2 -105 -2q-37 0 -53 2l6 135q61 -3 156 0q9 185 6.5 344.5t-27.5 204.5l121 66q27 -54 39.5 -165.5t11 -216t-2.5 -199.5q0 -5 -0.5 -7.5t-0.5 -6.5v-7.5v-6.5q14 1 41.5 2t40.5 2q10 1 33.5 2.5t34.5 2.5z" />
<glyph unicode="u" horiz-adv-x="751" d="M209 819h-135q0 -51 -3.5 -155.5t-4 -166.5t10 -149t34.5 -160q51 -157 163 -198q70 -24 134.5 2.5t101.5 91.5q31 -67 82 -115l92 99q-30 27 -49 64t-26.5 85.5t-9.5 88.5t-1 100q0 29 4.5 156.5t3.5 195.5q-2 40 -19.5 66t-39 32.5t-44.5 -7t-36 -46.5 q-15 -37 -19.5 -81t-3 -113.5t1.5 -84.5q0 -7 -0.5 -38t-1 -40.5t-1 -38t-2 -41t-3.5 -37.5t-5 -40.5t-7.5 -36.5t-10 -39t-12.5 -35q-13 -41 -37 -57t-49 -5.5t-45 42.5q-29 42 -45 109.5t-18.5 105t-5.5 119.5q-1 61 2.5 169.5t3.5 157.5z" />
<glyph unicode="v" horiz-adv-x="720" d="M152 838l-129 -43q79 -233 151 -531q3 -14 10.5 -58t15.5 -79t22 -74t37 -61.5t54 -22.5q28 -1 52.5 25t43 72t31.5 85.5t26 91t17 64.5q85 263 170 486l-127 47q-108 -284 -204 -602q-76 315 -170 600z" />
<glyph unicode="w" horiz-adv-x="1048" d="M127 850l-127 -47q45 -122 100.5 -360t65.5 -275q8 -30 21.5 -55.5t35 -46.5t48.5 -23.5t61 14.5q27 15 52 43.5t39 51t37.5 65t31.5 55.5q4 -10 15.5 -40t19 -48t21.5 -48.5t26 -50.5t30 -43.5t35 -37.5t39.5 -23.5t46.5 -9.5q29 0 54 13.5t42 34t31.5 52.5t23.5 59.5 t16.5 66t11 61t7.5 53.5q1 5 1.5 8.5t0.5 6.5q15 95 28.5 276.5t16.5 212.5l-135 14q-5 -55 -15 -202t-20 -226q-1 -8 -5.5 -46t-6.5 -51.5t-8 -46t-11.5 -51.5t-15 -44t-20.5 -45q-12 15 -23 31t-21.5 38t-16 34t-17 40t-14.5 35q-3 8 -14 41t-18.5 49.5t-23.5 36.5t-36 27 q-33 12 -65 -1t-58 -46t-46.5 -66t-41.5 -73t-31 -54q-7 28 -65 272.5t-103 368.5z" />
<glyph unicode="x" horiz-adv-x="645" d="M465 852l113 -74q-136 -211 -197 -321q149 -311 192 -447l-129 -41q-42 127 -143 338q-91 -190 -125 -332l-131 29q45 193 184 455q-102 213 -143 342l127 41q37 -107 98 -238q21 37 154 248z" />
<glyph unicode="y" horiz-adv-x="788" d="M242 -299l-115 -72q26 -43 51 -76t60.5 -68.5t77.5 -55t87 -19.5q81 0 140 55.5t91 153t47 204t17 232.5q1 113 -3 327t-9 308q-1 7 -2 33.5t-2.5 40t-10 31.5t-22.5 28l-31 23l-36 -19q-21 -10 -32.5 -35.5t-13.5 -48t-3.5 -58t-2.5 -46.5q-6 -61 -15.5 -120t-28 -146 t-49.5 -155t-70 -99q-23 -15 -43 -12t-39.5 25t-34.5 48.5t-28 58.5t-20.5 55.5t-11.5 39.5q-53 220 33 434l-127 51q-67 -163 -63 -345t86 -337q43 -81 109 -130t145 -32q116 24 190 201q3 -125 -4 -207q-5 -82 -13 -141t-34 -137t-68 -123q-74 -78 -202 133z" />
<glyph unicode="z" horiz-adv-x="884" d="M651 469l11 -135q-106 0 -234 20q-7 -6 -32 -28.5t-34 -30.5l-31.5 -28t-33.5 -30.5t-29.5 -28.5t-31 -31.5t-28 -30.5t-28.5 -33q66 -17 158.5 -13t161 15.5t161 24t158.5 12.5v-136l-545 -47q-39 0 -64.5 2t-63 9t-63.5 25t-40 46q-10 21 -10 44t7 41.5t21.5 40.5 t27 36t30.5 33q74 74 137 129q-72 9 -111 6l-10 135q44 5 254 -20q141 126 219 211q-48 8 -100 9t-107.5 -3.5t-99 -10t-106.5 -15t-99 -13.5l-18 133q5 1 25 3q629 91 672 -49q8 -27 -7 -63q-17 -40 -67.5 -96t-90.5 -90.5t-47 -38.5q62 -7 88 -4z" />
<glyph unicode="{" horiz-adv-x="485" d="M385 1434l33 131q-124 31 -190.5 -48.5t-71.5 -238.5q-2 -85 16.5 -279.5t13.5 -222.5q-72 -21 -111 -47.5t-42 -75.5q0 -28 13.5 -51.5t43.5 -44t51.5 -31.5t63.5 -30q2 -7 3.5 -16.5t2 -22t0.5 -24t-1 -28.5t-1.5 -28.5t-2.5 -31t-3 -29t-3 -29.5t-3 -27 q-1 -5 -5.5 -43.5t-5.5 -50t-4 -48.5t-3 -53v-49.5t3 -51.5t8 -45t13 -45t20 -36.5t27 -32.5q66 -56 166 -32l-31 133q-55 -20 -68 67q-9 67 12 262q1 5 1 9q2 15 6 51.5t5.5 52.5t3.5 48.5t1 48.5t-3.5 43t-9 42t-16.5 35.5t-25 33t-35 24.5t-46 20q38 15 53.5 23t32.5 26 t22 43.5t5 69.5q0 54 -17.5 217.5t-15.5 251.5q4 105 25.5 138.5t68.5 21.5z" />
<glyph unicode="|" />
<glyph unicode="}" horiz-adv-x="491" d="M94 -102l-61 -119q104 -55 176 -10q18 12 31.5 27.5t22 41t14.5 46.5t8 61t3 67t-1.5 82t-4.5 87.5t-6 101.5q-1 21 -5.5 100.5t-5.5 101t1 50.5q1 1 42 15.5t78.5 41t37.5 59.5q0 27 -24.5 52t-53.5 39.5t-53.5 31t-24.5 29.5q-2 39 15 209q11 99 15 156.5t3 135 t-19 131t-53 87.5q-63 59 -157 45l18 -133q43 6 59.5 -26.5t18.5 -123.5q0 -62 -19 -247t-16 -242q2 -73 84 -131q-19 -10 -32 -19.5t-28.5 -26.5t-22.5 -43.5t-5 -60.5q2 -55 9.5 -172t12.5 -200.5t2 -161t-18 -97.5q-10 0 -41 15z" />
<glyph unicode="~" />
<glyph unicode="&#xa1;" horiz-adv-x="372" d="M244 823l-13 -4q-33 29 -61 27q-35 -1 -51.5 -25t-15.5 -52.5t10 -59.5l26 10q52 -60 103 -27q55 37 2 131zM252 459l-135 -4q2 -37 -17 -242q-2 -18 -8 -81.5t-9 -99.5t-8 -103.5t-5.5 -111.5t-1 -104.5t5 -102.5t14 -85.5t23.5 -72.5t36 -46q51 -42 115 -20l-41 129 q8 -2 12 -4q-14 12 -22 73q-5 37 -6.5 87.5t-0.5 91.5t5 112.5t6.5 105.5t9 117t8.5 103q21 206 19 258z" />
<glyph unicode="&#xa9;" horiz-adv-x="1302" d="M821 1104l23 129q-135 25 -262 -2q-239 -56 -400 -258q-75 -94 -113.5 -203t-36.5 -206.5t31 -190.5q68 -204 291 -326q292 -151 557 19q156 102 245 283.5t77 363.5q-9 159 -94.5 282t-229.5 193l-59 -119q232 -109 250 -364q9 -153 -63.5 -301.5t-198.5 -227.5 q-36 -24 -78 -40t-96 -23.5t-118 5.5t-130 48q-170 81 -230 252q-30 84 -20 174t41.5 165.5t79.5 135.5q38 52 89.5 95t121.5 77.5t149.5 44t173.5 -5.5zM719 807l43 125q-127 45 -217 2q-100 -45 -139.5 -170t-14.5 -260q13 -79 46.5 -136t75.5 -82.5t89.5 -24.5t89.5 30 q71 48 144 170l-117 65q-150 -267 -199 -2q-23 131 19 219q25 59 68 74t112 -10z" />
<glyph unicode="&#xab;" horiz-adv-x="978" d="M403 766l-104 86q-136 -167 -187 -255.5t-42 -158.5q8 -60 71 -123q28 -27 125 -94q4 -3 68.5 -50t103.5 -79l84 107q-82 66 -178 131q-103 74 -123 98q-14 17 -16 29q-3 18 11.5 49.5t47.5 78t61.5 84t77.5 97.5zM793 766l-105 86q-136 -167 -187 -255.5t-42 -158.5 q8 -60 71 -123q28 -27 125 -94q4 -3 68.5 -50t103.5 -79l84 107q-82 66 -178 131q-103 74 -123 98q-14 17 -16 29q-3 18 11 49t48 78.5t62 83.5t78 98z" />
<glyph unicode="&#xad;" horiz-adv-x="614" d="M55 705l-22 -134q111 -18 327 -18h95q31 2 92 2v135q-63 0 -94 -2q-298 0 -398 17z" />
<glyph unicode="&#xb7;" horiz-adv-x="337" d="M92 506l12 4q31 -31 62 -31q35 0 52.5 23t15.5 53t-7 59l-26 -8q-49 61 -101 31q-25 -15 -29.5 -40.5t2 -44.5t19.5 -46z" />
<glyph unicode="&#xbb;" horiz-adv-x="954" d="M68 164l100 -90q55 60 172 172q76 69 106 106q50 73 52 127q0 70 -57.5 148.5t-204.5 224.5l-97 -96q223 -217 223 -275q0 -10 -7 -23t-26.5 -34t-33 -34.5t-47.5 -45.5q-122 -117 -180 -180zM457 164l100 -90q55 60 172 172q80 73 107 106q49 71 51 127 q0 70 -57.5 148.5t-204.5 224.5l-97 -96q224 -218 224 -275q0 -19 -25 -47t-79 -80q-2 -1 -3 -2l-2.5 -2.5l-3 -3l-2.5 -2.5q-122 -117 -180 -180z" />
<glyph unicode="&#xbf;" horiz-adv-x="700" d="M498 823l-13 -4q-31 31 -61 33q-35 0 -53 -23t-16 -53t7 -59l27 8q47 -63 98 -33q19 12 27.5 28t6 35.5t-7.5 33.5t-15 34zM520 479h-135q-2 -116 -19.5 -228t-48.5 -169q-34 -58 -120 -132t-107 -120q-40 -81 -6 -201q37 -137 104 -207q74 -78 166 -59q56 9 107.5 51.5 t89.5 112.5q74 126 67 289l-133 -6q3 -122 -53 -218q-22 -40 -48.5 -66.5t-49.5 -29.5q-33 -5 -65 40.5t-54 127.5q-21 67 -4 107q13 23 56.5 61t92.5 87t76 99q38 71 60 199t24 262z" />
<glyph unicode="&#x2000;" horiz-adv-x="787" />
<glyph unicode="&#x2001;" horiz-adv-x="1574" />
<glyph unicode="&#x2002;" horiz-adv-x="787" />
<glyph unicode="&#x2003;" horiz-adv-x="1574" />
<glyph unicode="&#x2004;" horiz-adv-x="524" />
<glyph unicode="&#x2005;" horiz-adv-x="393" />
<glyph unicode="&#x2006;" horiz-adv-x="262" />
<glyph unicode="&#x2007;" horiz-adv-x="262" />
<glyph unicode="&#x2008;" horiz-adv-x="196" />
<glyph unicode="&#x2009;" horiz-adv-x="314" />
<glyph unicode="&#x200a;" horiz-adv-x="87" />
<glyph unicode="&#x2010;" horiz-adv-x="614" d="M55 705l-22 -134q111 -18 327 -18h95q31 2 92 2v135q-63 0 -94 -2q-298 0 -398 17z" />
<glyph unicode="&#x2011;" horiz-adv-x="614" d="M55 705l-22 -134q111 -18 327 -18h95q31 2 92 2v135q-63 0 -94 -2q-298 0 -398 17z" />
<glyph unicode="&#x2012;" horiz-adv-x="614" d="M55 705l-22 -134q111 -18 327 -18h95q31 2 92 2v135q-63 0 -94 -2q-298 0 -398 17z" />
<glyph unicode="&#x2013;" horiz-adv-x="716" d="M43 696l-10 -135q136 -10 248 -10q125 0 184 2h184v135h-184q-267 -3 -422 8z" />
<glyph unicode="&#x2014;" horiz-adv-x="1126" d="M43 694l-10 -133q163 -12 325 -12q32 0 260.5 1t258.5 1q59 2 182 2v135q-124 0 -185 -2q-619 -8 -831 8z" />
<glyph unicode="&#x2018;" horiz-adv-x="364" d="M238 1358h-134q-2 -75 -22 -176q-17 -101 -13 -139q1 -9 3 -17q17 -88 123 -129l47 127q-33 11 -39 29q-3 17 12 104q23 122 23 201z" />
<glyph unicode="&#x2019;" horiz-adv-x="364" d="M70 895h135q2 80 22 176q1 5 4 21.5t3.5 22t3 19.5t3 21t1 18.5t0.5 19.5t-1 17.5t-3 18.5q-18 86 -123 127l-47 -127q36 -12 36 -29q6 -18 -10 -102q-22 -116 -24 -203z" />
<glyph unicode="&#x201a;" />
<glyph unicode="&#x201c;" horiz-adv-x="651" d="M238 1358h-134q-2 -75 -22 -176q-17 -101 -13 -139q1 -9 3 -17q17 -88 123 -129l47 127q-33 11 -39 29q-3 17 12 104q23 122 23 201zM524 1358h-133q-2 -75 -22 -176q-1 -5 -4 -24t-4 -25t-3.5 -21.5t-2.5 -23.5t-0.5 -20t0.5 -22t3 -20q17 -88 123 -129l47 127 q-33 11 -39 29q-3 15 13 104q22 117 22 201z" />
<glyph unicode="&#x201d;" horiz-adv-x="651" d="M70 895h135q2 80 22 176q1 5 4 21.5t3.5 22t3 19.5t3 21t1 18.5t0.5 19.5t-1 17.5t-3 18.5q-18 86 -123 127l-47 -127q36 -12 36 -29q6 -18 -10 -102q-22 -116 -24 -203zM356 895h136q2 80 22 176q10 61 12.5 83.5t-2.5 74.5q-18 86 -123 127l-47 -127q37 -13 37 -29 q6 -18 -10 -102q-23 -122 -25 -203z" />
<glyph unicode="&#x201e;" />
<glyph unicode="&#x2022;" horiz-adv-x="679" d="M242 451q3 0 36 10t37 10q39 -3 74 8q55 19 92 96q19 37 13.5 83.5t-31.5 78.5q-24 30 -64 58q-4 3 -23 19.5t-32 21.5q-106 49 -197 -150q-11 -21 -12 -53t1 -47t9 -54q8 -36 34.5 -58.5t62.5 -22.5z" />
<glyph unicode="&#x2026;" horiz-adv-x="972" d="M92 -4l12 4q31 -31 62 -31q35 0 52.5 23t15.5 53t-7 59l-26 -8q-49 61 -101 31q-25 -15 -29.5 -40.5t2 -44.5t19.5 -46zM399 -4l13 4q31 -31 61 -31q35 0 53 23t16 53t-7 59l-27 -8q-49 61 -100 31q-25 -15 -29.5 -40.5t1.5 -44.5t19 -46zM727 -4l12 4q31 -31 62 -31 q35 0 52.5 23t15.5 53t-7 59l-26 -8q-49 61 -101 31q-25 -15 -29.5 -40.5t2 -44.5t19.5 -46z" />
<glyph unicode="&#x202f;" horiz-adv-x="314" />
<glyph unicode="&#x2039;" horiz-adv-x="589" d="M403 766l-104 86q-136 -167 -187 -255.5t-42 -158.5q8 -60 71 -123q28 -27 125 -94q4 -3 68.5 -50t103.5 -79l84 107q-82 66 -178 131q-103 74 -123 98q-14 17 -16 29q-3 18 11.5 49.5t47.5 78t61.5 84t77.5 97.5z" />
<glyph unicode="&#x203a;" horiz-adv-x="565" d="M68 164l100 -90q55 60 172 172q76 69 106 106q50 73 52 127q0 70 -57.5 148.5t-204.5 224.5l-97 -96q223 -217 223 -275q0 -10 -7 -23t-26.5 -34t-33 -34.5t-47.5 -45.5q-122 -117 -180 -180z" />
<glyph unicode="&#x205f;" horiz-adv-x="393" />
<glyph unicode="&#xe000;" horiz-adv-x="849" d="M0 850h850v-850h-850v850z" />
<glyph unicode="&#xfb01;" />
<glyph unicode="&#xfb02;" />
<glyph unicode="&#xfb03;" />
<glyph unicode="&#xfb04;" />
</font>
</defs>
</svg>
