<?xml version="1.0" standalone="no"?>
<!DOCTYPE svg PUBLIC "-//W3C//DTD SVG 1.1//EN" "http://www.w3.org/Graphics/SVG/1.1/DTD/svg11.dtd" >
<svg xmlns="http://www.w3.org/2000/svg">
<metadata></metadata>
<defs>
<font id="green_mud_narratorregular" horiz-adv-x="303" >
<font-face units-per-em="2048" ascent="1434" descent="-614" />
<missing-glyph horiz-adv-x="512" />
<glyph horiz-adv-x="2048" />
<glyph horiz-adv-x="2048" />
<glyph unicode="&#xd;" horiz-adv-x="2048" />
<glyph unicode=" "  horiz-adv-x="512" />
<glyph unicode="&#x09;" horiz-adv-x="512" />
<glyph unicode="&#xa0;" horiz-adv-x="512" />
<glyph unicode="!" d="M104 377h68q0 307 -2 366q-5 332 8 486l-67 6q-13 -170 -9 -494q2 -59 2 -364zM215 145q39 -39 8 -88q-26 -40 -49 -63t-49 -23q-31 0 -46 28.5t-9 78.5q10 70 49 82q22 14 49 9.5t47 -24.5z" />
<glyph unicode="&#x22;" horiz-adv-x="610" d="M201 735l4 82q10 180 10 256q0 94 -13 137.5t-42 51.5q-46 14 -92 -68l57 -33q3 4 7.5 11.5t6.5 9.5q8 -36 8 -129q0 -67 -10 -232q-4 -82 -4 -86h68zM528 735l4 82q11 198 11 256q0 93 -13.5 137t-42.5 52q-46 14 -92 -68l58 -33q3 4 7.5 11.5t6.5 9.5q8 -36 8 -129 q0 -67 -10 -232q-4 -82 -4 -86h67z" />
<glyph unicode="#" horiz-adv-x="1165" d="M1098 674v-68q-145 0 -283 -6l-31 -2l-67 -225q40 0 109 1t92 1v-68q-140 0 -220 -2q-77 -265 -157 -588l-66 17q62 254 152 567h-68q-32 -1 -98 -4t-101 -4q-98 -299 -147 -537l-66 15q43 216 142 522h-13q-117 0 -208 8l6 68q117 -9 237 -9q15 47 44.5 135.5 l33.5 100.5q-107 3 -215 18l10 68q101 -13 228 -20q143 412 180 581l65 -14q-41 -182 -172 -570q106 0 250 7l137 438q8 29 25.5 85t22.5 71l65 -21l-49 -156q-77 -242 -129 -415h4q141 6 287 6zM647 371l68 225q-63 -2 -191 -2h-61l-80 -232l174 9h90z" />
<glyph unicode="$" horiz-adv-x="927" d="M750 936l-64 -25q-20 62 -92 101q3 -243 -6 -486q73 -29 127 -61q123 -80 141 -191q16 -109 -45 -184q-76 -95 -244 -115q-11 -236 -12 -249l-66 4l9 241q-60 0 -140 17q-6 -91 -18 -178l-66 8q14 104 19 188q-167 56 -225 184l63 27q38 -90 168 -141q14 224 14 481 q-79 34 -129 70q-128 94 -110 241q12 109 102 174q49 37 121 60q-9 220 -10 237h67q2 -21 11 -225h4q80 9 157 -6l-6 221l68 4q6 -123 6 -248h2q120 -51 154 -149zM377 1049l-10 -2q12 -294 12 -445l96 -35l47 -16q7 270 4 487q-68 17 -149 11zM225 682q32 -23 86 -51 q-2 135 -10 401q-149 -50 -162 -172q-12 -108 86 -178zM520 479l-139 51q0 -264 -16 -475q63 -14 137 -14zM758 133q43 51 30 131q-12 82 -108 142q-62 34 -94 47q-2 -74 -17 -408q135 18 189 88z" />
<glyph unicode="%" horiz-adv-x="1239" d="M1087 1386l64 -26q-49 -112 -127.5 -243t-136 -214.5t-162.5 -230.5q-4 -6 -29.5 -41.5t-31.5 -44.5t-29 -41.5t-31.5 -44.5t-28.5 -41.5t-30.5 -45t-28 -42t-29.5 -45.5t-26 -42t-27 -44q-148 -253 -203 -449l-63 19q26 93 69.5 193t85 178t111 185.5t112.5 169 t124 175.5q101 142 159.5 227t134 212.5t123.5 235.5zM295 1171q83 0 143.5 -80.5t61.5 -232.5q2 -201 -90 -293q-55 -55 -125 -55q-80 0 -144 71.5t-71 194.5q-14 223 90 332q60 63 135 63zM295 1104q-45 0 -86 -41q-84 -94 -72 -283q5 -96 53 -153q40 -49 95 -49 q41 0 75 34q72 72 72 246q0 120 -47 193q-38 53 -90 53zM954 631q88 0 148 -82q61 -82 67 -217q12 -185 -88 -293q-67 -70 -149 -70q-71 0 -127 56q-78 74 -76 235q3 170 68 275q65 96 157 96zM954 563q-61 0 -107.5 -78t-49.5 -225q-3 -130 55 -188q35 -35 80 -35 q54 0 100 49q79 85 70 242q-6 111 -49.5 173t-98.5 62z" />
<glyph unicode="&#x26;" horiz-adv-x="1167" d="M1100 18l-58 -34q-61 100 -258 282q-1 0 -2 -1t-2 -1q-243 -278 -432 -280q-81 0 -139 47q-64 49 -107 147q-44 104 -32 191q9 78 65 149q36 46 87.5 84.5t129.5 87.5q-100 128 -123 230q-22 102 35 192q55 80 146 117q79 30 155 8q79 -23 129 -111q45 -89 37 -157 q-3 -68 -53 -127q-24 -31 -64 -63t-71 -52t-88 -55q84 -94 321 -307q73 90 130.5 179t80.5 144l62 -24q-23 -64 -99 -179q-62 -93 -123 -168q198 -179 273 -299zM545 1171q-33 10 -54 8.5t-57 -14.5q-66 -23 -112 -90q-44 -68 -27 -139q25 -96 115 -211q58 34 93 56.5 t73 52.5t55.5 56t28.5 58t4 68t-29 78q-35 63 -90 77zM731 309l2 2q-12 12 -76.5 70t-137 127.5t-124.5 128.5q-151 -93 -207 -162q-90 -115 -24 -270q68 -154 180 -154h2q77 2 177 68.5t208 189.5z" />
<glyph unicode="'" horiz-adv-x="282" d="M201 735l4 82q10 180 10 256q0 94 -13 137.5t-42 51.5q-46 14 -92 -68l57 -33q3 4 7.5 11.5t6.5 9.5q8 -36 8 -129q0 -67 -10 -232q-4 -82 -4 -86h68z" />
<glyph unicode="(" horiz-adv-x="505" d="M465 1434l41 -54q-165 -121 -252 -272q-87 -150 -111 -324q-34 -237 56 -518q88 -263 264 -481l-53 -41q-184 229 -275 502q-94 287 -59 549q23 183 119 346q98 168 270 293z" />
<glyph unicode=")" horiz-adv-x="548" d="M70 1378l39 56q183 -127 278 -324q91 -187 94 -401q6 -268 -110 -519q-119 -256 -330 -413l-41 53q195 145 309 389q111 238 105 488q-4 214 -92.5 386t-251.5 285z" />
<glyph unicode="*" horiz-adv-x="860" d="M612 1434l54 -41q-18 -24 -201 -285q218 12 328 12v-67q-30 0 -316 -11q54 -67 55 -69q91 -111 121 -154l-55 -39q-26 38 -117 150l-73 92q-17 -24 -88 -124.5t-111 -154.5l-55 41q95 128 178 250q-117 -8 -264 -8v68q94 0 278 8q-56 82 -59 86q-100 156 -109 272l68 4 q8 -123 157 -325q208 293 209 295z" />
<glyph unicode="+" horiz-adv-x="794" d="M715 514h12v-68h-12h-13q-155 0 -290 3q0 -28 -1 -82t-1 -80q-2 -63 -2 -176h-68q0 112 2 178q0 25 1 79t1 81q-191 9 -276 14l4 67q161 -9 272 -12q0 203 -14 301l67 8q15 -107 15 -311q94 -2 303 -2z" />
<glyph unicode="," horiz-adv-x="327" d="M162 0l-62 31q35 66 84 55q28 -4 48 -33.5t26 -72.5q9 -73 -30.5 -148.5t-133.5 -116.5l-26 62q50 22 79.5 58.5t36 62t6.5 49.5q2 46 -16 71q-8 -8 -12 -18z" />
<glyph unicode="-" horiz-adv-x="786" d="M68 666v-68q111 0 329 12q260 15 322 15v67q-79 0 -326 -14q-212 -12 -325 -12z" />
<glyph unicode="." d="M215 145q39 -39 8 -88q-26 -40 -49 -63t-49 -23q-31 0 -46 28.5t-9 78.5q10 70 49 82q22 14 49 9.5t47 -24.5z" />
<glyph unicode="/" horiz-adv-x="892" d="M0 -295l66 -16q28 112 74.5 239.5t89.5 226t118 246t117.5 225.5t130.5 238q209 381 297 570l-59 28q-91 -193 -297 -565q-107 -194 -165.5 -303.5t-142 -280t-139 -318.5t-90.5 -290z" />
<glyph unicode="0" horiz-adv-x="1153" d="M584 1249q181 0 303 -159q131 -172 131 -467q3 -180 -47 -322q-44 -130 -127 -213q-115 -115 -260 -115q-89 0 -168 43q-80 42 -144 125q-137 181 -137 482q0 149 39 271t103 197.5t143.5 116.5t163.5 41zM584 1182q-72 0 -139 -36.5t-121.5 -104.5t-87.5 -176.5 t-33 -241.5q0 -276 123 -441q107 -141 256 -141q119 0 213 94q77 77 116.5 202.5t38.5 285.5q0 273 -119 426q-102 133 -247 133z" />
<glyph unicode="1" horiz-adv-x="505" d="M133 1135l-43 51q54 45 94 63q45 20 82 4q14 -7 24.5 -18.5t17 -31t11 -38.5t6 -51t1.5 -58.5t-2 -71.5t-4 -80t-6 -93q-1 -7 -1 -10q-11 -150 -16 -246.5t-5 -255.5t13 -299l-67 -6q-28 311 8 811q14 205 12 285q-1 40 -6 65.5t-10 30.5l-4 6q-36 0 -105 -57z" />
<glyph unicode="2" horiz-adv-x="1013" d="M207 872h-68q0 153 107 263q98 98 237 120q120 15 213 -38q104 -63 142 -197q55 -186 -76 -338q-35 -40 -87.5 -82t-90.5 -68t-107 -69q-54 -34 -78 -50t-66.5 -47t-62.5 -52t-38.5 -49.5t-22.5 -55.5q-15 -102 10 -127q22 -26 104.5 -30t204.5 5q258 11 351 11v-68 q-117 0 -347 -10q-99 -6 -170 -6q-77 0 -122.5 11t-71.5 42q-47 53 -27 182q7 45 32.5 85t74 80.5t86.5 66t108 69.5q74 48 103.5 67.5t81.5 60.5t84 77q106 126 63 276q-30 108 -112 156q-73 43 -170 31q-52 -8 -102.5 -33.5t-91.5 -65t-66 -96.5t-25 -121z" />
<glyph unicode="3" horiz-adv-x="1095" d="M203 1067l-66 -14q-15 68 82 118q112 59 330 80q87 9 160 2q84 -6 110 -39q24 -27 21 -59q-6 -71 -119 -178q-47 -47 -199 -174l-67 -58q48 11 86.5 17t94 7.5t105 -14.5t86.5 -50q33 -30 65.5 -78t51.5 -105q47 -143 -31 -260q-43 -63 -103.5 -121t-143.5 -113.5 t-140 -89.5t-155 -88l-109 -61l-35 59l111 62q74 40 118.5 65.5t112.5 68.5t113.5 78.5t94 83t81.5 95.5q60 88 23 201q-30 88 -99 153q-37 33 -95.5 42.5t-104 3t-105.5 -19t-74 -13.5h-6.5h-8.5t-9.5 0.5t-11 2.5t-9.5 4.5t-9 7.5t-7 11q-13 23 12 51q6 8 22 23t31 28 t39.5 33t32.5 27q150 125 195 168q93 93 98 135q0 8 -4 12q-13 11 -70 15q-54 5 -153 -2q-200 -20 -301 -76q-20 -10 -31.5 -21.5t-9.5 -19.5z" />
<glyph unicode="4" horiz-adv-x="987" d="M668 1194l6 -102l6 -330v-391q133 14 172 14l-4 -68q-37 0 -170 -14v-426h-66v418q-229 -22 -252 -23q-165 -6 -208 29q-28 25 -9 84q16 67 97 232.5t184 349.5q110 198 156 260q8 10 10 13t9.5 10.5t14.5 10t15 1.5q28 -5 35 -37zM612 362v367q-2 222 -8 412 q-97 -154 -203 -357q-91 -172 -143 -284q-50 -111 -55 -152q49 -12 153 -8q53 3 256 22z" />
<glyph unicode="5" horiz-adv-x="970" d="M160 -127l98 37q123 44 209 83.5t151 90.5q156 126 150 334q-6 217 -90 274q-26 17 -61 20.5t-79.5 -7.5t-74.5 -21.5t-78 -30.5q-101 -38 -115 -41q-70 -15 -102 23q-8 11 -14 59q-2 18 -3.5 68t-4.5 144.5t-7 187.5q-6 52 -3 86t22 53t55 21.5t96 -5.5q229 -16 436 -6 l5 -67q-220 -10 -445 6q-90 8 -100 2q-6 -11 2 -86q4 -43 8 -216.5t8 -205.5q28 0 137 41q51 20 71.5 27.5t69.5 21.5t78 15t67.5 -6t68.5 -27q115 -72 121 -328q6 -244 -177 -387q-70 -57 -160.5 -99t-215.5 -88l-97 -36z" />
<glyph unicode="6" horiz-adv-x="980" d="M752 1229l-7 -68q-91 7 -178 -38.5t-154 -125.5t-116.5 -183t-73.5 -214q147 87 269 96q137 9 231 -73q95 -86 117 -228q22 -141 -39 -256q-51 -97 -146 -139q-104 -48 -241 -12q-171 41 -240 213q-60 150 -29 356q22 128 75 249.5t128 215.5q88 107 185.5 160t218.5 47z M496 629q-133 -10 -287 -119q-21 -165 27 -283q55 -139 194 -174q217 -53 311 117q50 98 31 215q-15 117 -94 186q-73 64 -182 58z" />
<glyph unicode="7" horiz-adv-x="1099" d="M215 969l-65 -13q-36 183 24 252q23 25 55 37.5t87.5 14t96 -0.5t128.5 -10q200 -20 374 -20q28 0 41 -23q15 -15 4.5 -62.5t-55.5 -146.5q-53 -117 -137 -270q-14 -27 -31.5 -61t-28.5 -55t-14 -29q-38 -109 -59.5 -236.5t-27.5 -220t-11 -246.5h-68q5 157 11.5 253.5 t29 227.5t62.5 244q5 16 78 154q95 181 129 256q46 96 57 147q-103 0 -360 21q-116 14 -200 12t-110 -31q-37 -42 -10 -194z" />
<glyph unicode="8" horiz-adv-x="1110" d="M506 1257q153 -6 295 -98q144 -94 160 -217q9 -102 -78 -184q-73 -67 -209 -117q108 -49 153 -78q126 -76 144 -172q26 -122 -127 -289q-103 -109 -230 -127q-120 -13 -225 37q-118 56 -192 172q-76 120 -60 238q5 33 18.5 64.5t42 70t82.5 71.5t128 54q-91 43 -140 82 q-137 101 -110 246q31 135 133 198q85 55 215 49zM481 1190q-38 0 -73 -7.5t-74 -27t-68.5 -60.5t-42.5 -100q-20 -98 84 -178q70 -51 271 -135q161 46 242.5 111.5t72.5 140.5q-5 43 -38.5 87.5t-90.5 82.5q-126 81 -283 86zM557 616l-49 21q-144 -24 -225 -90 q-66 -57 -78 -135q-13 -92 48.5 -190.5t164.5 -149.5q93 -44 186 -29q105 15 191 107q129 135 110 227q-8 36 -38 68.5t-80.5 62t-98 51.5t-116.5 51z" />
<glyph unicode="9" horiz-adv-x="1017" d="M215 -127v68q272 10 440 231q139 181 158 438q-194 -116 -348 -125q-157 -12 -248 90q-91 105 -82 273q9 161 107 280q87 106 211 125q142 22 297 -69q58 -34 98 -207q38 -156 35 -330q-6 -149 -47 -272q-49 -142 -127 -244q-184 -246 -494 -258zM461 551q147 9 354 139 q-3 145 -33 273q-17 71 -36 112.5t-31 48.5q-114 66 -207 66q-127 0 -213 -105q-82 -98 -92 -241q-6 -143 65 -223q67 -76 193 -70z" />
<glyph unicode=":" d="M215 719q39 -39 8 -88q-26 -40 -49 -63t-49 -23q-31 0 -46 28t-9 78q10 70 49 82q22 14 49 10t47 -24zM215 145q39 -39 8 -88q-26 -40 -49 -63t-49 -23q-31 0 -46 28.5t-9 78.5q10 70 49 82q22 14 49 9.5t47 -24.5z" />
<glyph unicode=";" horiz-adv-x="327" d="M197 702q29 -29 6 -67q-43 -66 -74 -66q-24 0 -35.5 22t-7.5 60q10 53 39 62q15 10 36 7t36 -18zM162 0l-62 31q35 66 84 55q28 -4 48 -33.5t26 -72.5q9 -73 -30.5 -148.5t-133.5 -116.5l-26 62q50 22 79.5 58.5t36 62t6.5 49.5q2 46 -16 71q-8 -8 -12 -18z" />
<glyph unicode="&#x3c;" horiz-adv-x="870" d="M680 104l27 62l-121 51q-239 97 -346 152q-40 22 -65 41.5t-32.5 31t-7.5 19.5q0 43 148 125q163 86 520 233l-27 62q-414 -170 -561 -255.5t-147 -164.5q0 -65 102 -128q81 -50 352 -163l1 -1h1l1 -1h1l1 -1h1h1l1 -1h1l1 -1h1h1l1 -1h1l1 -1h1h1l1 -1h1l1 -1h1l1 -1h1 h1v-1h1l1 -1h1h1l1 -1h1l1 -1h1l1 -1h1l2 -1h1z" />
<glyph unicode="=" horiz-adv-x="833" d="M762 590l4 67q-23 1 -299 7q-262 0 -393 10l-6 -66q133 -12 399 -12q197 0 295 -6zM96 369l-6 -68q156 -12 473 -4l168 6v68l-86 -4q-389 -9 -549 2z" />
<glyph unicode="&#x3e;" horiz-adv-x="856" d="M109 879l213 -113q267 -140 344 -188q62 -39 92.5 -72t29.5 -70q-1 -22 -16 -42.5t-30.5 -32.5t-43.5 -29q-40 -22 -209 -99q-201 -87 -391 -182l-30 60q173 87 395 186q147 62 203 94q23 13 36.5 24.5t16 16t2.5 6.5q0 25 -92 82q-65 43 -340 187l-213 112z" />
<glyph unicode="?" horiz-adv-x="864" d="M135 817l-67 6q16 157 125 281t245 149q99 19 180 -24q91 -48 146 -158q57 -115 14 -209q-13 -25 -35 -51t-38.5 -41.5t-49.5 -44.5q-19 -16 -27 -23.5t-25 -24t-25.5 -26t-22.5 -26t-20.5 -29.5t-16 -31t-13.5 -35t-7.5 -37.5t-3 -43t3.5 -46.5l-68 -10q-4 30 -4.5 57.5 t4 52t10 46t16.5 43t19.5 37.5t24.5 35t26 31t28.5 29.5t28.5 26t29 25.5q31 28 44 40.5t32.5 35t28.5 41.5q29 64 -15 147q-47 92 -116 129q-63 31 -135 19q-114 -22 -207 -129q-97 -114 -109 -242zM563 145q39 -39 8 -88q-26 -40 -49 -63t-49 -23q-31 0 -46 28.5t-9 78.5 q10 70 49 82q22 14 49 9.5t47 -24.5z" />
<glyph unicode="@" horiz-adv-x="1126" d="M889 236l65 -19q-38 -131 -135 -194q-85 -52 -213 -52q-84 4 -172.5 37.5t-163.5 89.5q-167 126 -192 289q-23 140 9 283.5t116 271.5q76 117 180 196.5t211 104.5q140 35 252 -35q121 -74 176 -252q69 -231 12 -440q-26 -91 -72.5 -154.5t-101.5 -85.5 q-60 -23 -107.5 3.5t-78.5 89.5q-121 -95 -223 -60q-62 20 -104 82t-52 148q-13 110 27 202q45 111 143 172q84 55 147 70q69 15 109 -12q62 -44 59 -174q-2 -80 -26 -222q-15 -83 -19 -120q-4 -46 2 -58q41 -80 99 -59q40 17 75.5 70t57.5 127q54 189 -13 401 q-48 158 -145 215q-89 54 -201 27q-95 -22 -188 -94.5t-162 -178.5q-78 -119 -108.5 -250t-8.5 -258q21 -134 168 -243q139 -105 297 -115q29 -1 57 1.5t63.5 14.5t64.5 32.5t55.5 59t40.5 89.5zM655 922q-49 0 -153 -66q-80 -50 -119 -139q-34 -78 -21 -170q8 -65 38 -113 t73 -61q82 -26 195 80q1 22 18 133q25 145 27 213q1 68 -13 95.5t-45 27.5z" />
<glyph unicode="A" horiz-adv-x="1138" d="M1071 53v-67h-301v67h133l-94 357q-70 0 -109 -2h-172q-129 0 -182 4q-49 -193 -92 -346h31q19 0 55 1t55 1v-68q-30 0 -79.5 -2t-107 -2t-140.5 4l6 68q46 -5 112 -5q112 430 158 621q85 331 109 410q20 64 45 112l3 4q3 5 4.5 7t5 7t6.5 8l7.5 7.5t9 7t10 5.5t11.5 4 t12 1q45 2 78 -65q24 -47 62 -156q29 -90 172 -620l94 -363h98zM410 668l-48 -191q49 -2 336 -2q33 2 95 2q-111 409 -144 510q-27 90 -41 124.5t-41 76.5q-9 -9 -27 -52.5t-30 -84.5q-20 -65 -100 -383z" />
<glyph unicode="B" horiz-adv-x="1167" d="M68 1169l4 68q75 -5 233 10q6 0 52 3.5t58 4t51.5 2.5t59 2t51.5 -0.5t58 -2.5t51 -5q214 -30 297 -174q93 -169 31 -272q-46 -80 -172 -113q151 -57 217 -174q46 -80 39 -168.5t-64 -165.5q-45 -59 -111.5 -102t-141.5 -65t-145.5 -32t-141.5 -10q-164 0 -367 45l16 68 q120 -29 238 -41v172v59q0 203 -1 315.5t-7 284t-19 306.5l-43 -4q-171 -15 -243 -11zM924 1044q-64 116 -248 140q-78 12 -252 4q15 -189 22 -457q126 12 234 0q82 7 163.5 32t112.5 77q43 70 -32 204zM449 219v-176q113 -5 218.5 14.5t180.5 59.5q88 47 131 108 q45 56 51 129q6 71 -31 129q-55 100 -184 146q-73 27 -139 35q-77 -7 -230 -7q3 -217 3 -438z" />
<glyph unicode="C" horiz-adv-x="978" d="M825 406l68 -7q-10 -139 -72.5 -242.5t-163.5 -150.5q-73 -31 -143 -31q-121 0 -225 78q-127 91 -183 266q-61 189 -26 447q28 198 141 328q110 135 252 157q107 17 198.5 -38.5t151.5 -174.5q11 112 21 174l67 -14q-8 -41 -18 -141t-10 -139q62 -146 -11 -156 q-32 -9 -44.5 23.5t-12.5 117.5l-49 101q-51 101 -123 147t-158 33q-119 -19 -213 -133q-103 -122 -125 -293q-34 -240 25 -418q51 -154 156 -234q69 -51 149 -61t152 23q85 40 136 127.5t60 210.5z" />
<glyph unicode="D" horiz-adv-x="1122" d="M68 1161l8 68q50 -7 188 4q229 13 336 2q199 -18 313 -117q124 -112 136 -317q17 -274 -13 -445q-30 -167 -110 -247q-40 -41 -94 -66t-114 -33t-133 -10.5t-151 0.5q-216 4 -344 -6l-4 67q120 9 229 9q33 189 41 394.5t0 354.5t-28 350l-60 -4q-143 -11 -200 -4zM385 68 h51q193 -4 266 8q119 18 175 80q68 68 92 213q29 160 12 428q-9 179 -113 270q-94 82 -276 100q-88 11 -199 4q20 -197 29 -350t1.5 -357.5t-38.5 -395.5z" />
<glyph unicode="E" horiz-adv-x="1114" d="M1034 352v-82q16 -128 13 -184q-3 -57 -21 -78.5t-57 -21.5q-256 14 -402 14q-86 0 -248 -27q-153 -23 -202 -26l-4 67q72 5 180 23q0 148 12 418q17 479 4 727q-162 -28 -241 -21l6 68q40 -4 103.5 2.5t108 14t136.5 24.5q89 16 133 23.5t121.5 16.5t124 8t100 -10 t90.5 -30q31 -17 36.5 -74t-3.5 -135q-9 -163 10 -192l-57 -35q-21 33 -24.5 98.5t3.5 132.5q4 38 4.5 88t-4.5 60q-51 27 -146.5 27.5t-172 -11t-203.5 -35.5l-57 -10q13 -201 4 -530q176 0 278 10q-3 109 3 170l67 -4q-9 -156 4 -375h-67l-4 141q-102 -10 -283 -10 l-6 -143q-10 -229 -13 -404q119 21 207 21q73 0 408 -15q14 41 -8 211v88h67z" />
<glyph unicode="F" horiz-adv-x="1054" d="M68 1178l8 67q107 -12 223 -12t171.5 4.5t158.5 15.5q108 16 187 11.5t120 -45.5q43 -46 49 -142q6 -89 -14 -246l-68 9q38 277 -16 331q-25 26 -90.5 27t-159.5 -12q-156 -17 -260 -21q18 -234 24 -479q50 0 136 4q110 4 168 4v-67q-56 0 -166 -4q-113 -5 -136 -5 q0 -292 -14 -550l31 2h151l27 -2l-8 -68q-80 6 -266 -4q-175 -15 -220 -10l9 67l26 -2q44 1 183 12q35 564 -13 1102q-127 0 -241 13z" />
<glyph unicode="G" horiz-adv-x="1069" d="M862 -82l-67 -4q-7 94 0 236q-53 -106 -142 -150q-59 -23 -108 -23q-131 0 -262 115q-144 132 -197 357q-50 229 33 471q50 145 164 245q69 56 131 78q77 25 151 10q45 -9 107 -71q45 -48 98 -131q20 90 49 174l10 24l62 -28q-34 -92 -55 -183l-15 -80q43 -87 43 -127 q-1 -17 -13 -27.5t-28 -10.5q-36 0 -55 32q-23 31 -16 121l-45 80q-60 92 -102 129t-97 37q-90 0 -180 -78q-49 -52 -79 -93.5t-39.5 -60t-27.5 -61.5q-53 -153 -47 -315q5 -118 54.5 -238t140.5 -205q60 -50 101 -70t87 -26q77 -5 129.5 29t87.5 110q48 102 51 277 l-194 -10l-4 65l88 6q122 5 278 19l39 4l8 -68l-40 -4l-95 -6q5 -113 -2 -268q-8 -187 -2 -281z" />
<glyph unicode="H" horiz-adv-x="1142" d="M969 66h78v-66q-121 0 -244 -12h-47l-4 65l47 4l104 6v543q-266 -16 -452 -16h-2q-91 0 -134 2q-4 -323 17 -543q45 0 123 -8l-11 -68q-141 18 -327 0l-6 68q110 8 153 8q-15 137 -17 321t3 332q4 313 -2 461h-58q-66 0 -122 11l10 65q94 -14 289 2l94 8l4 -67l-92 -8 l-58 -5q6 -151 2 -469v-38q175 -10 586 14q-4 302 -16 504h-74q-55 0 -80 2v67q108 -7 289 8h49l4 -69h-49l-72 -4q19 -304 15 -895v-223z" />
<glyph unicode="I" horiz-adv-x="940" d="M868 1245l4 -67q-172 -12 -344 -9q0 -151 13 -532q14 -333 14 -574q96 -2 250 5l4 -68q-133 -8 -317 -4q-273 0 -408 -14l-8 67q137 14 411 14q0 239 -14 572q-12 356 -12 534q-260 0 -389 -8l-4 68q131 8 391 8q251 -4 409 8z" />
<glyph unicode="J" horiz-adv-x="1003" d="M936 1169h-182l-82 -2q0 -142 6 -280q11 -388 -6 -668q-9 -120 -86.5 -185t-192.5 -65q-120 0 -217 58.5t-106 150.5q-7 61 3 117t43 96t85 43l4 -67q-74 -9 -70 -162q6 -57 48 -96.5t95.5 -55.5t112.5 -16q91 0 149 48.5t64 137.5q17 278 6 662q-6 141 -6 282l-293 -6 v68q323 8 625 8v-68z" />
<glyph unicode="K" horiz-adv-x="1163" d="M815 260l139 -199q96 -4 142 -10l-11 -67q-82 10 -200 10q-109 0 -164 6l6 68q57 -7 143 -7l-110 162l-133 193q-93 136 -146 215q-132 -138 -141 -146q0 -283 -6 -428h88v-67q-163 8 -301 -2l-6 65q48 4 151 8q11 275 0 727q-6 190 -6 381q-128 -4 -188 -8l-4 68 q125 9 387 6v-66h-127q0 -191 6 -378l4 -213q109 111 307 350q39 47 106 125t87 102q-78 2 -205 27l14 67q202 -47 402 -16l10 -68q-65 -9 -129 -12q-21 -22 -43 -46t-48.5 -55t-43 -50.5t-50.5 -60t-47 -56.5l-170 -201q79 -123 287 -424z" />
<glyph unicode="L" horiz-adv-x="1173" d="M1036 526l64 -24q-5 -16 0 -152q8 -121 6 -184q-6 -106 -49 -143q-39 -16 -122.5 -24t-184.5 -8t-224 1q-301 0 -440 -6l-4 67q175 6 367 6q42 346 4 955l-13 143h-141q-130 0 -231 8l6 66q143 -11 495 -2q135 6 271 6v-68q-150 0 -267 -8h-63q27 -354 29 -553 q6 -273 -23 -547q418 -4 502 21q15 20 20 90q1 27 -4 176q-10 147 2 180z" />
<glyph unicode="M" horiz-adv-x="1230" d="M616 512l13 37q17 49 47 170q115 408 135 473q9 30 66 35q131 12 286 6v-68q-37 2 -112 2q7 -171 -11 -635q-14 -270 -14 -464h104v-68q-223 0 -301 -2v70h129q0 178 15 467q17 450 10 630q-91 -4 -113 -8q-57 -191 -129 -457q-42 -159 -55 -194q-13 -41 -28.5 -63.5 t-41.5 -22.5q-25 0 -39.5 22.5t-29.5 67.5q-18 51 -60 205q-81 291 -127 444q-18 2 -90 2q10 -57 17 -143q15 -180 4 -436l-10 -170l-11 -168l-6 -193q82 -8 121 -12l-8 -68q-152 19 -303 19v67q84 0 123 -2v39l4 101q1 32 18 313q19 358 -6 567q-2 27 -10 86h-135v68 q17 -1 41.5 -1t88.5 0.5t132 0.5q42 -2 61.5 -7.5t26.5 -21.5l2 -2v-2q70 -232 133 -465q27 -104 51 -180z" />
<glyph unicode="N" horiz-adv-x="1253" d="M1180 1229l6 -68q-74 -8 -207 -4q2 -85 3 -314.5t-1 -418.5q-7 -179 -14 -250q-8 -68 -18 -99t-29 -40q-22 -16 -48 4q-22 15 -114 156q-110 171 -185 309q-130 219 -251 481q6 -153 10 -459q4 -309 12 -463q74 0 166 -10l-8 -67q-129 11 -227.5 9.5t-155.5 -7.5v67 q30 6 157 6q-8 153 -12 465q-4 429 -20 641q-80 0 -176 7l4 67q128 -8 331 -8v-68h-84q85 -231 310 -624q181 -316 262 -422q18 80 22 332q2 180 1 408.5t-3 299.5q-123 8 -211 8v68q92 0 181 -6q199 -8 299 0z" />
<glyph unicode="O" horiz-adv-x="1161" d="M596 1262q51 0 103.5 -12t108.5 -38.5t108 -76t90 -117.5q102 -175 86 -426q-15 -242 -146 -422q-147 -195 -368 -195q-123 0 -237 59.5t-187 188.5q-102 182 -84 422q22 250 153 422q69 91 166 143t207 52zM596 1194q-190 0 -320 -168q-120 -157 -139 -387 q-16 -220 74 -383q61 -103 156.5 -158t210.5 -55q187 0 313 168q118 155 133 387q16 225 -76 387q-126 209 -352 209z" />
<glyph unicode="P" horiz-adv-x="1169" d="M78 1161l-10 68q406 63 667 -4q232 -56 324 -205q47 -78 41.5 -167t-62.5 -167q-85 -115 -241 -160q-163 -48 -348 -4v-4q12 -294 12 -450q157 4 262 -27l-16 -64q-82 22 -185.5 24t-191.5 -7q-114 -8 -176 -8v67q17 0 239 10q0 157 -12 451q-16 450 -6 676 q-123 -3 -297 -29zM442 1192q-10 -252 4 -600q186 -45 332 -2q137 43 205 135q93 134 18 260q-77 125 -282 174q-123 30 -277 33z" />
<glyph unicode="Q" horiz-adv-x="1124" d="M846 -221l-15 2q-55 7 -93.5 65.5t-59.5 143.5q-59 -19 -115 -19q-129 0 -253 77t-187 218q-80 184 -45 406q39 241 184 405q162 185 391 185q135 0 225.5 -61t137.5 -204q62 -175 33 -413q-27 -245 -148 -418q-66 -96 -158 -148q11 -64 39 -116.5t60 -55.5q34 -3 73 76 l62 -28q-56 -115 -131 -115zM653 1194q-197 0 -340 -162q-132 -148 -168 -370q-35 -204 39 -369q56 -124 162.5 -189t216.5 -65q160 0 283 166q109 156 137 387q25 219 -31 385q-23 68 -56 113.5t-74.5 67t-80 29t-88.5 7.5z" />
<glyph unicode="R" horiz-adv-x="1140" d="M102 1163l-14 66q321 62 543 6q198 -47 284 -176q45 -75 43 -152t-47 -141q-57 -84 -176 -129q31 -34 51.5 -72.5t31 -87t15 -83.5t9.5 -95q4 -51 7 -78.5t12 -63.5t24 -59q41 -70 182 -59l6 -70q-110 0 -162.5 22t-83.5 72q-18 28 -29.5 71.5t-14.5 70t-9 88.5 q-5 62 -9 93t-15.5 80.5t-34 84.5t-56.5 63q-61 -12 -133 -12q-93 0 -174 16v-110q-10 -238 -10 -442q67 0 123 -11l-12 -65q-81 15 -222 0q-86 -8 -163 -8v67q37 -1 157 8l49 4q0 187 11 449q13 479 4 680q-87 -9 -187 -27zM356 1194q8 -171 0 -508q174 -34 314 0 q127 37 186 119q34 50 35 107t-33 110q-66 104 -242 147q-118 28 -260 25z" />
<glyph unicode="S" horiz-adv-x="976" d="M774 1243l68 -14q-2 -11 -3.5 -24t-2.5 -24.5t-0.5 -29t1 -28.5t2.5 -32l3 -31.5t3.5 -34.5t3.5 -32t4.5 -34.5t4.5 -32.5q1 -17 -7 -27t-17 -12q-30 -4 -41 22q-76 176 -191 240q-96 52 -205 25q-105 -29 -172 -111q-69 -81 -59 -168q9 -87 108 -145q125 -73 365 -82 q128 -6 199 -80q65 -65 71 -174q9 -142 -88 -273q-49 -67 -118.5 -109.5t-147.5 -54.5q-159 -23 -281 48q-62 37 -108 96l8 -90l-68 -6q-12 178 -30 268l-6 24q-5 28 6 41l14 17l21 -6q19 -6 28 -41l4 -19q13 -48 48.5 -107t89.5 -100q110 -81 264 -57q133 18 223 135 q80 110 74 232q-4 86 -58.5 135.5t-148.5 52.5q-252 9 -393 90q-129 76 -142 199q-13 113 72 217q82 97 207 133q136 35 256 -31q75 -42 137 -123q-7 105 2 158z" />
<glyph unicode="T" horiz-adv-x="1093" d="M166 696l-68 4q2 29 -14 174q-11 98 -14.5 150.5t-0.5 99t17 68.5q14 23 78 37q138 24 430 33q303 0 346 -25q67 -47 82 -227q8 -57 1 -209t-7 -156h-68q0 4 7 155t-1 204q-11 145 -53 176q-36 19 -332 12q-4 -158 11 -438q7 -159 9.5 -240t-1 -217t-17.5 -240 q198 11 213 11v-68q-62 0 -258 -14q-253 -18 -323 -11v68q84 -5 299 8q15 103 18.5 241t1 215.5t-9.5 242.5q-15 271 -10 442q-304 -14 -361 -41q-13 -21 11 -268q16 -156 14 -187z" />
<glyph unicode="U" horiz-adv-x="1251" d="M1157 1262l27 -62q-93 -40 -195 -43q4 -251 8 -373q6 -200 6.5 -341.5t-22 -238t-74.5 -149.5q-80 -80 -252 -80q-115 1 -185.5 24.5t-117.5 74.5q-84 90 -98 286q-9 137 8 455q11 308 12 369q-110 3 -192 -15l-14 68q102 22 282 10q39 -2 119 -2v-67q-20 0 -62 1t-65 1 q-1 -67 -12 -367q-15 -330 -8 -440q12 -181 79 -252q72 -75 240 -78q158 -3 217 59q59 59 74 224q9 123 -2 456q-4 119 -8 377q-88 5 -181 27l17 67q246 -57 399 9z" />
<glyph unicode="V" horiz-adv-x="1069" d="M1001 1167h-129q-38 -132 -131 -520q-82 -340 -112 -450q-20 -76 -47 -150q-28 -78 -66 -78q-34 0 -59 62q-16 44 -33 112q-12 49 -78 355q-89 454 -156 665q-70 3 -122 11l8 65q108 -13 319 -2l4 -68h-14q-62 -6 -123 -6q63 -214 152 -651q47 -233 69 -326 q17 -74 33 -120q9 18 55 176q18 68 57 226.5t48 195.5q91 380 127 501q-136 -4 -174 -4v68q48 0 186.5 3t185.5 3v-68z" />
<glyph unicode="W" horiz-adv-x="1265" d="M1198 1239v-68h-145q-42 -209 -109 -714q-6 -37 -22.5 -153t-24.5 -163q-12 -81 -20 -114.5t-16.5 -44.5t-26.5 -11q-19 0 -29 18t-23 68q-16 62 -37 154q-76 318 -96 391q-30 -90 -82 -280q-12 -39 -34 -114.5t-31 -105.5q-9 -29 -15 -45t-16 -34t-22.5 -25.5 t-28.5 -7.5q-9 2 -16.5 7t-12.5 15t-9 18.5t-7.5 23.5t-5 23t-4 25t-3.5 21q-11 58 -38 258q-68 536 -140 780h-116v68h311v-68h-125q28 -97 56.5 -252.5t41 -239.5t39.5 -280q12 -99 41 -278q19 48 70 229q82 286 116 373q-20 70 -49 147l64 23q71 -190 178 -656l18 -82 q22 138 48 322q70 511 106 702h-119v68q2 0 44.5 0.5t92.5 1t107.5 1t89.5 -0.5z" />
<glyph unicode="X" horiz-adv-x="1132" d="M1051 1161h-131q-110 -242 -297 -577l73 -123q132 -213 222 -377q70 -6 147 -21l-12 -65q-108 22 -328 22v68h113q-30 53 -199 338l-55 92q-84 -149 -256 -432l-17 -29q78 -3 129 -14l-12 -66q-103 18 -360 15v67h168q5 10 17 31t17 31q202 335 275 463 q-200 333 -305 594h-172v67q122 3 206.5 0.5t149.5 -16.5l-14 -66q-54 10 -97 13q94 -225 269 -525q151 266 264 512q-70 3 -141 15l12 67q15 -3 29.5 -5.5t32 -4t30.5 -2.5t35 -2t34 -1.5t40 -0.5h39.5h46h47.5v-68z" />
<glyph unicode="Y" horiz-adv-x="1116" d="M637 1196l16 66q48 -11 111.5 -17t104.5 -6t105.5 1t74.5 1v-67q-5 0 -49 -1.5t-99 -1.5q-60 -162 -164 -352q-87 -162 -131 -201v-569q94 2 191 2v-67q-23 0 -143.5 -2t-145.5 -2q-160 0 -272 20l12 66q109 -19 291 -19v563q-28 23 -78 125q-29 55 -119 248 q-84 183 -90 195q-94 -3 -172 -17l-12 68q47 9 104 13t96 3.5t97 -1.5t77 -1v-67q-83 0 -114 2q11 -24 75 -168q62 -133 109 -228q38 -78 57 -104q48 60 119 192q88 167 141 301q-106 3 -192 25z" />
<glyph unicode="Z" horiz-adv-x="974" d="M592 -2l196 2q17 0 27 10q18 15 21 64q7 74 -11 297l-67 -6q18 -202 10 -297l-176 -2q-33 0 -146 -1t-185.5 -0.5t-110.5 3.5q103 199 228.5 381t313.5 428q116 152 209 280q14 21 0 41q-8 14 -33.5 21.5t-93.5 13.5q-103 7 -219 10q-315 4 -403 -14q-44 -7 -50 -37 q-30 -157 -30 -410h67q0 227 27 381q115 17 340 13q223 -3 313 -17q-33 -46 -95.5 -128.5t-84.5 -112.5q-197 -257 -328.5 -450t-238.5 -405q-9 -19 2 -36q12 -21 76 -27q42 -3 117 -3.5t185.5 0.5t139.5 1z" />
<glyph unicode="[" horiz-adv-x="382" d="M346 -182v-68q-40 0 -98 -4q-20 -2 -58 -2q-56 0 -81 25q-36 36 -39 131q-3 45 4 270q16 618 4 1176q0 45 28 73q32 28 97.5 30t115.5 -9q37 -6 64 -6v-68q-29 0 -72 6q-130 20 -159 -4q-7 -7 -7 -20q12 -558 -4 -1180q-6 -152 -4.5 -243t17.5 -107q13 -11 90 -4 q54 4 102 4z" />
<glyph unicode="\" horiz-adv-x="847" d="M784 -186l64 20q-48 154 -128.5 332t-138 287t-167.5 307q-95 171 -132.5 240t-106 208t-112.5 250l-63 -24q66 -165 150.5 -329.5t203.5 -377.5q81 -146 124.5 -227t109 -210t113 -244.5t83.5 -231.5z" />
<glyph unicode="]" horiz-adv-x="444" d="M225 -236l27 -2q41 0 53 27q25 64 37.5 250.5t10.5 336t-3 220.5q-8 116 -9.5 217.5t4.5 191.5t9.5 127t12.5 111q11 70 9.5 111.5t-22.5 64.5q-23 23 -69 26t-129 -5l-86 -6l4 -68l86 6q76 6 112 6l33 -6q4 -3 4 -26q0 -30 -10 -95q-8 -71 -12 -112.5t-9.5 -131t-4 -194 t9.5 -223.5q3 -73 3.5 -210t-9.5 -309t-29 -241q-24 0 -107 10q-115 12 -141 8l10 -67q9 2 123 -8q74 -9 92 -9z" />
<glyph unicode="^" horiz-adv-x="704" d="M578 819l59 35l-76 131q-71 128 -108 180q-17 22 -30.5 36t-35.5 27t-45 13q-57 0 -125 -88q-46 -61 -149 -242l59 -34q160 297 215 297q20 0 55 -50q32 -43 105 -172z" />
<glyph unicode="_" horiz-adv-x="1021" d="M-2 -225h53q491 21 973 0v67q-528 23 -977 0h-49v-67z" />
<glyph unicode="`" horiz-adv-x="380" d="M256 1229l57 35q-86 142 -190 286l-55 -39q111 -155 188 -282z" />
<glyph unicode="a" horiz-adv-x="1032" d="M922 135l43 -51q-100 -84 -170 -84q-107 0 -123 162q-40 -63 -86 -103q-110 -90 -262 -90q-108 6 -177 66q-79 64 -79 166q0 124 96 172q26 13 65.5 22t66.5 12.5t87 10.5q203 23 299 53q12 95 -14.5 160.5t-100.5 107.5q-68 37 -152.5 37t-146.5 -39q-91 -60 -86 -168 h-67q-6 150 118 226q77 47 179.5 48.5t187.5 -44.5q54 -29 89 -71t47.5 -86t16.5 -92.5t-3 -90.5q-19 -178 -17 -238q5 -134 45 -149q41 -23 144 63zM676 397q-89 -23 -285 -47q-151 -15 -196 -39q-60 -28 -60 -110q0 -66 55 -115q51 -43 136 -49q122 -6 215 74 q112 95 135 286z" />
<glyph unicode="b" horiz-adv-x="1040" d="M68 1151l4 68q20 0 98 12q115 19 154.5 21t62.5 -15q15 -15 12 -35q-12 -133 -12 -469q174 109 301 109q136 0 213 -109q47 -68 64 -169.5t0 -215.5q-17 -113 -63.5 -202.5t-110.5 -133.5q-93 -68 -209 -26q-100 39 -181 135q0 -111 -2 -129l-67 8q2 13 -2 287 q-19 644 0 897q-46 0 -150 -19q-91 -16 -112 -14zM399 289v-56q106 -149 205 -186q81 -27 148 19q53 39 92.5 117t52.5 175q15 101 2 190t-53 146q-59 80 -156 80q-126 0 -301 -123q4 -255 10 -362z" />
<glyph unicode="c" horiz-adv-x="894" d="M729 545h68q6 139 -88 221q-81 75 -213 84q-149 9 -275 -70q-66 -43 -105.5 -106.5t-45.5 -138.5q-16 -221 73 -365q85 -136 230 -178q63 -17 110 -17q71 0 144 29q132 54 200 184l-59 31q-55 -107 -166 -153q-103 -42 -209 -11q-121 38 -192 150q-79 133 -64 323 q10 123 121 195q100 65 234 59q110 -9 172 -65q71 -65 65 -172z" />
<glyph unicode="d" horiz-adv-x="974" d="M471 1174l4 67q15 -2 53.5 2t75 9t72.5 2.5t51 -15.5q45 -42 48 -177t-21 -345q-1 -12 -6 -71t-6 -71t-5.5 -70.5t-4 -69t-2 -66t0.5 -62.5q3 -192 64 -244q34 -26 94 -8l18 -65q-45 -13 -83.5 -9.5t-71.5 29.5q-47 38 -68 119q-52 -86 -116 -117.5t-144 -31.5 q-250 0 -332 219q-33 107 -21 220.5t69.5 220t142.5 165.5q94 66 206 57q104 -9 205 -82q1 10 2 32q6 70 8.5 111.5t4 105t-5 102.5t-19.5 55q-22 4 -109.5 -5t-103.5 -7zM668 242l-4 63q-4 136 22 395q-103 86 -203 95q-89 6 -164 -45q-110 -76 -159.5 -237t-3.5 -290 q32 -93 112 -137.5t193 -36.5q75 5 120.5 54.5t86.5 138.5z" />
<glyph unicode="e" horiz-adv-x="886" d="M735 197l62 -27q-50 -114 -183 -170q-127 -49 -252 -16q-136 30 -215 139q-88 119 -79 303q12 209 133 324q106 106 260 100q145 -3 250 -111q111 -114 108 -295q0 -18 -12 -30q-35 -29 -191 -29q-53 -1 -257.5 3.5t-223.5 4.5q0 -138 66 -229q69 -91 176 -115 q109 -27 213 14q102 41 145 134zM459 782q-125 6 -211 -80q-91 -88 -109 -241q10 0 213 -4.5t252 -3.5q116 0 148 8q-3 140 -88 231q-87 87 -205 90z" />
<glyph unicode="f" horiz-adv-x="962" d="M150 754l-17 65q90 22 205 12l6 156q6 125 109 201q94 71 211 65q101 -6 165 -73q72 -78 66 -205h-68q6 102 -47 158q-44 49 -121 53q-92 3 -165 -51q-77 -60 -82 -152l-6 -158q109 -11 192 4l12 -65q-74 -14 -207 -6q-10 -361 3 -692h16q30 0 89 1t89 1v-68 q-39 0 -160.5 -2t-220 -2t-151.5 4v68q113 -5 270 -5q-12 322 -2 701q-107 10 -186 -10z" />
<glyph unicode="g" horiz-adv-x="1021" d="M954 713l-53 -41q-50 62 -90 59q-45 -3 -92 -69q32 -43 51.5 -98.5t11.5 -110.5q-15 -90 -102 -156q-48 -35 -145 -35q-16 0 -133.5 9t-157.5 3q-35 -60 -41 -127q-3 -55 12 -127q118 48 291 48q122 0 223 -29q112 -34 162 -102q52 -73 22 -173q-30 -103 -165 -163 q-114 -54 -263 -54q-109 0 -200 31q-101 35 -156 96q-75 81 -59 197l14 53q29 42 70 66q-47 192 32 321q-42 209 -10 353q35 129 137 167q112 42 246 -30q68 -37 115 -86q66 81 133 84q76 3 147 -86zM242 645q-29 -117 8 -303q29 2 44.5 2t59.5 -2.5t62 -3.5q61 -9 129 -8 t94 20q67 52 76 113q9 56 -27 123q-53 97 -162 155q-108 57 -188 29q-72 -28 -96 -125zM145 -104l-10 -35q-9 -84 43 -142q44 -49 125.5 -76.5t181.5 -27.5q133 0 236 47q105 45 129 125q21 65 -12 109q-35 49 -123.5 76.5t-208.5 27.5q-123 0 -224.5 -29t-136.5 -75z" />
<glyph unicode="h" horiz-adv-x="1089" d="M1016 59l6 -67q-184 -22 -313 4l12 65q40 -8 115 -12q34 307 10 498q-24 198 -107 237q-60 27 -151 -22q-109 -57 -260 -221v-179q4 -180 4 -299h98l-4 -67q-218 8 -317 -12l-15 65q78 17 170 17q0 116 -4 296q0 45 -1 142t-1 149q0 9 4 103q11 195 12 258q0 127 -12 157 q-21 2 -99 0t-95 0l10 68q4 -1 108.5 2t114.5 -12q41 -28 41 -203q0 -40 -12 -274q-4 -86 -4 -113q120 123 229 182q125 65 213 25q59 -26 98 -109q35 -72 47 -182q24 -197 -10 -504q79 5 113 8z" />
<glyph unicode="i" horiz-adv-x="827" d="M457 1083l-2 -4q26 -13 26 -59q-3 -31 -21.5 -50.5t-39.5 -19.5q-32 0 -52.5 39.5t-5.5 71.5q11 23 39.5 28.5t55.5 -6.5zM760 68v-68q-28 -2 -85 -5t-85 -5q-298 -15 -361 -15q-68 0 -161 7l4 67q121 -9 325 -2q-28 199 17 494q10 67 14 97.5t1.5 65.5t-17.5 50 q-46 43 -260 0l-13 65q132 27 207 22.5t113 -40.5q16 -15 25 -38t12 -41.5t0.5 -58.5t-5 -59t-10.5 -74q-44 -270 -18 -479l123 6q28 2 86.5 5.5t87.5 5.5z" />
<glyph unicode="j" horiz-adv-x="710" d="M575 1081l-2 -4q27 -13 27 -59q-3 -34 -22 -53q-17 -17 -37 -17q-16 0 -33 10q-21 16 -29.5 46t2.5 55q12 21 41 28q23 6 53 -6zM117 752v67q36 0 95.5 1t82.5 1q140 5 202 -1.5t97 -41.5q39 -41 46.5 -135.5t-1.5 -269.5q0 -16 -3.5 -120.5t-4.5 -172.5 q-1 -98 -7.5 -163.5t-32.5 -139.5t-73 -119q-77 -74 -209 -74h-10q-55 1 -98 15t-66.5 33t-39 44.5t-21 44t-6.5 37.5q-6 67 26 133q37 69 84 78q61 9 82 -61l-63 -21q-6 12 -9 15q-21 -7 -38.5 -52.5t-14.5 -82.5q7 -111 166 -115q112 -3 170 55q55 52 72.5 143.5 t19.5 229.5q1 69 4.5 175t3.5 120q8 151 4.5 240t-28.5 114q-22 22 -86.5 26t-163.5 -1q-23 0 -83 -1t-97 -1z" />
<glyph unicode="k" horiz-adv-x="1107" d="M1040 49v-67h-92q-141 0 -213 4l4 65h43l-49 117q-85 211 -145 307q-153 -156 -287 -303v-102q43 0 107 -9l-9 -65q-87 9 -176 4q-9 0 -34 -1t-42 -1v68q16 0 39.5 1t32.5 1h14q-4 273 25 641q8 111 11.5 168t3 126.5t-11.5 106t-32 53.5q-37 29 -143 0l-18 66 q136 41 204 -12q18 -15 31 -37.5t21 -45.5t11.5 -63.5t5 -70.5t-1.5 -89t-5 -96t-8 -113q-21 -261 -25 -428q283 305 483 488q-68 -4 -108 -8l-8 65q83 11 221 15q26 0 88 4v-68q-58 -4 -86 -4q-115 -101 -256 -242q69 -103 162 -329q20 -54 59 -146h184z" />
<glyph unicode="l" horiz-adv-x="1003" d="M68 1169l14 68q81 -18 324 4q109 10 156 9t63 -19q15 -15 12 -35q-37 -338 -64 -987l-6 -139q187 -3 369 -27l-10 -68q-368 51 -801 5l-8 65q211 25 383 25l6 141q28 656 61 971q-26 2 -155 -8q-92 -8 -129 -10.5t-105 -2.5t-110 8z" />
<glyph unicode="m" horiz-adv-x="1085" d="M1018 -12l-6 67q-8 -1 -25 -2t-26 -2q-3 70 0 160q0 243 -13 344q-27 197 -123 244q-110 52 -290 -88q-38 92 -101 114q-59 18 -129 -28q-48 -35 -100 -99q-15 79 -51 115q-35 38 -86 35v-68q25 0 36 -14q46 -46 46 -225q2 -105 -21 -334q-2 -26 -6.5 -75.5t-5.5 -70.5 q-22 -4 -49 -6l8 -67q14 2 46 4.5t58 5.5q4 0 19 1t26 1v68q-10 0 -23.5 -1t-17.5 -1q2 41 13 135q22 226 18 340v59q71 99 129 141q43 27 70 21q35 -12 59 -80q25 -71 37 -182q19 -168 14 -406v-35l-20 2l-8 -67q74 -8 82 -8q18 0 77 12l-12 65q-30 -3 -51 -8v39 q5 241 -14 412q-6 54 -23 135q166 134 240 96q65 -30 86 -192q12 -87 12 -334q-3 -85 0 -158l-31 2l-6 -67l88 -6q26 0 74 6z" />
<glyph unicode="n" horiz-adv-x="1089" d="M76 774l-8 68q111 15 178 -49q67 -65 84 -211q325 301 491 219q68 -35 103 -127q26 -73 32 -195q10 -142 -22 -420h88v-67q-174 0 -303 -17l-10 66q70 11 155 14q35 268 27 420q-13 221 -100 266q-19 10 -44 11.5t-65 -10.5t-88 -39.5t-115.5 -80.5t-144.5 -128 q2 -76 -17 -299q-10 -118 -10 -127q49 3 101 0l-5 -68q-141 6 -305 -35l-16 66q86 21 158 30q2 33 10 140q9 100 12.5 157.5t3.5 146t-17 147.5t-50 91q-43 43 -123 31z" />
<glyph unicode="o" horiz-adv-x="999" d="M508 850q92 0 192 -41q135 -46 195 -176q53 -115 31 -262q-28 -162 -138 -275q-125 -125 -299 -125q-99 0 -206 43q-133 59 -187 195q-47 119 -16 262q31 153 143 262q123 117 285 117zM678 745h-2q-84 37 -168 37q-135 0 -238 -98q-98 -95 -125 -227q-26 -125 15 -224 q41 -106 149 -157q93 -37 180 -37q149 0 250 104q97 97 119 240q21 122 -24 221q-47 103 -156 141z" />
<glyph unicode="p" horiz-adv-x="1026" d="M74 756l-6 67q18 5 59 25q31 14 49 21.5t37 12.5t31.5 3.5t23.5 -8.5q36 -24 43 -119q137 58 262 61q134 6 232 -61q86 -57 122.5 -158.5t30.5 -228.5q-12 -202 -118 -305q-86 -86 -219 -86q-164 6 -277 104q-46 43 -68 78q-9 -98 0 -342l7 -154h120v-67q-214 0 -288 -13 l-11 68q62 10 111 10q-1 17 -1.5 48.5t-1.5 57t-3 48.5q0 15 -2.5 76t-2.5 83.5v71.5t3 92.5t8 94.5q26 238 31 335q9 204 -15 246q-12 -3 -75.5 -31t-81.5 -30zM295 324q-3 -107 94 -189q94 -82 217 -88q112 -4 187 66q86 86 98 262q14 239 -125 327q-79 55 -197 50.5 t-254 -66.5q2 -87 -20 -362z" />
<glyph unicode="q" horiz-adv-x="935" d="M711 827l67 -8q-11 -110 -11.5 -247.5t3.5 -222.5t14 -249q19 -264 19 -424q106 -4 133 -4v-67q-23 0 -114 5.5t-159 1t-131 -25.5l-20 66q96 33 223 29q0 167 -18 417q-61 -73 -131 -102q-103 -47 -213 -6q-69 23 -130 74.5t-104 121.5q-92 155 -67 330q18 129 112 223 q89 89 207 107q109 15 205 -35q59 -33 109 -92zM698 596q-54 110 -135 156q-76 42 -162 26q-94 -12 -170 -88q-77 -74 -92 -184q-22 -148 58 -285q77 -126 196 -168q92 -29 166 4q92 42 152 150q-13 279 -13 389z" />
<glyph unicode="r" horiz-adv-x="980" d="M80 760l-8 65q16 4 26 4q88 12 124.5 15.5t72 -1t55.5 -22.5q23 -21 27.5 -55t1.5 -104q68 65 166 118q172 94 276 51q119 -51 84 -249l-67 10q15 82 0 129q-11 34 -43 47q-74 31 -215.5 -45t-208.5 -172q-17 -242 -4 -485q170 -6 194 -11l-4 -67q-32 6 -107.5 9.5 t-182.5 -1.5t-183 -23l-16 68q122 25 231 25q-15 277 8 546q11 145 -4 160q-8 8 -49 6q-26 0 -94 -9t-80 -9z" />
<glyph unicode="s" horiz-adv-x="811" d="M743 600l-65 -16q-28 64 -64 103.5t-90 64.5q-91 42 -202 20q-85 -16 -136 -61q-51 -41 -51 -97q0 -86 82 -125q56 -27 211 -47q146 -19 203 -45q107 -46 110 -149q3 -118 -59 -189q-38 -48 -97.5 -69t-111.5 -21q-101 0 -199 56q-66 43 -104 88q0 -53 -10 -125l-66 12 q18 106 -8 281l68 10q21 -75 58.5 -123.5t96.5 -83.5q100 -59 209 -43q75 14 116 67.5t40 139.5q0 21 -7.5 37.5t-25 28.5t-36 21t-52 16.5t-61 12t-74.5 11.5q-160 20 -230 53q-120 58 -120 186q0 78 67 141t174 85q129 24 244 -27q56 -26 104 -74q0 13 5 86l67 -6 q-12 -112 14 -219z" />
<glyph unicode="t" horiz-adv-x="962" d="M797 307l65 12q19 -97 -4 -176.5t-84 -124.5q-58 -43 -130 -45.5t-126 27.5q-79 39 -127 121q-49 91 -49 217q0 178 8 440q-164 7 -270 -12l-12 68q113 19 284 12l8 170q11 232 11 250h67q-2 -69 -10 -252l-8 -174h41q98 -10 213 -9.5t205 21.5l16 -66q-104 -24 -236 -24 q-92 0 -202 10l-39 2q-8 -258 -8 -436q0 -108 41 -182q40 -69 98 -97q87 -38 153 -5.5t91 106.5q19 65 4 147z" />
<glyph unicode="u" horiz-adv-x="1110" d="M1016 72l26 -64q-76 -31 -129 -31q-43 0 -82 27q-41 30 -53.5 88.5t-9.5 149.5q-80 -130 -174 -207q-82 -66 -162 -66q-110 0 -184 125q-48 80 -66 191q-41 219 19 467q-61 0 -133 10l10 67q109 -16 223 -8v-67l-33 -2q-59 -247 -20 -455q19 -102 57 -168q38 -65 86 -84 q72 -27 160 43q111 86 229 309q9 91 11.5 146.5t-9 120.5t-43.5 92q-49 43 -170 16l-14 66q152 37 229 -31q23 -20 39 -47.5t23 -66t11 -68.5t1.5 -83.5t-4.5 -81t-8 -87.5q-6 -69 -8.5 -102t-3 -86.5t8.5 -83.5t27 -44q40 -30 146 15z" />
<glyph unicode="v" horiz-adv-x="1118" d="M1051 831v-67q-50 0 -156 -4q-16 -33 -98 -266q-76 -229 -119 -334q-33 -77 -62 -123q-37 -62 -81 -64q-6 0 -11.5 2t-9.5 6t-6.5 7t-5.5 8l-2 4q-15 26 -129 352q-110 329 -125 402q-43 -2 -178 -2v67q233 0 350 19l10 -68q-59 -9 -113 -12q21 -87 113 -363 q78 -233 121 -338q28 36 72 142q37 91 112 315q73 212 86 242q-114 -4 -172 -4v67q34 0 202 6t202 6z" />
<glyph unicode="w" horiz-adv-x="1124" d="M1049 752l-64 8q-8 -126 -34.5 -256t-71.5 -307q-5 -20 -14 -57t-16.5 -67.5t-12.5 -56.5l6 -16l-64 -27q-21 51 -82 207q-10 25 -27.5 69t-32 81t-28.5 69q-123 -270 -155 -385l6 -30l-66 -15q-45 206 -160 598q-32 108 -53 189l-108 -4l-4 67q132 6 227 6v-67h-45 q11 -43 49 -172q81 -284 123 -447q43 116 151 340q-36 77 -71 137l59 33q84 -148 197 -444l33 -82l22 90q31 118 47.5 189t34.5 175t23 189q-66 8 -97 14l13 66q19 -4 66.5 -9.5t97.5 -11t59 -6.5z" />
<glyph unicode="x" horiz-adv-x="1114" d="M1040 57l7 -67q-33 -3 -197 -8q-96 0 -162 -5l-4 68q62 4 90 4q-121 161 -231 346q-158 -172 -217 -327h65v-68h-323v68h186q33 100 96 192.5t156 196.5q-84 144 -168 311q-145 0 -260 -16l-8 67q142 20 403 17v-68h-57q61 -121 139 -258l43 45q11 12 49 53t55.5 60.5 t45 52t47.5 59.5q-64 -6 -119 -26l-25 63q43 17 99 25.5t91.5 9t91 -1.5t64.5 -2v-68l-131 2l8 -4q-67 -100 -227 -268l-57 -61q136 -229 268 -400q151 5 182 8z" />
<glyph unicode="y" horiz-adv-x="1017" d="M940 831l10 -67q-16 -3 -35 -5t-46.5 -4.5t-47.5 -4.5q-49 -123 -168 -465q-48 -141 -72.5 -208.5t-62 -154t-74.5 -147.5q-31 -51 -81.5 -87t-100.5 -36q-70 0 -119 74q-37 58 -55 165l68 11q12 -80 36.5 -127.5t57.5 -53.5q28 -5 68.5 19.5t68.5 69.5q60 102 125 274 q-58 145 -117 283q-101 240 -153 387q-85 -9 -174 -2l8 67q83 -9 215 6q82 10 100 11l4 -68q-15 -1 -43 -4t-41 -4q50 -138 148 -369q43 -102 86 -211l45 125q119 341 155 436q-60 -7 -106 -20l-18 63q87 24 213 35q54 3 106 12z" />
<glyph unicode="z" horiz-adv-x="935" d="M797 289h67q0 -101 4 -146v-147l-202 4q-137 8 -293.5 3t-278.5 -34l-26 62q144 65 321 262q110 124 293 375l63 84h-116q-106 -4 -162 -4q-125 0 -217 14q2 -70 2 -211v-53h-68v53q0 151 -4 227l-30 10l24 64q73 -28 208 -34t245 1q191 4 239 0l-4 -67l-33 2 q-61 -82 -92 -127q-186 -256 -297 -379q-107 -119 -192 -185q147 13 420 5l131 -5v78q-2 47 -2 148z" />
<glyph unicode="{" horiz-adv-x="425" d="M381 -121l8 -67q-185 -27 -256 61q-55 67 -37 201q12 76 60 221q30 92 39 131q2 13 3 23t1 16t-0.5 10t-0.5 6l-1 2q-70 52 -99.5 86.5t-29.5 63.5q0 25 15.5 42t45.5 36q14 10 20 14t18.5 15t18 19t13 22.5t10 29t2.5 35.5t-4 45q-9 55 -51 133q-47 100 -54 135 q-16 85 23 164q45 97 127 125q82 31 174 -14l-29 -62q-64 34 -123 12q-55 -18 -90 -90q-15 -32 -18.5 -62.5t5 -62.5t18 -54t28.5 -60q47 -97 57 -152q5 -29 6 -54.5t-3.5 -46.5t-10 -38t-17 -32.5t-19 -25.5t-22.5 -21.5t-21.5 -16.5t-20.5 -15q-27 -16 -31 -22 q7 -22 103 -94q38 -29 24 -115q-4 -21 -41 -148q-21 -63 -32.5 -103t-23 -95.5t-6.5 -95t25 -64.5q49 -58 197 -37z" />
<glyph unicode="|" horiz-adv-x="358" d="M156 -102h67q0 110 -10 495q-7 214 -9.5 325.5t1.5 291t18 321.5l-67 6q-21 -206 -21 -471.5t10 -474.5q11 -423 11 -493z" />
<glyph unicode="}" horiz-adv-x="397" d="M51 -145l10 -68q106 18 164 59q81 57 99 154q3 21 3.5 41t-3 38t-7.5 33.5t-12.5 32.5t-15 28.5t-18.5 27.5t-18.5 24.5t-19.5 24.5q-1 2 -9 12t-9.5 12.5t-8.5 11.5t-9 12.5t-7.5 11.5t-7.5 12.5t-6.5 12t-6.5 13.5t-4.5 13t-4.5 14q-10 36 12.5 64t77.5 69 q33 23 43.5 31.5t24.5 28.5t12 40q-2 43 -70 80q-71 38 -76 84q-2 34 41 129q25 54 45 117t32.5 135t2.5 138.5t-45 107.5q-81 91 -260 35l18 -66q139 44 191 -14q45 -50 29 -187q-20 -126 -74 -239q-12 -26 -16.5 -36.5t-14 -35t-11.5 -36t-5 -33.5t1 -34.5t10.5 -31.5 t20 -32.5t33.5 -29.5t47 -30q28 -14 33 -25q-3 -5 -51 -41q-6 -4 -22 -16.5t-24.5 -19.5t-20.5 -18.5t-21 -23.5q-47 -59 -29 -129q7 -27 23.5 -56t28.5 -45.5t36 -45.5q31 -40 45 -61.5t25 -59t4 -76.5q-10 -66 -60 -104t-145 -53z" />
<glyph unicode="~" horiz-adv-x="858" d="M750 647l41 -53q-110 -82 -213 -82q-61 0 -166 41q-37 15 -57 21.5t-53 11.5t-58.5 -2t-60 -27t-70.5 -55l-45 49q38 37 73.5 61t70 32.5t60 12t60 -5t52 -14t52.5 -19.5q89 -38 142 -38q85 0 172 67z" />
<glyph unicode="&#xa1;" d="M88 678q-39 39 -8 88q26 40 49 63t49 23q31 0 46 -28.5t9 -78.5q-10 -69 -49 -81q-22 -14 -49 -10t-47 24zM199 446h-68q0 -307 2 -366q5 -332 -8 -486l68 -6q13 159 8 494q-2 59 -2 364z" />
<glyph unicode="&#xa9;" horiz-adv-x="1232" d="M596 1253q137 0 271.5 -81.5t213.5 -235.5q112 -206 76 -455q-28 -214 -160 -356q-144 -156 -364 -156q-140 0 -265.5 57.5t-205.5 184.5q-108 166 -92 412q9 119 50 231.5t107 198.5q153 200 369 200zM596 1186q-91 0 -173 -46.5t-142 -127.5q-60 -78 -98.5 -183 t-45.5 -213q-15 -215 82 -370q46 -74 129 -131q122 -78 285 -78q188 0 315 133q117 127 142 319q15 108 -3 216q-19 115 -65 200q-67 129 -181 205t-245 76zM782 492h68q0 -181 -166 -187q-98 0 -197 76q-111 87 -120 199q-10 94 36 172q42 73 115 116q59 41 125 50 q72 6 121 -23q88 -56 76 -190l-68 4q9 97 -43 129q-31 19 -79.5 11.5t-96.5 -36.5q-56 -37 -92 -95.5t-29 -129.5q10 -87 96 -154q80 -64 164 -61q90 3 90 119z" />
<glyph unicode="&#xab;" horiz-adv-x="813" d="M381 125l45 51q-156 135 -223.5 209t-67.5 117q-1 27 25.5 57t103.5 100q109 95 172 160l-49 47q-60 -62 -168 -157q-46 -41 -64.5 -59t-44 -46.5t-34.5 -52t-8 -49.5q0 -62 66.5 -140t246.5 -237zM659 143l43 52l-73 61q-68 56 -98.5 81.5t-67.5 60t-50 55t-12 36.5 q0 28 40.5 67t146.5 124q101 78 157 127l-45 51q-73 -63 -153 -125q-46 -37 -65.5 -53t-51 -43t-44 -41.5t-27.5 -34.5t-20 -37t-5 -35q-1 -52 46.5 -103t188.5 -167q4 -3 6 -5t5 -4.5t6 -4.5z" />
<glyph unicode="&#xad;" horiz-adv-x="786" d="M68 666v-68q111 0 329 12q260 15 322 15v67q-79 0 -326 -14q-212 -12 -325 -12z" />
<glyph unicode="&#xb7;" d="M215 719q39 -39 8 -88q-26 -40 -49 -63t-49 -23q-31 0 -46 28t-9 78q10 70 49 82q22 14 49 10t47 -24z" />
<glyph unicode="&#xbb;" horiz-adv-x="679" d="M293 184l47 -49q161 157 204 211q63 76 68 137q2 23 -1.5 44.5t-18.5 49.5t-26.5 47t-44.5 57.5t-52 60t-68 75.5l-43 47l-49 -45l43 -47q62 -67 88 -97t57 -70.5t40.5 -66t7.5 -49.5q-3 -31 -35 -76t-69 -83t-129 -127q-12 -13 -19 -19zM68 246l47 -49 q125 121 173.5 184t49.5 125q3 61 -41.5 126t-163.5 199l-51 -45q104 -114 146.5 -174t41.5 -104q0 -45 -43.5 -98t-158.5 -164z" />
<glyph unicode="&#xbf;" horiz-adv-x="866" d="M451 819q39 -39 8 -88q-26 -40 -49.5 -63t-49.5 -23q-31 0 -46 28.5t-9 78.5q10 70 49 82q22 14 49.5 9.5t47.5 -24.5zM731 0l68 -6q-19 -158 -131 -279t-248 -143q-96 -18 -180 29q-89 47 -142 159q-57 114 -10 209q6 11 12.5 21.5t16 21.5t16 18t20 20t18.5 17.5 t21.5 19t20.5 17.5q46 39 68.5 61t53 63t40.5 88.5t4 105.5l67 10q7 -58 -3 -110.5t-25.5 -87.5t-48 -73.5t-53.5 -57.5t-60 -52q-84 -69 -106 -112q-33 -63 10 -150q43 -90 114 -131q62 -32 134 -20q116 19 210 124q98 112 113 238z" />
<glyph unicode="&#x2000;" horiz-adv-x="775" />
<glyph unicode="&#x2001;" horiz-adv-x="1550" />
<glyph unicode="&#x2002;" horiz-adv-x="775" />
<glyph unicode="&#x2003;" horiz-adv-x="1550" />
<glyph unicode="&#x2004;" horiz-adv-x="516" />
<glyph unicode="&#x2005;" horiz-adv-x="387" />
<glyph unicode="&#x2006;" horiz-adv-x="258" />
<glyph unicode="&#x2007;" horiz-adv-x="258" />
<glyph unicode="&#x2008;" horiz-adv-x="193" />
<glyph unicode="&#x2009;" horiz-adv-x="310" />
<glyph unicode="&#x200a;" horiz-adv-x="86" />
<glyph unicode="&#x2010;" horiz-adv-x="786" d="M68 666v-68q111 0 329 12q260 15 322 15v67q-79 0 -326 -14q-212 -12 -325 -12z" />
<glyph unicode="&#x2011;" horiz-adv-x="786" d="M68 666v-68q111 0 329 12q260 15 322 15v67q-79 0 -326 -14q-212 -12 -325 -12z" />
<glyph unicode="&#x2012;" horiz-adv-x="786" d="M68 666v-68q111 0 329 12q260 15 322 15v67q-79 0 -326 -14q-212 -12 -325 -12z" />
<glyph unicode="&#x2013;" horiz-adv-x="1157" d="M80 670l-12 -68q135 -27 286 -27q113 0 445 31q35 3 95 8.5t107.5 9t88.5 5.5l-5 67q-85 -4 -292 -24q-168 -16 -257 -22t-223.5 -3.5t-232.5 23.5z" />
<glyph unicode="&#x2014;" horiz-adv-x="1554" d="M70 647v-67q231 10 692 10q483 0 723 12v68q-262 -13 -725 -13q-461 0 -690 -10z" />
<glyph unicode="&#x2018;" horiz-adv-x="256" d="M147 1229h-67q0 -40 -6 -96q-4 -59 -5 -79t-1.5 -71t4 -76.5t15 -56.5t28.5 -49q29 -29 71 -29v68q-16 0 -24 8q-25 30 -27 110q-2 58 6 170q6 62 6 101z" />
<glyph unicode="&#x2019;" horiz-adv-x="253" d="M100 819h68q0 22 8 96q5 58 6.5 79t2.5 71.5t-3 76t-14 56.5t-27 49q-28 31 -73 31v-68q16 0 24 -8q25 -30 25 -110q1 -40 -8 -170q-9 -92 -9 -103z" />
<glyph unicode="&#x201a;" horiz-adv-x="1228" d="M162 0l-62 31q35 66 84 55q28 -4 48 -33.5t26 -72.5q9 -73 -30.5 -148.5t-133.5 -116.5l-26 62q50 22 79.5 58.5t36 62t6.5 49.5q2 46 -16 71q-8 -8 -12 -18z" />
<glyph unicode="&#x201c;" horiz-adv-x="579" d="M147 1231h-67q2 -38 -6 -123q-9 -136 -4 -184q9 -100 69 -166l49 45q-20 21 -32 50t-17 52t-5 64t1.5 62t5.5 71q8 87 6 129zM471 1229h-68q0 -40 -6 -96q-4 -59 -5 -79t-1.5 -71t4 -76.5t15 -56.5t28.5 -49q29 -29 72 -29v68q-17 0 -25 8q-24 28 -26 110q-2 58 6 170 q6 62 6 101z" />
<glyph unicode="&#x201d;" horiz-adv-x="577" d="M424 801h68q0 37 8 123q12 120 8 182q-9 103 -68 168l-49 -45q24 -26 36 -58t13.5 -78.5t-0.5 -74t-8 -88.5q-8 -86 -8 -129zM100 807h68q0 22 8 96q5 58 6.5 79t2.5 71.5t-3 76t-14 56.5t-27 49q-28 31 -73 31v-68q16 0 24 -8q25 -30 25 -111q1 -40 -8 -170 q-9 -92 -9 -102z" />
<glyph unicode="&#x201e;" horiz-adv-x="614" d="M162 0l-62 31q35 66 84 55q28 -4 48 -33.5t26 -72.5q9 -73 -30.5 -148.5t-133.5 -116.5l-26 62q50 22 79.5 58.5t36 62t6.5 49.5q2 46 -16 71q-8 -8 -12 -18zM449 0l-62 31q35 66 84 55q28 -4 48 -33.5t26 -72.5q9 -73 -30.5 -148.5t-133.5 -116.5l-27 62 q50 22 79.5 58.5t36.5 62t7 49.5q2 46 -16 71q-8 -8 -12 -18z" />
<glyph unicode="&#x2022;" horiz-adv-x="454" d="M236 840l-3 -21q37 6 74 -10q48 -22 68.5 -67.5t-0.5 -108.5q-49 -123 -139 -123q-17 0 -33 4q-59 15 -103 88q-40 64 -30 133q9 54 51 80q45 28 115 25z" />
<glyph unicode="&#x2026;" horiz-adv-x="958" d="M215 145q39 -39 8 -88q-26 -40 -49 -63t-49 -23q-31 0 -46 28.5t-9 78.5q10 70 49 82q22 14 49 9.5t47 -24.5zM543 145q39 -39 8 -88q-26 -40 -49 -63t-49 -23q-31 0 -46.5 28.5t-9.5 78.5q10 70 49 82q22 14 49.5 9.5t47.5 -24.5zM870 145q39 -39 9 -88 q-26 -40 -49.5 -63t-49.5 -23q-31 0 -46 28.5t-9 78.5q10 70 49 82q22 14 49 9.5t47 -24.5z" />
<glyph unicode="&#x202f;" horiz-adv-x="310" />
<glyph unicode="&#x2039;" horiz-adv-x="546" d="M436 870l43 -51l-155 -127q-55 -43 -81 -64t-56 -48.5t-41 -45t-11 -32.5q0 -16 12.5 -36t51 -55.5t65.5 -58.5t98 -82l76 -63l-45 -51q-59 50 -74 61q-147 121 -199 177t-52 110q0 34 27.5 72t58.5 65t117 96q7 5 10 8q18 15 70 56.5t85 68.5z" />
<glyph unicode="&#x203a;" horiz-adv-x="454" d="M68 184l45 -49q69 66 97.5 94.5t70.5 73t58.5 69t31 54.5t16.5 57q2 23 -1.5 44.5t-18.5 49.5t-26.5 47t-44.5 57.5t-52 60t-68 75.5l-43 47l-51 -45l45 -47q65 -72 87.5 -97.5t55.5 -68.5t42 -68t7 -49q-5 -53 -97 -152q-38 -40 -154 -153z" />
<glyph unicode="&#x205f;" horiz-adv-x="387" />
<glyph unicode="&#xe000;" horiz-adv-x="849" d="M0 850h850v-850h-850v850z" />
</font>
</defs>
</svg>
