<?xml version="1.0" standalone="no"?>
<!DOCTYPE svg PUBLIC "-//W3C//DTD SVG 1.1//EN" "http://www.w3.org/Graphics/SVG/1.1/DTD/svg11.dtd" >
<svg xmlns="http://www.w3.org/2000/svg">
<metadata></metadata>
<defs>
<font id="green_mud_susy_smallcapsRg" horiz-adv-x="649" >
<font-face units-per-em="2048" ascent="1434" descent="-614" />
<missing-glyph horiz-adv-x="512" />
<glyph horiz-adv-x="2048" />
<glyph horiz-adv-x="2048" />
<glyph unicode="&#xd;" horiz-adv-x="2048" />
<glyph unicode=" "  horiz-adv-x="512" />
<glyph unicode="&#x09;" horiz-adv-x="512" />
<glyph unicode="&#xa0;" horiz-adv-x="512" />
<glyph unicode="!" horiz-adv-x="292" d="M70 -2h133v154h-133v-154zM74 341l2 -24l133 13q-13 167 4 551q12 230 12 348h-135q0 -116 -12 -342q0 -11 -1 -34q-15 -341 -3 -512z" />
<glyph unicode="&#x22;" horiz-adv-x="534" d="M68 1337q4 -38 14 -237q0 -37 4 -111l135 6q-4 74 -4 111q-9 169 -14 242zM313 1337q6 -58 15 -237q0 -37 4 -111l135 6q-4 74 -4 111q-9 169 -14 242z" />
<glyph unicode="#" horiz-adv-x="874" d="M68 690v135q28 0 86 1t86 1q28 246 8 402l133 18q23 -167 -6 -418h155q16 225 60 406l131 -31q-36 -151 -57 -377q94 -4 139 -8l-12 -135q-44 4 -136 8l-8 -184q55 -2 160 -10l-12 -136q-126 10 -154 11q-7 -223 -25 -387l-135 14q18 155 25 375q-128 0 -191 -2 q-24 -213 -8 -375l-135 -14q-18 167 6 385h-106v137h123l9 63t9 64l8 59q-25 0 -76 -1t-77 -1zM332 508q59 2 180 2l8 184h-162l-12 -82q-2 -17 -7 -52t-7 -52z" />
<glyph unicode="$" horiz-adv-x="835" d="M68 915q7 225 153 308q61 34 133 37q-3 103 -12 174l135 14q9 -88 12 -207q50 -15 95 -43q71 -44 109.5 -105.5t37.5 -127.5l-135 4q3 61 -84 112q-15 10 -18 11q0 -94 -5 -381q114 -25 179 -88q122 -117 94 -392q-9 -77 -54.5 -138.5t-115.5 -92.5q-57 -24 -113 -27 q5 -85 19 -182l-133 -20q-15 102 -21 213q-80 21 -137 63q-145 108 -127 293l135 -16q-12 -102 72 -168q22 -17 53 -29q-4 164 8 448q0 17 2 25q-112 18 -174 62q-111 74 -108 253zM203 913q-2 -106 51 -143q37 -22 100 -35q4 238 4 387q-36 -3 -71 -18q-84 -46 -84 -191z M475 109q31 3 64 16q79 34 88 123q23 204 -52 276q-33 33 -92 49v-4q-12 -292 -8 -460z" />
<glyph unicode="%" horiz-adv-x="1222" d="M76.5 985q-21.5 -68 3.5 -137q30 -77 102 -127.5t156 -50.5q92 0 170 63q58 52 70 121q9 64 -15 129q-27 74 -90 127q-74 55 -154 55q-82 0 -159 -61q-62 -51 -83.5 -119zM178 -16l113 -74q116 179 291 498q73 133 112.5 203t106.5 181.5t130.5 201.5t131.5 171l-102 86 q-94 -110 -190 -254.5t-155.5 -249.5t-152.5 -276q-162 -295 -285 -487zM209 895q-21 55 37 104q39 31 73 31q33 0 67 -25.5t50 -68.5q25 -62 -16 -100q-39 -31 -82 -31q-42 0 -79.5 26t-49.5 64zM680 348q-18 -84 12 -158q39 -83 129 -127q55 -24 109 -24q78 0 138.5 53 t80.5 139q19 91 -16 172q-39 95 -136 140q-41 18 -82 18q-88 0 -155 -67q-62 -62 -80 -146zM811 319q11 44 41 75.5t63 31.5q15 0 27 -6q51 -24 67.5 -69t6.5 -91q-7 -34 -29.5 -60t-56.5 -26q-24 0 -51 12q-89 43 -68 133z" />
<glyph unicode="&#x26;" horiz-adv-x="745" d="M68 334q4 77 42.5 135.5t96.5 95.5q-56 47 -51 123q7 96 75 135q88 51 215 -4l-53 -125q-70 28 -92 15q-6 -5 -9 -13.5t-2.5 -15.5t1.5 -8q9 -9 21.5 -15t20.5 -8.5t26.5 -6.5t23.5 -5l8 -2q28 -5 42 -23.5t16 -40.5q2 -23 -12.5 -42t-39.5 -25q-184 -50 -194 -178 q-3 -57 29.5 -119.5t84.5 -83.5q65 -23 117 -6t78 61q22 41 13.5 79.5t-38.5 70.5q-7 -7 -18 -18.5t-14 -14.5l-13 -19q3 -6 13 -20l-105 -84q-69 82 -28 166q8 18 25 38t27.5 30t37.5 34q34 30 51.5 47.5t41 51.5t30.5 66.5t4.5 82t-21.5 107.5l129 41q62 -185 -2 -322 q-20 -46 -59 -92q58 -64 73 -141q19 -92 -30 -172q-54 -85 -152 -121q-104 -36 -211 10q-87 35 -145 131q-59 96 -53 205z" />
<glyph unicode="'" horiz-adv-x="288" d="M68 1337q4 -38 14 -237q0 -37 4 -111l135 6q-4 74 -4 111q-9 169 -14 242z" />
<glyph unicode="(" horiz-adv-x="454" d="M68 590q0 -253 67 -479q68 -232 209 -437l111 80q-124 177 -189 393q-63 207 -63 443q0 229 61.5 446.5t177.5 397.5l-112 73q-127 -196 -194.5 -432.5t-67.5 -484.5z" />
<glyph unicode=")" horiz-adv-x="450" d="M0 1434q120 -193 183 -414.5t65 -452.5q6 -467 -232 -872l117 -68q256 437 250 940q-3 510 -268 938z" />
<glyph unicode="*" horiz-adv-x="624" d="M68 1085q16 0 52 1t58 1q-33 64 -49 119l129 41q11 -43 49 -117q58 87 90 130l109 -80q-19 -26 -64 -93q15 1 52.5 2.5t54.5 2.5l8 -136q-21 -1 -68.5 -2t-70.5 -2q23 -32 31 -45l45 -67l-113 -76l-45 67q-15 24 -33 48q-71 -115 -74 -119l-114 71q11 18 36 59t39 62 q-23 0 -61.5 -1t-54.5 -1z" />
<glyph unicode="+" horiz-adv-x="671" d="M68 516v135h190q-1 37 -4.5 98.5t-3.5 69.5l135 8q0 -7 3.5 -71.5t4.5 -104.5h211v-135h-205q2 -57 7 -178l-136 -6q-2 53 -6 184h-196z" />
<glyph unicode="," horiz-adv-x="253" d="M0 -236l109 -79q52 69 71 215q12 110 0 247l-135 -10q12 -126 0 -223q-12 -103 -45 -150z" />
<glyph unicode="-" d="M68 571q111 -18 327 -18h94q31 2 93 2v135q-64 0 -95 -2q-297 0 -397 17z" />
<glyph unicode="." horiz-adv-x="272" d="M70 -2h133v154h-133v-154z" />
<glyph unicode="/" horiz-adv-x="880" d="M-23 -41l119 -61q111 206 140 264q137 262 221 421t212.5 386t233.5 391l-112 74q-107 -165 -238 -396t-214 -388t-222 -425q-27 -51 -73.5 -140t-66.5 -126z" />
<glyph unicode="0" horiz-adv-x="874" d="M68 424q-6 -169 73 -293q97 -145 273 -160q113 -3 183 32t122 110q85 117 88 290q3 170 -80 295q-47 70 -117 111t-151 41q-183 6 -291 -137q-91 -120 -100 -289zM203 418q6 126 73 212.5t170 86.5q111 -3 170 -95.5t56 -215.5q-3 -132 -64.5 -217t-181.5 -85 q-114 13 -171.5 102t-51.5 212z" />
<glyph unicode="1" horiz-adv-x="358" d="M68 707l88 -43q0 -104 -2 -170q-8 -283 -4 -498l135 4q-4 209 4 489q4 172 2 216q-3 40 -7 64t-19.5 49t-43.5 32q-27 7 -56 -7.5t-44 -41.5q-28 -40 -53 -94z" />
<glyph unicode="2" horiz-adv-x="759" d="M68 41q2 -20 14.5 -37t32.5 -24q22 -7 168 -9q45 1 131 5.5t114 5.5l76 4v135q-120 -6 -227 -10q77 52 115 86q200 170 200 350q0 93 -68 174t-173 113q-96 28 -179 4q-95 -29 -159 -121l112 -76q26 40 64 57t66.5 16.5t56.5 -9.5q61 -19 103 -65t42 -93 q0 -118 -154 -248q-94 -80 -253 -166q-52 -25 -66 -43q-17 -20 -16 -49z" />
<glyph unicode="3" horiz-adv-x="770" d="M68 129q41 -79 120.5 -118.5t173.5 -39.5q141 0 236 76q85 67 100 164q12 86 -19.5 170.5t-96.5 136.5q65 83 47 172q-8 68 -92 119q-61 33 -148 39q-76 6 -149 -17q-91 -37 -115 -110l125 -45q6 20 42.5 31.5t88.5 7.5q50 -4 82.5 -20t36.5 -29q4 -25 -14 -50t-40 -38 q-60 3 -116 -23q-24 -13 -33 -36t-4 -46q16 -47 67 -47q77 4 103 10q50 -25 81 -82.5t21 -120.5q-8 -51 -54.5 -83.5t-104.5 -40.5q-68 -9 -131 10.5t-87 70.5z" />
<glyph unicode="4" horiz-adv-x="780" d="M72 258q19 -55 106 -72q20 -3 43 -4t42 -2t48 0t45.5 1.5t50.5 2.5t46.5 3t51 4t48.5 4q-13 -144 -10 -201l135 6q-3 46 12 211q21 232 23 346q3 213 -49 270q-47 52 -134 4q-85 -52 -217 -193.5t-192 -229.5q-67 -94 -49 -150zM223 317q56 84 164 201q88 99 184 176 q9 -63 7 -145q-2 -88 -13 -217q-170 -15 -231 -17t-111 2z" />
<glyph unicode="5" horiz-adv-x="737" d="M68 688.5q1 -27.5 2.5 -43.5t6 -49t5.5 -47q2 -23 21 -46t65 -28q37 -4 77.5 -2t96.5 -2.5t94 -19.5q88 -34 96 -129q7 -75 -37.5 -132t-109.5 -73q-31 -10 -57 -5t-44.5 13.5t-33 25t-22.5 29t-13 25.5l-125 -53q48 -111 143 -152q55 -25 111 -25q67 0 137 33.5 t121 97.5q78 101 66 228q-18 181 -185 244q-79 30 -241 30h-31q-11 74 -8 99q23 4 125 0q142 -5 219 -5v136q-101 0 -215 4q-107 4 -154 -2.5t-78 -38.5q-12 -13 -19.5 -32t-10.5 -36t-2 -44.5z" />
<glyph unicode="6" horiz-adv-x="772" d="M70 315q13 -105 49 -170q43 -83 117.5 -129.5t166.5 -46.5q112 0 201 72q72 61 92.5 150.5t-16.5 181.5q-46 113 -160 166q-147 71 -284 14q48 126 141 154q80 27 190 -31l64 119q-80 44 -156 53q-73 9 -141 -12q-122 -42 -195 -170q-41 -74 -59.5 -167t-9.5 -184z M207 317q4 42 26 70t44.5 37.5t48.5 13.5q67 11 135 -20.5t94 -95.5q20 -51 9.5 -98t-48.5 -79q-43 -37 -101.5 -40.5t-111.5 28.5q-81 51 -96 184z" />
<glyph unicode="7" horiz-adv-x="731" d="M68 819q36 1 219 7t225 5q104 -4 137 -55q8 -14 12 -29.5t0.5 -35.5t-5.5 -32.5t-13.5 -37.5t-14.5 -32t-18.5 -35t-15.5 -29q-53 -104 -75.5 -149t-75.5 -175t-91 -260l-131 39q63 209 139 375l-59 -4l-8 135q32 2 135 12q88 169 92 180h-41q-41 0 -198 -6.5t-209 -7.5z " />
<glyph unicode="8" horiz-adv-x="702" d="M71 312q12 83 62 143q18 22 37 37q-43 82 -12 190q21 78 84 125q55 43 127 43q83 0 139 -53q65 -59 65 -150q3 -104 -45 -174q53 -38 80 -94q34 -73 25.5 -152.5t-55.5 -146.5q-38 -52 -95 -80.5t-123 -28.5q-84 0 -161 45t-111 136q-29 77 -17 160zM210.5 319.5 q-19.5 -56.5 2.5 -118.5q29 -78 121 -92q85 -12 135 51q25 36 29.5 79.5t-13.5 79.5q-21 50 -86 66q-63 -13 -125 12q-44 -21 -63.5 -77.5zM287 643q-18 -59 8 -96l4 -6q30 5 76 -2l-2 -13l20 -2q9 5 15 13q33 33 30 108q0 33 -20.5 51.5t-48.5 18.5t-50 -19t-32 -53z" />
<glyph unicode="9" horiz-adv-x="729" d="M68.5 524q-6.5 68 31.5 135q56 103 195 154t358 29l-8 -72l17 -6l-25 -57q-146 -361 -234 -738l-131 31q44 178 80 301q-53 0 -86 8q-91 22 -145 88q-46 59 -52.5 127zM218.5 593.5q-33.5 -61.5 6.5 -110.5q54 -63 170 -41q49 145 99 271q-84 -3 -154 -29 q-88 -29 -121.5 -90.5z" />
<glyph unicode=":" horiz-adv-x="272" d="M70 -2h133v154h-133v-154zM70 571h133v154h-133v-154z" />
<glyph unicode=";" horiz-adv-x="321" d="M0 -236l109 -79q52 69 71 215q12 110 0 247l-135 -10q12 -126 0 -223q-12 -103 -45 -150zM49 571h133v154h-133v-154z" />
<glyph unicode="&#x3c;" horiz-adv-x="806" d="M74 625q-23 -57 47 -119q58 -52 371 -244q131 -77 172 -106l75 112q-56 39 -178 111q-279 167 -336 217q22 18 168 125q16 12 64.5 47.5t73 53.5t63.5 47.5t69.5 54.5t57.5 49l-90 100q-96 -85 -318 -244q-137 -98 -183 -136.5t-56 -67.5z" />
<glyph unicode="=" horiz-adv-x="636" d="M68 819l6 -135q74 4 192 4q14 1 135 5.5t168 8.5l-10 136q-35 -3 -90.5 -5.5t-119.5 -5.5t-89 -4q-118 0 -192 -4zM70 563l8 -135q93 6 260 0q15 0 78.5 -1t81.5 -1q44 0 69 2l-6 135q-79 -6 -219 0q-169 6 -272 0z" />
<glyph unicode="&#x3e;" horiz-adv-x="806" d="M68 971q56 -39 178 -111q279 -167 336 -217q-22 -18 -168 -125q-16 -12 -64.5 -47.5t-73 -53.5t-63.5 -47.5t-69.5 -54.5t-57.5 -49l90 -100q96 85 318 244q137 98 183 136.5t56 67.5q23 57 -47 119q-58 52 -371 244q-131 77 -172 106z" />
<glyph unicode="?" horiz-adv-x="854" d="M68 819h135q0 147 80 230q68 68 163 71q82 0 143 -57t62 -164q0 -96 -20 -121q-10 -12 -53 -24q-22 -6 -37.5 -11.5t-37.5 -16.5t-41.5 -29.5t-35.5 -43.5q-67 -104 -70 -338h136q3 199 47 263q12 20 27.5 28t49.5 19q27 7 41.5 12t38 20t39.5 37q51 59 51 205 q-3 167 -106 264q-95 92 -234 92q-78 -3 -137 -28q-68 -26 -123 -84q-116 -120 -118 -324zM362 -2h134v154h-134v-154z" />
<glyph unicode="@" horiz-adv-x="970" d="M84 287q-35 125 0 243q35 123 134.5 205t244.5 107q122 21 221 -9t158 -108q56 -73 61.5 -172t-35.5 -182q-37 -73 -99.5 -116.5t-141.5 -43.5q-42 0 -66 27q-74 -36 -153 -7q-100 43 -115 156q-7 72 27 121.5t96 64.5q64 13 123 -10l133 6q-2 -70 -6 -135q0 -15 -1 -43 t-1 -39q55 17 84 78q25 52 21 112t-36 101q-72 96 -246 66q-68 -12 -120.5 -37.5t-82 -58.5t-45.5 -61.5t-24 -57.5q-25 -83 0 -170t88 -144q20 -17 43 -31t60.5 -26.5t78.5 -15.5t98.5 7t118.5 36l54 -125q-160 -66 -310 -50q-128 15 -233 105q-90 81 -129 207zM428 403 q3 -36 31 -45q28 -14 49 7q18 15 12 51q-14 17 -35.5 23t-38.5 1q-22 -5 -18 -37z" />
<glyph unicode="A" horiz-adv-x="1030" d="M98 -31q-31 213 -31 399q0 227 46 412q35 140 99 253.5t155 172.5q75 49 159 50h3q82 0 153 -46q170 -109 242 -415q39 -183 39 -396q0 -196 -33 -417l-133 18q31 201 31 389q0 31 -1 62q-20 0 -622 -7q-1 -32 -1 -65q0 -185 29 -389zM215 580q462 6 604 6 q-9 99 -30 191.5t-68 185.5t-111 133q-40 27 -82 27q-43 0 -88 -29q-94 -64 -151 -207t-74 -307z" />
<glyph unicode="B" horiz-adv-x="966" d="M70 59v-7q0 -26 20 -46q10 -10 31 -17.5t50.5 -11.5t58.5 -6t67.5 -2t64 0.5t60.5 2t47 1.5q67 2 118 8.5t107.5 25t96.5 48.5t73 82t49 123q8 39 8 75q-1 90 -51 167q-72 108 -198 153q50 57 76 149q18 64 18 124q0 28 -4 55q-17 129 -105.5 203t-220.5 74q-48 0 -118 2 q-50 2 -85 2h-25q-40 -1 -81 -9q-32 -9 -44.5 -28.5t-12.5 -34.5q-1 -7 -1 -183.5t1 -521.5v-428zM203 1128q68 0 148.5 -2t84.5 -2q87 0 135.5 -42t57.5 -117q3 -21 3 -42q0 -67 -31 -131q-40 -82 -109 -108q-69 0 -107 -10q-34 -15 -42.5 -47.5t11 -59t56.5 -26.5 q12 -1 24 -1q43 0 76 9q133 -4 214 -81q63 -60 63 -134q0 -21 -5 -43q-25 -107 -97 -143t-220 -39q-171 -4 -231 -4q-24 0 -29 1v381q-2 227 -2 641z" />
<glyph unicode="C" horiz-adv-x="1071" d="M78 731q-11 -72 -11 -142q0 -148 50 -284q35 -96 94 -170q64 -80 141 -119q88 -45 187 -45q224 0 465 228l-95 98q-149 -143 -286 -178q-46 -12 -88 -12q-64 0 -119 28q-114 60 -172 217q-42 113 -42 240q0 58 9 119q21 149 115 270q87 114 190 135q22 5 44 5 q122 0 218 -150l113 73q-79 126 -189 179q-66 32 -139 33q-37 0 -76 -9q-151 -31 -270 -184q-114 -149 -139 -332z" />
<glyph unicode="D" horiz-adv-x="1064" d="M68 1188l4 -19q27 -135 28 -357v-36q0 -199 -10 -348q-8 -137 -8 -228.5t8 -136.5q16 -78 78 -83q66 -9 131 -9q135 0 264 39q159 55 270 172.5t148 288.5q17 74 17 146q0 130 -54 257q-124 295 -508 367q-118 20 -211 20q-40 0 -75 -4q-60 -9 -76 -51zM215 1126 q77 0 199 -18q153 -32 252 -96.5t153 -190.5q43 -101 43 -207q0 -56 -12 -114q-42 -190 -190 -292t-363 -102q-11 0 -78 5q0 3 -1 31t-2 53q0 59 9 227q0 6 2.5 66t2.5 73t2 69t2 76v70q0 17 1 30q0 28 -1 46q-1 26 -2 69t-3.5 72.5t-5.5 65.5t-8 67z" />
<glyph unicode="E" horiz-adv-x="851" d="M68 712v186v144q2 52 2 82t-2 37q0 36 24 60q30 29 107 33q15 1 34 1q82 0 246 -12q168 -14 273 -14v-135q-110 0 -281 14q-215 10 -257 10h-9q0 -7 -1 -32.5t-1 -43.5v-356h203v-135h-201q4 -311 16 -445q11 -1 54 -2q86 0 300 5q172 4 232 4v-136q-57 0 -229 -4 q-160 -2 -257 -2.5t-131 2.5t-56 10.5t-30.5 20t-10.5 19t-3 20.5q-6 50 -10.5 133.5t-7 158.5t-3.5 194.5t-1 182.5z" />
<glyph unicode="F" horiz-adv-x="935" d="M70 1169q-2 8 -2 16q0 23 14 44q18 22 48.5 28.5t96.5 6.5q20 1 47 1q90 0 256 -8q216 -10 338 -22l-12 -135q-127 12 -333 22q-157 7 -253 7q-30 0 -55 -1q37 -199 51 -460q18 0 140.5 -2t144.5 -2v-136q-24 0 -143.5 2t-135.5 2q4 -145 4 -532h-135v276t-3.5 229 t-10.5 244t-21 200.5t-36 219.5z" />
<glyph unicode="G" horiz-adv-x="1032" d="M84 518q-17 75 -17 147q0 124 51 237q81 178 269 282q122 73 242 73q150 0 245 -112l-102 -88q-59 65 -141 65q-84 0 -178 -55q-77 -45 -130.5 -102.5t-78.5 -111t-34 -113.5q-8 -46 -8 -83q0 -12 1 -23q3 -44 12 -89q24 -103 80.5 -199t137.5 -162t165 -75q10 -1 20 -1 q125 0 203 166q0 22 3 104.5t3 94.5q-70 -13 -143 -13q-116 0 -238 32l35 131q106 -27 201 -27q65 0 125 12q28 8 61 6.5t58 -20.5q21 -20 30 -58q8 -36 8 -64q0 -25 -5 -86q-1 -13 -1 -19q-6 -252 -6 -367h-135v45q-97 -72 -196 -72h-5q-85 3 -162.5 37t-136.5 88t-107 124 t-79 145t-47 151z" />
<glyph unicode="H" horiz-adv-x="1024" d="M68 802q1 246 16 437l135 -10q-17 -215 -17 -511q0 -59 1 -122q54 -2 116 -2q86 0 187 4q137 5 230 5q47 0 83 -1q1 120 1 224q0 260 -7 423l135 8q7 -161 7 -451q0 -193 -3 -444q-2 -139 -2 -387h-135q0 370 4 492q-34 1 -79 1q-91 0 -228 -5q-114 -4 -200 -4 q-61 0 -107 2q6 -87 6 -461h-135q0 131 -4 373q-4 152 -4 349v80z" />
<glyph unicode="I" horiz-adv-x="348" d="M90 1229q28 -121 30 -287v-37q0 -145 -11 -276q-8 -149 -11 -227q-1 -28 -1 -61q-1 -63 3 -143q6 -126 25 -225l133 27q-26 132 -26 307.5t12 313.5q9 122 10 269q0 26 -1 54q-2 180 -32 313z" />
<glyph unicode="J" horiz-adv-x="917" d="M68 414q11 -140 75.5 -255t165.5 -159q64 -31 123 -31q47 0 90 19q99 43 172.5 152t110.5 259q45 191 45 441q0 141 -14 301q-16 91 -168 100h-26q-65 0 -202 -7q-116 -6 -181 -6q-29 0 -48 1l-10 -135q13 -1 36 -1q65 0 217 7q120 4 185 4q45 0 63 -2q13 -147 13 -275 q0 -225 -41 -395q-27 -110 -74.5 -189.5t-103.5 -114.5q-34 -21 -71 -21q-23 0 -48 9q-63 22 -115 107q-50 83 -59 201z" />
<glyph unicode="K" horiz-adv-x="995" d="M68 1229l135 16q29 -282 37 -530q109 86 334.5 288.5t285.5 253.5l88 -104q-59 -48 -134.5 -114.5t-183.5 -165t-114 -103.5q112 -145 231.5 -351.5t202.5 -387.5l-121 -58q-100 211 -212.5 401.5t-202.5 307.5q-75 -61 -170 -133q2 -160 2 -549h-135q0 299 -1.5 454 t-11.5 377t-30 398z" />
<glyph unicode="L" horiz-adv-x="927" d="M68 1229q20 -65 34.5 -150t20 -139t10.5 -138.5t6 -92.5q0 -59 -4 -207q-3 -99 -3 -178q0 -40 1 -74q0 -67 1.5 -103.5t14 -83.5t37.5 -63t81 -18q22 -1 41 -1q32 0 58 2q42 4 132 16l24 3q202 24 284 24q30 0 44 -3l33 131q-30 8 -75 8h-16q-56 -2 -119 -8t-137 -15 q-20 -3 -30 -4q-24 -3 -62.5 -7.5t-59 -6.5t-50.5 -4t-60 -2q-6 76 -8 164q0 111 4 233.5t4 204.5q-1 8 -7.5 104.5t-11.5 147.5t-20.5 140.5t-37.5 160.5z" />
<glyph unicode="M" horiz-adv-x="1124" d="M70 719q6 -157 43 -613q10 -88 10 -114l135 8q0 3 -3 44.5t-7 74.5q-34 392 -41 577q-3 93 -2 164q0 166 14 215q18 -23 92 -132t117 -152q32 -32 60.5 -49t52 -23t49 4t44 22.5t45 43.5t44.5 56t49 70q114 159 146 185q3 -36 3 -108q0 -117 -8 -330q0 -20 -2 -81 t-2.5 -86t-1.5 -80t-1 -84.5v-77t1 -78.5t3 -69t5 -68.5t7 -57.5l133 20q-5 32 -8 70t-4 88t-1 88q0 13 -1 28q0 30 1 74q1 64 1.5 98.5t2.5 109.5t3 101q9 186 9 306q0 134 -11 186q-15 86 -68 102q-16 5 -32 5q-68 0 -154 -89q-25 -28 -77.5 -102t-97 -135.5t-57.5 -69.5 q-19 0 -64 57t-85 119q-30 43 -40.5 59t-35 47.5t-39 44t-35.5 26t-41 16.5q-10 2 -20 2q-31 0 -58 -21q-75 -54 -75 -369q0 -57 2 -122z" />
<glyph unicode="N" horiz-adv-x="1091" d="M68 1040q0 -70 14 -269.5t14 -246.5q0 -159 1 -263.5t1 -260.5h135q0 128 -1 266t-1 258q0 61 -13 246t-15 236v55q45 -86 65 -131q50 -78 236 -382t252 -403q5 -7 23.5 -33.5t26 -36t24 -30.5t26.5 -30t25 -21t29.5 -16.5t29.5 -4.5q19 0 33 6.5t22.5 20.5t13.5 27.5 t7.5 35.5t3 36.5t0.5 37.5q5 69 5 338q0 202 -3 516v238h-135v-238q4 -348 4 -573q-1 -37 -2 -115.5t-2 -107.5q-13 18 -41 61q-27 41 -121 192.5t-203 328t-133 214.5q-27 60 -51 105t-55.5 89.5t-65.5 64.5q-23 13 -45 13q-11 0 -22 -3q-83 -21 -83 -183q0 -18 1 -37z" />
<glyph unicode="O" horiz-adv-x="966" d="M82 449q17 -105 52 -191t88 -152q54 -64 130 -100q74 -35 165 -35h5q175 20 283 205q95 167 95 416q0 41 -3 84q-13 189 -85 341t-200 212q-70 32 -135 32q-41 -1 -81 -13q-102 -34 -178 -124.5t-114 -216.5q-37 -119 -37 -264q0 -92 15 -194zM217 469q-15 97 -15 182 q0 115 28 205q48 158 137 225q56 43 110 43h15q62 -6 112 -49t84 -112q74 -153 76 -364q0 -4 1 -8q0 -206 -79 -347q-40 -72 -88.5 -109t-95.5 -37h-2l-92 26q-47 26 -85 75.5t-66 119.5t-40 150z" />
<glyph unicode="P" horiz-adv-x="927" d="M68 1229q82 9 158 9q164 0 300 -44q143 -48 233 -143t99 -211q1 -13 1 -26q0 -100 -62 -183q-70 -93 -199 -148q-129 -57 -338 -67q-6 -200 -22 -426l-136 10q25 333 25 549v45q0 284 -37 502h-6zM227 1104q37 -244 37 -553q150 7 272 53.5t169 132.5q20 37 20 78 q-1 8 -1 16q-4 50 -36 95q-52 77 -169.5 127.5t-291.5 50.5z" />
<glyph unicode="Q" horiz-adv-x="1044" d="M72 469q-4 49 -4 96q0 141 32 266q42 167 148 279q135 147 317 147q145 0 248 -95t133 -249q31 -155 31 -292q0 -93 -14 -177q-27 -147 -95 -260q93 -109 107 -127l-101 -88q-68 78 -94 111q-119 -109 -272 -109q-122 0 -219 67.5t-152.5 180t-64.5 250.5zM207 479 q11 -158 93 -265.5t208 -107.5q100 0 182 76q-88 95 -158 148l84 106q83 -62 156 -145q38 72 57 176q12 73 12 153q0 124 -28 267q-20 108 -87.5 171.5t-160.5 63.5q-123 0 -219 -104q-80 -87 -116 -226q-26 -102 -26 -223q0 -44 3 -90z" />
<glyph unicode="R" horiz-adv-x="925" d="M72 1092q1 31 4 49.5t16 40.5t37 30q135 46 260 47q56 0 109 -10q157 -30 258 -137q74 -78 92 -180q6 -32 5 -63q0 -69 -28 -134q-55 -122 -192 -203q13 -31 42 -92.5t42 -91.5q98 -213 141 -328l-127 -47q-40 108 -137 318q-63 138 -84 188q-130 -43 -301 -49 q0 -28 3 -191.5t3 -238.5h-135q0 82 -3 265.5t-3 209.5q-7 233 -7 396q0 135 5 221zM203 901q0 -90 4 -336q176 8 312 64t181 159q18 44 18 85q0 32 -11 62q-25 68 -89 116.5t-145 64.5q-44 8 -89 8q-86 0 -177 -28q-4 -58 -4 -195z" />
<glyph unicode="S" horiz-adv-x="835" d="M68 915v-9q0 -172 108 -244q48 -36 131 -52.5t157.5 -33t110.5 -52.5q57 -55 57 -188q0 -41 -5 -88q-9 -89 -88 -123q-42 -18 -91 -18q-18 0 -36 2q-70 9 -125 47q-74 58 -74 143q0 12 2 25l-135 16q-2 -20 -2 -40q0 -157 129 -253q105 -76 239 -76q77 0 146 29 q70 31 115.5 92.5t54.5 138.5q5 51 5 97q0 200 -99 295q-41 40 -102.5 64t-114.5 31t-110 19.5t-87 32.5q-51 36 -51 135v8q0 145 84 191q41 20 87 20q14 0 26 -2q60 -7 112 -41q87 -51 84 -112l135 -4q1 66 -37.5 127.5t-109.5 105.5q-79 49 -174 59q-21 2 -40 2 q-86 0 -149 -36q-146 -83 -153 -308z" />
<glyph unicode="T" horiz-adv-x="935" d="M68 1229q92 8 261 8q117 0 271 -4q176 -4 268 -4v-135q-271 0 -331 6v-295q2 -200 1.5 -401.5t-1.5 -403.5h-136q2 202 1.5 403t-1.5 402v297q-57 1 -107 1q-127 0 -216 -7z" />
<glyph unicode="U" horiz-adv-x="1120" d="M76 1237q-7 -216 -7 -384q0 -227 13 -366q18 -145 49 -242.5t100 -166.5q34 -36 76 -58.5t88.5 -30.5t72 -10t64.5 -2q202 6 330 152q71 82 110 189t62 249q19 134 19 298q0 172 -21 376l-133 -12q19 -193 19 -354t-19 -289q-35 -250 -137 -367q-54 -59 -138 -87 q-62 -21 -122 -20q-22 0 -44 2q-82 10 -132 60q-87 87 -109 336q-13 144 -13 364q0 160 7 359z" />
<glyph unicode="V" horiz-adv-x="1013" d="M45 1196q66 -121 160 -532q10 -39 27 -111.5t27.5 -117t25.5 -101t28 -98.5q24 -74 51 -129t60 -91q32 -35 69 -35q2 1 3 1q39 2 79 45q66 84 127 272.5t138 491.5q71 264 129 413l-127 47q-67 -176 -133 -426q-43 -169 -69.5 -267.5t-69.5 -226.5t-78 -188 q-5 9 -25.5 64t-32.5 98q-33 112 -96 389q-101 430 -174 568z" />
<glyph unicode="W" horiz-adv-x="1470" d="M45 1229q43 -96 90 -237.5t74 -236t70 -253.5q79 -299 119 -398t98 -112q23 -6 46 2t44.5 32.5t38 48t37 66t32 68t30.5 70.5q6 15 9 22q10 20 49 107q41 -93 64 -175q19 -60 30 -92t29 -70t35 -55q32 -34 74 -34q31 0 50 15t38 48q43 93 100 305q39 143 122.5 481.5 t100.5 403.5l-131 37q-196 -787 -213 -848q-42 -158 -73 -250q-7 21 -27.5 84.5t-38.5 113.5t-35 87q-50 107 -126 107q-16 0 -33 -5q-36 -10 -63 -52.5t-75 -154.5q-72 -158 -92 -190q-3 10 -13 37.5t-16 46.5q-21 66 -78 281t-119 418t-124 337z" />
<glyph unicode="X" horiz-adv-x="968" d="M68 1229l131 35q57 -210 225 -488q9 -16 27.5 -45.5t27.5 -44.5q208 320 320 559l123 -57q-53 -112 -120 -231.5t-116 -197t-127 -196.5q26 -36 93.5 -131.5t101.5 -144.5q116 -164 170 -244l-113 -76q-51 77 -168 242q-122 170 -164 233q-174 -262 -284 -471l-119 64 q97 186 321 528q-18 27 -90 144q-176 293 -239 522z" />
<glyph unicode="Y" horiz-adv-x="1028" d="M68 1229h135q0 -237 110 -385q93 -123 217 -123q116 0 195 115q100 142 100 409h136q0 -309 -125 -487q-92 -132 -232 -164q-1 -22 -1 -57q0 -70 3 -191q4 -136 4 -226t-4 -132l-133 12q3 33 3 101q0 90 -5 241q-3 121 -3 192q0 35 1 58q-154 28 -262 170 q-139 184 -139 467z" />
<glyph unicode="Z" horiz-adv-x="1097" d="M76 37q-9 19 -9 37q0 28 21 53q3 3 20.5 23.5t32.5 39.5q123 142 228 269h-37v135h149q42 49 103 125q152 194 217 285q40 56 65 100q-20 -2 -65 -2q-210 -4 -352 -4q-199 0 -267 8l17 133q61 -7 234 -6q144 0 366 4q59 2 147 2q54 0 76 -45q7 -15 7 -35q0 -35 -23 -82 t-66 -110q-69 -103 -223 -297q-11 -15 -33 -41.5t-27 -32.5h95v-135q-152 0 -207 -2q-160 -195 -285 -338q74 4 115 4q166 9 305.5 9t253.5 -9l-10 -133q-100 7 -236 7t-307 -7q-92 -6 -154 -6q-51 0 -82 4q-52 12 -69 47z" />
<glyph unicode="[" horiz-adv-x="382" d="M68 1280q1 -90 6 -221q8 -207 10 -400q0 -63 -1 -165t-1 -142q-2 -223 3 -319t28 -154q29 -78 106 -108q53 -21 156 -27l8 135q-60 4 -90 10.5t-39 14t-16 24.5q-9 23 -14 91t-6 164t-1 178.5t1 178t1 119.5q-1 69 -5.5 230t-7.5 287.5t-1 156.5q6 74 24 92q27 24 133 9 l17 133q-171 23 -242 -41q-38 -36 -54 -96t-15 -150z" />
<glyph unicode="\" horiz-adv-x="851" d="M-23 1374q121 -247 270 -532t234.5 -443t274.5 -503l118 65q-496 904 -776 1473z" />
<glyph unicode="]" horiz-adv-x="389" d="M0 1569l16 -135q71 9 103 6q4 0 7.5 -1t6 -1.5t4.5 -1t3.5 -1t2 -1t1.5 -0.5h1q11 -11 15 -64q2 -29 2 -169t-0.5 -286t2.5 -282q24 -561 20 -645q-2 -87 -20 -105q-15 -15 -150 -6l-8 -135q78 -4 137 -4q75 9 117 49q55 55 59 195q4 101 -20 655q-4 141 -2.5 436 t-1.5 309q-8 105 -59 152q-37 34 -102 40t-134 -5z" />
<glyph unicode="^" horiz-adv-x="1054" d="M68 684l110 -82q24 33 139 206t132 198q41 60 75 98q50 -66 119 -174q145 -222 238 -336l106 86q-64 77 -231 328q-95 141 -132 187.5t-65 59.5q-58 24 -119 -45q-46 -46 -125 -159t-153.5 -228t-93.5 -139z" />
<glyph unicode="_" horiz-adv-x="614" d="M0 -106v-136q2 0 107.5 -2t144.5 -2q55 0 208 2t154 2v136q-3 0 -156 -2.5t-206 -2.5q-37 0 -143 2.5t-109 2.5z" />
<glyph unicode="`" horiz-adv-x="348" d="M-68 1468q86 -76 170 -161q48 -42 82 -78l97 98q-54 50 -80 76q-58 54 -178 170z" />
<glyph unicode="a" horiz-adv-x="925" d="M69 388q3 64 21 126q49 175 174 262q99 72 224 72q60 0 126 -17q49 -9 93 -53v41h135q0 -151 8 -405q8 -258 8 -414h-135q0 45 -2 68q-53 -56 -127 -80q-62 -21 -124 -20h-24q-74 4 -153 32q-59 18 -104 57t-71 91q-28 52 -40 114q-10 50 -10 101q0 13 1 25zM205 372v-8 q1 -51 11 -97q12 -50 42 -87.5t74 -50.5q80 -24 143 -24q96 0 152 57q43 45 61 119q14 57 14 115q0 18 -2 35q-6 76 -28 144q-25 78 -63.5 108t-114.5 30q-98 0 -171.5 -63.5t-101.5 -170.5q-15 -51 -16 -107z" />
<glyph unicode="b" horiz-adv-x="718" d="M70 356q4 -150 8 -206q7 -83 13 -106.5t32 -39.5q101 -27 182 -27q165 0 260 86q86 80 86 203q0 119 -76 207q-24 27 -45 43q43 43 43 101v10q-6 121 -110 182q-71 41 -187 41q-80 0 -151 -23q-45 -14 -51 -82q-7 -63 -7 -190q0 -85 3 -199zM203 414q-1 62 -1 113 q0 120 5 182q30 6 69 6q77 0 119 -25q42 -23 45 -74q-18 -27 -94 -47q-21 0 -67 -12q-25 -8 -38.5 -29t-9.5 -47q3 -25 22.5 -41t45.5 -16q16 0 70 12q63 0 105 -52.5t42 -117.5q0 -72 -58.5 -112.5t-152.5 -40.5q-46 0 -90 8q-6 71 -12 293z" />
<glyph unicode="c" horiz-adv-x="823" d="M68 426q6 -153 92.5 -279t210.5 -163q43 -13 84 -13q60 0 116 27q105 45 185 162l-111 78q-90 -130 -189 -131q-24 0 -48 8q-83 24 -141 118t-64 197q-1 78 49 154.5t125 111.5q46 20 90 20q86 0 166 -77l94 96q-91 86 -197 108q-34 7 -68 7q-71 0 -140 -31 q-113 -51 -185 -161q-69 -106 -69 -222v-10z" />
<glyph unicode="d" horiz-adv-x="716" d="M68 846q43 5 83 5q123 0 224 -44q128 -55 198 -162q69 -95 76 -213q1 -13 1 -27q0 -103 -48 -196q-60 -110 -174 -172q-124 -68 -291 -68v135h6v100q-1 69 -1 120q-2 84 -12.5 195.5t-33.5 193.5l-14 -2zM236 709q21 -87 31.5 -197t11.5 -189v-90.5v-111.5 q143 40 204 151q33 65 33 131q0 83 -53 166q-78 112 -227 140z" />
<glyph unicode="e" horiz-adv-x="876" d="M68 366q0 -58 14 -106.5t30.5 -84t40.5 -64.5t44.5 -46.5t42.5 -31.5q94 -60 215 -60q158 0 286 88l-73 113q-84 -57 -187 -63q-18 -2 -35 -2q-78 0 -135 38q-46 29 -67 68t-33 88q298 0 453 31q76 14 112 42q33 25 33 66v9q-15 177 -123 288q-103 106 -244 109h-16 q-122 0 -219 -86q-106 -96 -131 -264q-8 -70 -8 -125v-7zM205 438q0 2 3.5 22t4 23.5t4 21.5t5.5 24t6.5 22t8.5 23.5t10.5 21.5t13.5 23.5t16 21t20 21.5q63 53 137 53q24 0 49.5 -6.5t55.5 -23.5t55.5 -43t46 -70t29.5 -99q-66 -15 -203 -24q-132 -11 -262 -11z" />
<glyph unicode="f" horiz-adv-x="641" d="M74 733q-7 15 -7 30q0 18 11 36q18 32 76 39h14q52 0 201 -11q148 -8 204 -8v-135q-85 0 -215 10q-123 6 -135 6q24 -105 27 -256q67 -16 178 -16v-135q-108 0 -182 14l-6 -106q-7 -126 -7 -201h-135q0 99 6 207q10 99 10 210q0 34 -1 69q-4 151 -39 247z" />
<glyph unicode="g" horiz-adv-x="776" d="M68 436q2 132 77.5 247.5t184.5 150.5q40 12 79 12q48 0 95 -19q90 -35 160 -133l-111 -80q-46 66 -100 88q-23 9 -46 9q-31 0 -61 -16q-53 -28 -90 -89q-53 -85 -53 -172q0 -67 23.5 -135t69 -119.5t101.5 -64.5q15 -4 29 -4q36 0 68 23q44 32 75 97q2 47 2 73t-2 32 q-11 6 -55 6q-57 0 -170 -10l-10 135q98 9 166 9q28 0 51 -2q77 -5 115 -42q33 -32 40 -88q3 -26 3 -56q0 -34 -4 -73q-9 -106 -9 -176h-106q-75 -62 -167 -62q-27 0 -56 5q-83 19 -152 85.5t-109 164.5q-38 95 -38 199v5z" />
<glyph unicode="h" horiz-adv-x="712" d="M68 819l135 10q12 -172 12 -325q103 0 150 2q43 2 133 2q-6 71 -25 270l-4 39l135 14l2 -38q3 -70 13 -195t16 -207q6 -81 9 -207q1 -29 1 -55q0 -87 -8 -141l-133 12q8 89 8 190q0 87 -6 183q-94 0 -139 -2q-49 -2 -154 -2v-123q-2 -80 -2 -246h-135q0 168 2 248 q2 101 2 192q0 220 -12 379z" />
<glyph unicode="i" horiz-adv-x="372" d="M78 811q35 -87 52 -208q17 -118 17 -227q-1 -3 -1 -6q0 -112 -1 -235v-135h136v133q1 130 1 248.5t-20 249.5t-59 231z" />
<glyph unicode="j" horiz-adv-x="645" d="M68 246q27 -138 86 -209q53 -68 129 -68q42 0 86 25.5t80 77.5q58 82 86 184q43 141 43 291q0 115 -25 235v2q-14 42 -51 56q-41 8 -107 8q-28 -1 -225 -19l10 -133q13 0 117 8.5t131 8.5q15 -87 15 -169q0 -130 -37 -249q-26 -88 -61 -137t-60 -54q-12 0 -27 19 q-35 42 -57 151z" />
<glyph unicode="k" horiz-adv-x="663" d="M68 819l133 23q20 -133 28 -246q153 161 275 274l92 -100q-63 -57 -203 -197q45 -178 203 -559l-123 -53q-131 309 -188 498l-47 -51q4 -119 4 -347q0 -10 -1 -30.5t-1 -30.5h-136q0 10 1 30.5t1 30.5q0 173 -1 262t-10 238t-27 258z" />
<glyph unicode="l" horiz-adv-x="563" d="M68 123q4 -74 43 -111t112 -37q18 0 139 11q19 1 134 10l-11 135q-77 -6 -135 -12q-95 -7 -128 -7q-13 0 -17 1q0 1 -1 11t-1 19q0 17 4 107q10 144 10 288t-10 289l-135 -8q9 -150 9 -290t-9 -271q-4 -129 -4 -135z" />
<glyph unicode="m" horiz-adv-x="1030" d="M68 819l135 12l4 -57q67 70 137 70q61 0 103 -40t79 -106q48 86 114 128q40 25 83 25q30 0 61 -11q41 -14 72.5 -50.5t49.5 -87t28.5 -99.5t15.5 -103q10 -94 10 -261q0 -109 -4 -249h-133q2 113 2 204q0 195 -10 291q-10 105 -32 162t-44 66q-12 3 -24 -0.5t-23.5 -15 t-21 -22t-21.5 -32t-18.5 -34t-19 -37.5l-17.5 -35q-30 -45 -70 -45q-47 0 -71 49q-3 5 -15.5 31.5t-22.5 45.5t-23.5 42t-26 36t-21.5 13q-2 0 -5.5 -1t-15.5 -10t-26 -24.5t-36 -49t-46 -79.5q1 -37 1 -93q0 -84 -2 -211q-3 -211 -3 -241h-135q0 44 4 224q2 115 2 216 q0 58 -1 112q-2 146 -13 267z" />
<glyph unicode="n" horiz-adv-x="880" d="M68 819l131 29q12 -60 16 -86q144 92 259 91q64 0 120 -28q143 -77 194 -346q26 -134 26 -317q0 -79 -5 -168l-135 6q5 87 5 164q0 169 -24 291q-35 204 -125 250q-26 14 -59 14q-91 0 -238 -109q8 -99 8 -287q0 -68 -1 -149v-174h-136v176q4 75 4 159q0 79 -4 167 q-6 182 -36 317z" />
<glyph unicode="o" horiz-adv-x="968" d="M83 538q-14 -54 -14 -107q0 -76 29 -152q51 -130 178 -217t252 -87q132 0 227 87t132 225q15 62 15 121q0 91 -35 176q-58 141 -199 213q-100 53 -201 53q-136 0 -246 -90q-103 -92 -138 -222zM214 506q24 90 95 149q65 55 145 59q8 0 15 1q72 0 135 -37 q56 -29 93.5 -74.5t51 -93t15.5 -98.5q0 -8 1 -16q0 -42 -11 -77q-22 -92 -83.5 -150t-142.5 -58q-84 0 -178 65.5t-127 151.5q-19 51 -19 103q0 37 10 75z" />
<glyph unicode="p" horiz-adv-x="620" d="M68 0l135 -14q11 114 11 276q0 38 -1 78h16q84 0 158 29q83 34 127 101q38 56 38 122q0 12 -1 24q-7 81 -62 139.5t-137 80.5q-43 11 -91 11q-65 0 -138 -20q-40 -18 -47 -77q-2 -18 -2 -78t2 -162q3 -91 3 -217q0 -21 -1 -43q0 -155 -10 -250zM209 709q25 4 48 4 q34 0 63 -9q49 -13 75 -47q23 -31 23 -61q0 -23 -12 -45q-43 -76 -184 -76h-11q-3 135 -3 194q0 29 1 40z" />
<glyph unicode="q" horiz-adv-x="845" d="M82 514q32 137 123 234q94 102 219 102q104 0 197 -79t131 -200q28 -80 28 -165q0 -67 -18 -138q-17 -70 -53 -131q5 -5 21.5 -23.5t30.5 -34t21 -24.5l-106 -82l-58 62q-75 -60 -169 -60q-110 0 -214.5 76.5t-144.5 196.5q-23 72 -23 146q0 59 15 120zM215 489 q-12 -51 -12 -98q0 -53 16 -100q35 -100 129 -152q54 -28 100 -28q41 0 76 22q-8 7 -45 49.5t-51 53.5l90 102l90 -100q19 47 23 63q12 49 12 98q0 64 -20 129q-35 116 -138 172q-30 15 -61 15q-63 0 -121 -60q-62 -66 -88 -166z" />
<glyph unicode="r" horiz-adv-x="753" d="M68 819l127 43q15 -48 22 -78q107 69 206 69q12 0 23 -1q101 -8 166 -74.5t74 -173.5l-135 -12q-3 62 -41 96q-35 33 -84 32h-6q-52 -2 -111 -34q-56 -35 -71 -88q1 -14 1 -36q0 -74 -8 -240q-7 -122 -7 -206q0 -71 5 -116l-135 -12q-5 50 -5 125q0 90 7 217q8 84 8 181 q0 35 -1 73q-4 140 -35 235z" />
<glyph unicode="s" horiz-adv-x="690" d="M68 559q0 -129 63 -180q27 -24 67 -32t62.5 -6.5t73.5 7.5q48 9 75 9q8 0 14 -1q28 -3 40 -24q24 -40 24 -79q0 -32 -16 -63q-22 -37 -63 -60.5t-84 -23.5q-80 3 -121 84l-121 -63q38 -72 101.5 -113.5t138.5 -42.5h4q79 0 150 41.5t112 110.5q35 63 35 131v8 q-2 72 -43 139q-48 76 -138 88q-10 1 -24 1q-24 0 -58 -3q-56 -5 -89 -9t-52 3q-16 16 -16 78q0 66 44.5 108.5t104.5 45.5q89 0 94 -88l136 8q-4 102 -72 160q-65 55 -153 55h-9q-111 -3 -196 -83t-84 -206z" />
<glyph unicode="t" horiz-adv-x="702" d="M68 684v135q4 0 280 6q212 9 287 9v-136q-67 0 -199 -4q10 -104 10 -309q-1 -34 -1 -66q0 -201 22 -319l-133 -23q-24 129 -24 343q0 32 1 65q0 205 -10 303q-156 -4 -233 -4z" />
<glyph unicode="u" horiz-adv-x="780" d="M88 838q-20 -130 -20 -247q0 -152 34 -282q26 -102 73.5 -178.5t107.5 -116.5q64 -39 125 -39q59 0 112 35q114 69 166 277q27 116 27 263q0 123 -19 269l-135 -16q18 -136 18 -251q0 -132 -24 -235q-37 -152 -104 -192q-22 -14 -43 -14q-25 0 -50 18q-86 56 -130 241 q-23 98 -23 218q0 107 18 231z" />
<glyph unicode="v" horiz-adv-x="876" d="M68 758q42 -52 141 -342q10 -28 33.5 -93.5t40 -109t32.5 -78.5q35 -76 71.5 -120t82.5 -44q60 4 92 60q19 41 33 96q36 160 182 596l33 96l-129 43l-33 -96q-145 -436 -186 -619q-9 14 -35 72q-27 64 -88 242q-54 153 -91.5 244.5t-72.5 136.5z" />
<glyph unicode="w" horiz-adv-x="1038" d="M68 819q7 -32 7 -139q0 -43 -1 -98q-2 -53 -2 -119v-68q2 -107 12 -178q29 -229 180 -237h2q86 0 140 81q22 32 61 129q12 34 37 82q5 -12 17.5 -52t28.5 -76t40 -66q66 -88 176 -88q53 0 92 41q60 68 84 260q20 154 25 414q1 19 1.5 47t1 45t1.5 22l-131 27 q-6 -32 -9 -137q-5 -248 -18 -361q-18 -181 -53 -223q-43 2 -69 42t-47 105.5t-34 87.5q-39 62 -102 62h-10q-65 -6 -109 -78q-28 -48 -49 -104q-11 -28 -16.5 -41t-16.5 -37.5t-21 -35.5t-20 -11q-15 0 -28 33.5t-21 87.5q-9 65 -9 226q0 54 1 118q1 52 1 95q0 128 -9 171z " />
<glyph unicode="x" horiz-adv-x="755" d="M68 762l100 90q110 -122 219 -334q112 200 174 352l127 -51q-85 -208 -231 -446q109 -224 209 -355l-109 -81q-83 105 -182 299q-101 -169 -150 -267l-121 62q51 103 199 346q0 1 1 2t1 2q-45 89 -70.5 137t-71.5 118.5t-95 125.5z" />
<glyph unicode="y" horiz-adv-x="737" d="M70 846l135 -12q-2 -26 -2 -49q0 -138 80 -187q32 -21 72 -21q3 0 5 1q44 1 84 26q21 12 40.5 32t37.5 66q14 37 14 80q0 12 -1 25l133 12q2 -19 2 -38q0 -83 -33 -155q-40 -88 -121 -137q-53 -29 -88 -36v-84q-1 -62 -1 -116q0 -162 9 -253l-133 -14q-11 100 -11 277 q0 51 1 108v78q-51 14 -82 34q-78 49 -115 140q-28 68 -28 166q0 27 2 57z" />
<glyph unicode="z" horiz-adv-x="735" d="M80 686l12 133h3q19 0 126 8q124 15 224 15h32q111 -3 160 -41q28 -25 31 -60q2 -41 -31.5 -97.5t-138.5 -182.5h26v-135q-28 0 -129 -9l-24 -2q-11 -13 -24.5 -28t-38.5 -42t-50 -55q-35 -41 -53 -77q25 -8 76 -8q71 0 194 16q123 14 193 14v-135q-64 0 -179 -14 q-166 -17 -213 -17q-153 0 -194 78q-13 24 -13 53q0 74 87 179l30 32l-32 6l22 134q39 -7 83 -7q24 0 48 2q60 68 96 113q81 96 111 146q-17 2 -46 2q-75 0 -235 -13q-90 -9 -131 -9q-14 0 -22 1z" />
<glyph unicode="{" horiz-adv-x="507" d="M68 643q0 -26 8 -48.5t26 -44t30 -33.5t36 -32q35 -30 43 -43q-6 -197 -47 -434q-1 -6 -5.5 -28.5t-5.5 -30.5t-4 -28t-3 -30t1 -27t4.5 -27.5t9.5 -23t15 -22.5q36 -43 115 -47q18 -2 155 -2h60v137q-172 -3 -189 -2q-20 0 -36 4q5 49 16 103q44 261 49 458q1 28 -17 60 t-36 50.5t-47.5 45t-32.5 29.5q-9 12 -8.5 19t10.5 22q7 9 46 50.5t61.5 78t21.5 71.5q-4 131 -29 312.5t-26 197.5q0 29 7 36t42 13q57 10 160 7l4 135q-131 3 -201 -10.5t-108 -57.5q-19 -22 -28.5 -48.5t-9 -65t4 -69t12.5 -89.5q0 -3 9.5 -67.5t13 -92.5t8.5 -87.5 t6 -113.5q-8 -16 -49 -57q-30 -33 -45.5 -51.5t-31.5 -52t-15 -64.5z" />
<glyph unicode="|" horiz-adv-x="294" d="M69 303q-2 -103 3 -258.5t22 -273.5l133 20q-16 111 -21 261.5t-2.5 252t9.5 264.5q10 218 10.5 438.5t-16.5 440.5l-135 -14q17 -213 16.5 -429t-10.5 -430q-7 -169 -9 -272z" />
<glyph unicode="}" horiz-adv-x="528" d="M0 1434q166 0 217 -15q1 -8 -14 -100q-51 -250 -49 -469q0 -23 8.5 -43.5t28 -40t32 -29.5t39.5 -30q34 -26 62 -54q-4 -7 -14 -18t-27 -27t-21 -20q-33 -30 -49.5 -48t-32 -46t-14.5 -56q7 -192 55 -446q18 -99 17 -113q-9 -3 -26 -4.5t-43.5 -1.5t-48.5 0.5t-58.5 2 t-55.5 1.5l-4 -135q92 -4 207 -2q95 4 135 51q34 38 29 109q-1 10 -19 118q-46 244 -53 418q10 14 53 53q34 30 53 49.5t37 52.5t17 66q-1 26 -11.5 49.5t-31 44.5t-36 33t-42.5 31q-42 31 -51 43q-1 94 8 188.5t15.5 132.5t21.5 113q11 45 16 74.5t1 71t-25 65.5 q-34 41 -102 52.5t-224 13.5v-135z" />
<glyph unicode="~" horiz-adv-x="602" d="M68 819l129 -43q11 38 26 62q12 -9 43 -44.5t47 -48.5q23 -19 54.5 -26t48.5 -2q76 13 119 141l-127 45q-10 -25 -19 -43q-11 8 -38.5 39.5t-49.5 48.5q-49 40 -104 31q-80 -16 -129 -160z" />
<glyph unicode="&#xa1;" horiz-adv-x="303" d="M68 -258h135q3 155 16 342q1 11 2 33q19 357 6 536l-133 -10q2 -27 3 -56.5t1.5 -53t0.5 -57.5v-53t-1.5 -57.5t-2 -52.5t-2.5 -57.5t-2.5 -53t-3.5 -57t-3 -53.5q-13 -192 -16 -350zM100 819h136v154h-136v-154z" />
<glyph unicode="&#xa9;" horiz-adv-x="980" d="M71 310q15 -114 83 -193q61 -73 157.5 -107.5t196.5 -34.5q124 0 223.5 61.5t147.5 178.5q32 75 35 161.5t-23 168.5q-56 175 -223 268l2 6q-124 44 -238 23q-115 -20 -204.5 -102.5t-129.5 -202.5q-42 -113 -27 -227zM203.5 391.5q3.5 51.5 21.5 100.5q31 93 108 158 t173 65q46 0 90 -17q63 -33 106 -86t61 -111.5t16.5 -119t-23.5 -113.5q-51 -109 -155 -143.5t-236 10.5q-62 20 -101 61.5t-51.5 92.5t-9 102.5zM291.5 385.5q2.5 -58.5 36.5 -106.5q45 -61 123 -82q84 -25 182 -4l-23 133q-61 -11 -107 -2.5t-65 34.5q-24 35 0 76 q17 34 56.5 52.5t91.5 15.5l6 135q-99 3 -168 -35q-72 -40 -105 -102q-30 -56 -27.5 -114.5z" />
<glyph unicode="&#xab;" horiz-adv-x="948" d="M68 449q5 -79 125 -152q79 -46 270 -119l49 125q-169 66 -236 103q-58 32 -71 51q7 21 65 61q65 48 228 135l-64 119q-183 -99 -260 -156q-24 -19 -39.5 -34t-33.5 -36.5t-26 -46t-7 -50.5zM436 449q5 -79 125 -152q79 -46 270 -119l50 125q-169 66 -236 103 q-60 33 -72 51q7 20 66 61q67 50 227 135l-63 119q-183 -99 -260 -156q-33 -27 -53 -46t-38 -53t-16 -68z" />
<glyph unicode="&#xad;" d="M68 571q111 -18 327 -18h94q31 2 93 2v135q-64 0 -95 -2q-297 0 -397 17z" />
<glyph unicode="&#xb7;" horiz-adv-x="272" d="M70 571h133v154h-133v-154z" />
<glyph unicode="&#xbb;" horiz-adv-x="946" d="M68 307l47 -125q199 76 270 119q120 69 125 152q4 83 -107 168q-63 48 -258 157l-65 -119q150 -81 227 -135q50 -37 68 -63q-12 -18 -72 -51q-62 -34 -235 -103zM436 307l47 -125q201 77 271 119q120 69 125 152q4 83 -107 168q-63 48 -258 157l-65 -119 q150 -81 227 -135q48 -35 67 -63q-13 -19 -71 -51q-59 -33 -236 -103z" />
<glyph unicode="&#xbf;" horiz-adv-x="856" d="M68 74q3 -170 106 -267q95 -92 234 -92q75 3 137 29q71 27 123 82q115 119 120 324h-135q-3 -146 -82 -228q-69 -69 -163 -72q-82 0 -143 57.5t-62 164.5q2 96 22 121q10 12 54 24q30 8 50.5 15.5t50 30t50.5 54.5q66 103 72 338h-135q-6 -198 -50 -262 q-12 -20 -27.5 -28t-49.5 -19q-25 -7 -40.5 -12.5t-39 -20.5t-39.5 -37q-50 -58 -53 -202zM362 819h134v154h-134v-154z" />
<glyph unicode="&#x2000;" horiz-adv-x="788" />
<glyph unicode="&#x2001;" horiz-adv-x="1576" />
<glyph unicode="&#x2002;" horiz-adv-x="788" />
<glyph unicode="&#x2003;" horiz-adv-x="1576" />
<glyph unicode="&#x2004;" horiz-adv-x="525" />
<glyph unicode="&#x2005;" horiz-adv-x="394" />
<glyph unicode="&#x2006;" horiz-adv-x="262" />
<glyph unicode="&#x2007;" horiz-adv-x="262" />
<glyph unicode="&#x2008;" horiz-adv-x="197" />
<glyph unicode="&#x2009;" horiz-adv-x="315" />
<glyph unicode="&#x200a;" horiz-adv-x="87" />
<glyph unicode="&#x2010;" d="M68 571q111 -18 327 -18h94q31 2 93 2v135q-64 0 -95 -2q-297 0 -397 17z" />
<glyph unicode="&#x2011;" d="M68 571q111 -18 327 -18h94q31 2 93 2v135q-64 0 -95 -2q-297 0 -397 17z" />
<glyph unicode="&#x2012;" d="M68 571q111 -18 327 -18h94q31 2 93 2v135q-64 0 -95 -2q-297 0 -397 17z" />
<glyph unicode="&#x2013;" horiz-adv-x="751" d="M68 561q136 -10 247 -10q126 0 185 2h184v135h-184q-267 -3 -422 8z" />
<glyph unicode="&#x2014;" horiz-adv-x="1161" d="M68 561q164 -12 325 -12q32 0 260 1t258 1q59 2 183 2v135q-124 0 -185 -2q-619 -8 -831 8z" />
<glyph unicode="&#x2018;" horiz-adv-x="303" d="M68 1259q0 -73 4 -110q16 -107 65 -156l99 90q-21 24 -30 112.5t-1 168.5l-133 14q-4 -46 -4 -119z" />
<glyph unicode="&#x2019;" horiz-adv-x="305" d="M68 1292q21 -24 29.5 -113t0.5 -169l133 -15q6 49 5.5 121t-5.5 113q-15 100 -65 153z" />
<glyph unicode="&#x201c;" horiz-adv-x="548" d="M68 1259q0 -73 4 -110q16 -107 65 -156l99 90q-21 24 -30 112.5t-1 168.5l-133 14q-4 -46 -4 -119zM312 1259q0 -73 5 -110q16 -106 66 -156l98 90q-21 24 -29.5 112.5t-0.5 168.5l-134 14q-5 -46 -5 -119z" />
<glyph unicode="&#x201d;" horiz-adv-x="550" d="M68 1292q21 -24 29.5 -113t0.5 -169l133 -15q6 49 5.5 121t-5.5 113q-15 100 -65 153zM313 1292q21 -24 30 -113t1 -169l133 -15q6 49 5.5 121t-5.5 113q-15 100 -65 153z" />
<glyph unicode="&#x2022;" horiz-adv-x="419" d="M70 606q13 -40 53.5 -68t83.5 -28q60 0 94 43q45 45 45 121q7 28 6 41.5t-12 32.5q-5 30 -29.5 50.5t-62.5 20.5q-71 0 -133 -73t-45 -140z" />
<glyph unicode="&#x2026;" horiz-adv-x="927" d="M70 -2h133v154h-133v-154zM397 -2h133v154h-133v-154zM725 -2h133v154h-133v-154z" />
<glyph unicode="&#x202f;" horiz-adv-x="315" />
<glyph unicode="&#x2039;" horiz-adv-x="579" d="M68 449q5 -79 125 -152q79 -46 270 -119l49 125q-169 66 -236 103q-58 32 -71 51q7 21 65 61q65 48 228 135l-64 119q-183 -99 -260 -156q-24 -19 -39.5 -34t-33.5 -36.5t-26 -46t-7 -50.5z" />
<glyph unicode="&#x203a;" horiz-adv-x="577" d="M68 307l47 -125q199 76 270 119q120 69 125 152q4 83 -107 168q-63 48 -258 157l-65 -119q150 -81 227 -135q50 -37 68 -63q-12 -18 -72 -51q-62 -34 -235 -103z" />
<glyph unicode="&#x205f;" horiz-adv-x="394" />
<glyph unicode="&#xe000;" horiz-adv-x="870" d="M0 0v870h870v-870h-870z" />
</font>
</defs>
</svg>
