<?xml version="1.0" encoding="UTF-8" standalone="no"?>
<svg class="oddlogo" viewBox="0 0 1600 400" version="1.1" xmlns="http://www.w3.org/2000/svg" xmlns:xlink="http://www.w3.org/1999/xlink">
  <style>

@-webkit-keyframes zoetrope {
  0% {
    -webkit-transform: translate3d(0, 0, 0);
    transform: translate3d(0, 0, 0); }

  20% {
    -webkit-transform: translate3d(400px, 0, 0);
    transform: translate3d(400px, 0, 0); }

  40% {
    -webkit-transform: translate3d(800px, 0, 0);
    transform: translate3d(800px, 0, 0); }

  60% {
    -webkit-transform: translate3d(1200px, 0, 0);
    transform: translate3d(1200px, 0, 0); }

  80% {
    -webkit-transform: translate3d(-400px, 0, 0);
    transform: translate3d(-400px, 0, 0); }

  100% {
    -webkit-transform: translate3d(0, 0, 0);
    transform: translate3d(0, 0, 0); } }

@keyframes zoetrope {
  0% {
    -webkit-transform: translate3d(0, 0, 0);
    transform: translate3d(0, 0, 0); }

  20% {
    -webkit-transform: translate3d(400px, 0, 0);
    transform: translate3d(400px, 0, 0); }

  40% {
    -webkit-transform: translate3d(800px, 0, 0);
    transform: translate3d(800px, 0, 0); }

  60% {
    -webkit-transform: translate3d(1200px, 0, 0);
    transform: translate3d(1200px, 0, 0); }

  80% {
    -webkit-transform: translate3d(-400px, 0, 0);
    transform: translate3d(-400px, 0, 0); }

  100% {
    -webkit-transform: translate3d(0, 0, 0);
    transform: translate3d(0, 0, 0); } }

.frame {
  -webkit-animation: 1s infinite step-start;
  animation: 1s infinite step-start; }
  svg:hover .frame {
    -webkit-animation-name: zoetrope;
    animation-name: zoetrope; }

.frame-1 {
  -webkit-animation-delay: 0;
  animation-delay: 0;
  -webkit-transform: translate3d(0, 0, 0);
  transform: translate3d(0, 0, 0); }

.frame-2 {
  -webkit-animation-delay: -.2s;
  animation-delay: -.2s;
  -webkit-transform: translate3d(-400px, 0, 0);
  transform: translate3d(-400px, 0, 0); }

.frame-3 {
  -webkit-animation-delay: -.4s;
  animation-delay: -.4s;
  -webkit-transform: translate3d(1200px, 0, 0);
  transform: translate3d(1200px, 0, 0); }

.frame-4 {
  -webkit-animation-delay: -.6s;
  animation-delay: -.6s;
  -webkit-transform: translate3d(800px, 0, 0);
  transform: translate3d(800px, 0, 0); }

.frame-5 {
  -webkit-animation-delay: -.8s;
  animation-delay: -.8s;
  -webkit-transform: translate3d(400px, 0, 0);
  transform: translate3d(400px, 0, 0); }

.oddlogo {
  width: 100%; }

.sprite {
  fill: #fff;
  -webkit-transform: translate3d(0, -50px, 0) scale(2);
  transform: translate3d(0, -50px, 0) scale(2); }

.book-fill {
  fill: #eee; }

  </style>

  <defs>
    <clipPath id="book">
      <rect x="25" y='0' width="350" height="350"></rect>
      <circle cx="600" cy="175" r="175"></circle>
      <circle cx="1000" cy="175" r="175"></circle>
      <rect x="1225" y='0' width="350" height="350"></rect>
    </clipPath>
  </defs>

  <g class="book" clip-path="url(#book)">
    <rect class="book-fill" x="0" y="0" width="100%" height="100%"></rect>

    <g class="frame frame-1">
      <path class="sprite" d="M130.3,189.1c-0.2,4.6-0.4,7.7-0.5,11.4c-7.5-4.3-14.6-8.2-18.5-17.2c-0.9,1.8-1.5,2.5-1.7,3.3c-0.2,0.9-0.1,1.9-0.3,4c-3.5-2.3-6.1-4-8.8-5.8c-0.1,0.2-0.1,0.5-0.2,0.7c-3.6-1.2-7.2-2.5-10.8-3.7c-7.9,0-13.8-3.3-17.3-11.2c-10.1-0.1-16.1-8.5-24.9-11.6c0-3.6,0-6.4,0-9.5c-6.2,4.1-11.9,7.9-17.8,11.8c-2.1-5.7-2.1-5.7-1.3-12c2.8-1.9,6-3.9,9.1-6.1c4.5-3.3,8.7-6.8,12.2-11.4c5.2-6.8,12.3-12.1,21.9-12.1c2.1,0,4.3-0.6,6.2-1.4c13-6.1,25.6-4.6,38.2,1.2c3.7,1.7,5.4,4.2,5.8,8.5c-2.1,1.3-4.2,2.6-7.3,4.5c2.7,2,4.5,4,6.8,5.1c5.5,2.8,9.4,6.9,13.1,11.7c5.5,7,11.2,13.9,17.5,20.1c4.7,4.7,10.5,8.4,15.8,12.6c2.6,2.1,5.9,3.8,6.2,7.7c-0.7,0.6-1.2,1.4-1.4,1.3c-6-1.9-12.3-3.4-17.9-6.2c-3.8-1.8-7-3.5-11.4-2c-2.4,0.8-5.1,0.6-8.7,0.9c2.5,4.3,4.4,7.6,6.4,10.9c-0.3,0.2-0.5,0.5-0.8,0.7C137.2,193.6,134.4,191.8,130.3,189.1z"/>
    </g>

    <g class="frame frame-2">
      <path class="sprite" d="M129.4,92.6c4,1.7,6.6,2.9,10.1,4.4c-5.2,2.2-9.3,2.9-14-0.1c0.1,1.4,0.2,2.3,0.4,3.9c-1.5,1.1-3.4,2.5-5.1,3.7c-0.4,8.8,3.1,13.9,10.4,16.1c3.1,0.9,6.2,1.9,9.2,3.1c4,1.6,5.8,4.4,5,8.6c-7.7,4.1-15.4,6.9-24.1,6.2c-1.7-0.1-3.6,0.9-5.4,1.4c-2,0.7-4,2.2-6,2.2c-8.7-0.3-12.8,6.1-17,11.8c-2,2.8-2.2,7-3.3,10.7c-2.4,0.1-3.4-1.6-3.7-3.9c-0.5-3.2-0.7-6.4-1.3-9.6c-0.5-2.9-1.3-5.7-1.8-8.1c-8-4.4-12.8,0.5-17.9,5c-2.2-0.8-4.3-1.7-6.5-2.6c-4.7,1.4-7.5,7-13.9,5.7c-0.1-4.9,2.8-7.5,6.3-9.6c1.8-1.1,3.9-2.7,5.8-2.7c9.4-0.1,12.5-8,18-13c-4.1-4-7.9-7.6-10.8-10.3c-0.7-5.3,4.4-7.8,2.2-12.2c-0.3-0.6,2.8-3.5,4.7-4.5c10.1-5,20.3-9.6,30.4-14.4c0.7-0.3,1.4-0.7,2.1-1.2c3.4-2.2,6.5-5.5,10.1-6.3c5.1-1.1,10.7-0.3,16.9-0.3c1.5,2.7,3.1,5.7,4.9,9C133.5,87.9,131.9,89.8,129.4,92.6z"/>
    </g>

    <g class="frame frame-3">
      <path class="sprite" d="M124.1,125.4c8.4,2.1,16.4,1.9,20.9,9.1c-1.7,5.7-7,5.5-10.6,6.9c-9.2,3.7-18.8,6.4-28.4,9.5c-4.8,7.7-5.4,15.2-1.2,23c-0.6,3.2-1.3,6.4-2.1,10.6c-1.4-0.9-3.4-1.5-3.8-2.7c-2.8-7.8-5.3-15.7-7.7-23c-3.1-3.3-5.9-6.2-9.1-9.6c-6.7-0.7-14.3-0.3-21-2.5c-7.3-2.4-14.3,2.7-22-0.7c1.8-2.4,3.4-4.4,4.9-6.4c9.4-0.8,18.6,1.1,27.2-1.2c0-5.6,0-10.3,0-16.6c-0.4-0.5-1.8-2.5-3.3-4.5c0-0.4-0.1-0.9,0-1.4c1.4-3.9,0.2-7.3-1.7-10.8c-1.2-2.2-2.4-5.2-1.8-7.4c2.2-9.1,5-18,7.9-28.2c-2.2-1.6-5.2-3.7-8.5-6.1c1-2,2-4,2.4-4.9c0-5.1,0-9,0-14.2c-2.3-4-3.9-11.2-2.9-17.6c3.4,1.9,6.5,3.6,9.7,5.3c3.6-5.3-5.7-8.3-1.4-13.8c2.4,1,5,2.1,8,3.4c-0.6-4.1-1.2-7.8-1.8-11.6c0.5-0.3,1-0.6,1.5-0.8c2.3,1.9,4.7,3.8,7.4,6c0.9-2,1.7-3.8,2.4-5.4c5.5-2.5,7.1,3.2,11,4.8c1-2.4,1.9-4.8,3.5-8.8c2.3,6,4.2,10.7,6,15.4c0.9,2.3,1.1,4.9,2.4,6.8c10.4,15.1,13.3,32.8,17.5,50.1c1.6,6.7-3,12.4-4.1,18.7c-1.3,6.9-2.3,13.8-2.9,20.7C122.3,120.2,123.5,122.8,124.1,125.4z"/>
    </g>

    <g class="frame frame-4">
      <path class="sprite" d="M70.7,176.1c-1.5-4.6-0.7-7.1,1.3-9.6c2.4-3.1,2.8-6.4-0.9-9.4c-8.9,1.4-18.1,2.1-26,9.8c-0.3-2.8-0.5-4.3-0.7-6.2c-2.1-0.6-4.4-1.1-7.4-2c4.1-9.1,11.5-10.8,19.8-10.8c1.7-2.5,3.2-4.7,5-7.3c-7-6.4-12.3-13.5-14.3-21.6c2.6-14.7,9.1-27.3,12-41.9c4.7,2.8,8.7,5.1,14.3,8.5c-1.1-6.2-2-10.8-2.8-15.5c0.5-0.2,1-0.4,1.5-0.6c3,3.5,5.9,7,8.9,10.5c0.5-0.2,0.9-0.4,1.4-0.6c-0.3-3.6-0.5-7.3-0.8-11.3c5.8-0.1,4.7,5.7,7.5,8.3c4.2,0,8.6,0,13.4,0c0.9-2.3,1.8-4.9,3.2-8.4c1.9,2,3.1,3.3,4.8,5.2c0.7-2.4,1.3-4.4,2.2-7.5c1.9,1.6,3.1,2.6,4.6,3.8c0.9-0.5,2.1-1,4.2-2.1c2.1,4.9,4.2,9.7,6.6,15c1.1-1,2.3-2,3.6-3.2c1.7,5.4,3.2,10.5,5.1,16.6c-3.5,6.8-6.1,15.5-14.7,20.1c-2.7,1.5-4.6,3.8-3.9,7.6c3.6,6,15.4,2.9,16,13.1c-4.9,4.5-10.5,6.2-16.6,6.3c-4.4,0.1-8.6,0.3-12.1,3.5c-0.8,0.7-1.8,1.3-2.8,1.5c-14,2.7-22.9,11.8-29.7,23.5C72.7,172.6,72,173.7,70.7,176.1z"/>
    </g>

    <g class="frame frame-5">
      <path class="sprite" d="M118.4,146.8c0.2,6.2,6.3,7,8.3,11c-1.4,4.5-2.9,5.9-6.2,4.6c-2.4-0.9-4.6-2.7-6.6-4.4c-1.6-1.4-2.6-3.6-4.4-4.7c-5.5-3.6-11.3-7.2-17.2-1.6c-3-0.8-5.4-1.4-7.7-2c-9.4,3-19.8,2.5-28.3,7.2c-2.7,3.5-1.6,9-7.8,9.8c-1.1-0.5-2.7-1.2-4.5-2c-2.8,2-5.6,4-8.8,6.2c-2-3.8-3.5-6.8-5-9.7c13.3-24.8,50.7-51.1,94.3-36.1c0.9,1.9,2,4.2,3.2,6.9c-1.9,1.6-3.5,3-5.4,4.6c0.8,1.2,1.4,2.9,2.6,3.6c6.2,3.9,12.8,6.8,20.2,7.7c6.3,0.8,11.6,3.7,16.8,9.1c-6.3,3.5-11.8,3-17.2,0.4c-4.1-2-8-4.5-11.9-6.8C128.5,148.1,124.1,146.4,118.4,146.8z"/>
    </g>
  </g>

</svg>
