<svg xmlns="http://www.w3.org/2000/svg" hidden>
  <symbol id="face" viewBox="0 0 201.3 254.1">
    <path d="M49.4 128.8c.8.2-.4-.5.1-.6s2.4-.1 3.3-.1c1.2 0 2.4 0 3.5-.1h.2c1.3-.2 3.1-.4 3.9-1.5.4-.5.5-1.1.4-1.8-.2-1.2-1.7-2.5-3.5-4-.4-.3-.7-.6-.9-.8-.5-.5-1-.9-1.4-1.4l-.5-.5.9.6c1.3.8 2.6 1.6 3.7 2.2l.5-.9c-1.2-.6-2.4-1.4-3.7-2.2-3.5-2.2-7.1-4.4-10.2-4.7-4.1-.4-7.3.2-10.7 2.5-1 .7-3.4 3.4-3 5.4s1.1 2.5 1.4 4l.9.2c0 .3.1.7.2 1.1 0 .2.1.4.2.6-.2 0-.4.1-.5.4-.1.5.2.6 1.3 1 .4.1-1.3 2.1.2 1.7s12.9-1.2 13.7-1.1zm4.7-9.6c.5.5 1 1 1.5 1.4.2.2 3.6 4.8.6 5.8-1.2.4-2.3.6-3.4.6h-1.5c1.7-1.4 2.5-3.6 2.2-6-.3-1.8-1.1-3.4-2.4-4.5 1.1.8 2.1 1.7 3 2.7zm-13.5 9.2c-1.5 0-2.6-.1-3.9-.7-.2-.1-1.6-2.4-1.6-2.6-.5-3.2-1.1-6 2.8-8.3 1.8-1 7.2-2.3 5.3-1.3-.7.4-1.4 1-1.9 1.6-1.4 1.6-2 4.2-1.5 6.3.6 2.4 1.7 3.9 3.3 4.8-.7.1-1.6.2-2.5.2z"/>
    <path d="M201.1 190.4c-4.2-1.1-19.1-3.7-28.3-6.2 0 0-5.5-1.6-6.6-2-2-.7-4-1.4-6.1-1.7-2.2-.3-5-1-7.3-1-5.3-.1-10.3.4-14.7-2.7 0 0 1.1-3.4 1.6-5.2.1-.4.2-1 .4-1.5.5.3.9.3 1.2.3.8 0 1.4-.4 1.7-.8.4-.5.3-1.5.2-2.5 0-.5-.1-1.1 0-1.4 0-.1.1-.2.2-.4.5-1.1.6-1.4.3-1.7s-.8-.4-1.2-.4l.1-.1c.4-.3.5-.4.6-.6.3-.6 0-2.1-.5-4.1-.2-.8-.4-1.1-.4-2.1.3-2 .6-4 .9-7 0 0 .1-.1.2-.3.5-1 1.5-2.8.8-4.5 2.1-3.2 2-4.2 1.7-5.8-.2-.9-.3-1.9 0-3.9.5-3.4 1.3-.4 1.5.3.9 2.8 1.3 4.1 2.2 4.1h.1c.2 0 .6-.1.9-.6.5-.9.9-2.4 1.3-3.8s1.1-3.7 1.6-3.8c0 0 .1 0 .2.1.6.6 1.1.3 1.2.2.9-.9-3-9.2.4-6.1.4.3 1 .6 1.4.4.6-.4.4-1.8.1-4-.2-1-.3-1.9-.4-2.7-.1-1.3 1.1-5.2 2-8.5.7-2.3 1.6-4.8 1.9-6.1 2-10.4.4-20.7-.9-28.7-4.4-26.9-23.9-47-40-58.4-.5-.3 2.4-.6 2.4-1.2 0-.8-2.1-1.7-10.9-5.7-10.5-4.9-19.6-7.8-27.8-9C75.1.1 54.4-1.5 50.9 3c-.6.8-.8 2.1-.9 2.8 0 .2-1.7 0-3.1-.4-3.5-1.1-8.5-2.7-11.5-1.2-1.1.5-1.7 1.1-1.8 1.8-.2 1 .2 1.6.7 2.2.5.6.4 1.4-.2 1.6-1.8.6-3.6.4-5.6.3-2-.2-3.7-.3-4.7.3-.6.3-.8.7-.8 1.1.1.8 3.8 1.8 2.8 1.9-2.6.4-11.1 12-10.7 16.7.1 1.6 1.1 2.5 2.8 2.5 2.4 0 3.6.9 3 .9-3.1 0-6.7 2.8-7.8 6.5-.7 2 2.3 2.8 3.3 4.2.5.6-2.7 4.1-2.2 5.7.2.5.7 1.1 2.4.8 1.9-.3 2.6.6 1.3 2.3-2.3 3-5.6 9.2-6.4 15.4-.6 4.7-1.5 11.9.5 23.2.7 4.2 3.4 15.6 6.7 18.3.7.6 1.6 4.3 2.3 7.4 1.2 5.1 1.9 7.7 2.8 8.4.6 7.4 1.4 15.1 2.7 23.4.5 3.6.8 7.1 1.1 10.4.5 5.5.9 10.6 2.3 16.3.9 3.7 2.3 7.2 4 10.5-5 1.4-12.7 4.5-20.1 7.4-5.3 2.1-10.4 4.1-13.8 5.3l.3.9c3.4-1.1 9.3-2.5 14.7-4.7 6.9-2.7 14.5 1 16 7.4 1.4 5.7 5.4 11.8 8.9 18 12.7 22.2 27.3 33.5 43.5 33.5 1.4 0 2.7-.1 4.1-.2 9.4-1.1 31.8-17.6 40.3-23.9l.3-.2c10.2-7.5 27.7-30.4 23.4-42.4-1-2.7-.5-5.2 2.6-5.1 2.3 0 19.8 4 19.8 4 9.1 2.5 29.8 4.8 27.2 4.1zm-58.3-25.9c-.1.3-.6 1.1-.6 1.2-.1.4.2 1 .2 1.6.1.6.1 1.6 0 1.8-.2.2-.6.5-1 .5s-.4-.7-.7-.8.7-4.6 1.1-4.2c.4.3 1-.3 1-.1zm-1.1-2c-.1-.4.3-2.6.6-2.3s.3 1.6.1 1.9-.6.7-.7.4zm2.2-18.9c.1-.7.1-1 .1-1.7.1.1 1.2-1 1.3-1-.2.5-.9 1.9-1.4 2.7zm1.9-11.1c-.3.7-.6 1.2-.8 2.3s-.1 3.2 0 3.9c-.1-.2-.5-.6-.9-.6s-.1-8 0-8.3.4-.4.6-.3c.6 0 1.5 2.3 1.1 3zM21.8 117c-1-4.5-1.5-8.7-2.4-9.4-2.7-2.2-5.6-10.5-6.6-16.2-2-11.1-1.1-18.2-.5-22.8.8-6 4.4-11.8 6.3-15 .6-.9 1-1.6 1.2-2 .1-.2.1-.3.2-.5.3-.7.5-1.1.2-1.5-.4-.5-1.1-.4-3.9.2-.3.1-.9 0-1-.3-.3-1 1.7-4 2.7-4.5.4-.2.5-.5.5-.7 0-.5-.6-.8-1.6-1.2-1.8-.8-3.3-1.5-3-2.7 1-3.2 5.4-5.3 8.1-5.4 1.3-.1 1.6-.6 1.6-1 0-1.2-2.7-2.4-5.4-2.4-1.1 0-1.8-.9-1.9-2-.4-4.4 7-14.5 10.9-15.2.5-.1 1.1-.2 1.2-.8 0-.6-.6-.9-2.1-1.2-1.6-.3 0-1.5 2-1.1 2.1.5 4.6.4 6.7-.3.5-.2 1.4-.4 1.6-1 .2-.7-.6-1.4-1.1-2-.5-.5-1.1-2 .4-2.7 2.7-1.3 7.4.2 10.9 1.3 2.9.9 4 1 4.7.7.8-.4-.7-1.4.7-3.2C55.2.3 74 1.3 83.1 2.7c8.1 1.2 17.1 4.1 27.5 8.9 6.7 3.1 9.4 4.5 8.6 4.4-.8-.1-3.8.3-.4 2.9 15.5 11.9 35.3 30.7 39.6 57.2 1.3 7.9 2.5 18.4.6 28.6-.3 1.3-.9 3.5-1.5 5.8-1 3.6-2.5 7.2-2.4 8.7 0 .8.6 2 .8 3 .1.8.3 2 .3 2.5-.4-.3-3.1-2.1-3.9-1.3-.2.2-.4.5.1 1.1.9 1.2 2.8 7 1 5.9-.9-.5-1.8 1.8-2.2 4.5-.7 4.2-2.1 1.4-2.5.2s-.8-2.3-1.1-3.3c-.7-1.8-1-3.6-2-3.8-2.1-.5-3.2-.5-4.4-.6-1.6 0-3.6.6-6-.7-.6-.4-1.4-.8-2.1-1.3-3.6-2.2-6.4-4.7-7.4-3.8-.7.6.2 3.1.6 4l.2.6c.9 2.3 1.7 4.3 1.7 4.9-.1 0-.4-.1-.9-.3-7-3.1-13.9-10.4-19.5-16.2-5.3-5.6-8.2-9.3-10.1-8.6-1 .4-1.7 2.3-2.5 3.5-1 1.5-2.1 2.7-3.6 2.7-1.7.1-3.9-1.4-6.8-5.4-.5-.5-.9-.6-1.3-.4-.9.5-.7 2.6 0 7.7.2 1.7.8 4.4.3 3.6s-2.5-3.9-5.3-5.8 1.6 13.4.3 12.8-6.5-3.7-8.7-7.9c-6.9-13-13-30.6-18.8-53.6-.1-.4-.1-3.4-.3-4.4-.7-4-2.2-9.9-5.6-15.4v-.2h-.1c-2.2-3.5-8.7-6.5-11.2-5.8-2.6.7 6.1.3 6.5 4.7.1 1.2-7.3 6.2-10.5 13.1S23 66.3 22.9 86.3c0 12.5 0 22.7.9 35.6-1-1.8-1.5-2.9-2-4.9zm94.9 7.9c-2 1.5-5.3 1.5-5.6 1.4-.3 0 2.5-1.8 3.3-3.7.8.9 1.4 1.6 2.3 2.3zm-85.9 50.6c-1.4-5.6-1.8-10.7-2.3-16.1-.3-3.4-.6-6.9-1.1-10.5-3.6-23.9-3.9-42.6-3.9-62.8 0-13.9 2.7-19.9 7.2-30l1.2-2.6c1.4-3.2 7.6-8.1 12.5-9.3 3.1 5.3 4.4 13 5 16.8.2 1 .3 4.5.4 5 5.8 23.1 12 38.1 18.9 51.2 2.4 4.5 8.3 9.2 10.1 9.8.5.2 1.2.3 1.6-.1.6-.5.3-1.5-.2-3.4-.5-2-2-9.4-1-8.1s3.9 4.7 4.7 4.5.8-1.3.1-6.1c-.3-2.2.1-6 .6-5s4.6 4.8 6.7 4.7c2-.1 3.2-2 4.3-3.7.7-1.1 1.3-2.1 2-2.4.8-.3 4.3 2 6.2 4.5-2.6.7-5 1.2-7 2.4-1.3.8-4.6 3.9-3.8 3.6 2-.7 6.2-4 4.2-1.8-1 1.1-1.9 1.7-2.5 2.2-.5.5-.8.8-1.3 1.2-1.1.7-2.9 2.2-2.5 4 .3 1.3 1.8 1.2 3 1.1.6 0 1.1-.1 1.6 0 1.7.3 2.8.9 4 1.6 1.6.9 3.5 1.9 6.9 1.9h.8l10.4-.6c-.1-.3-.2-.5-.1-.6.5-.1 2.4.6 2.4.6 2.1 1.6 4.2 2.9 6.4 3.8.8.3 1.5.6 2 .1.7-.7.1-2.1-1.4-6l-.2-.6c-.6-1.4-.3-1.6-.3-1.6.6-.5 4 1.7 5.7 2.7.8.5 1.5.9 2.2 1.3 2.7 1.5 4.1 1.5 5.8 1.5.8 0 1.3 0 2.4.1.3 2.3.6 5.3.5 8.7v.5c-.5 11.3-2.6 26.6-4.4 33.1-2.5 8.9-11.1 27.8-15.2 31.9s-10.7 9.4-13.7 11.5-1.2-.8-1-1.9c.2-1.1-2.5 3.7-3.4 4.9-4.8 6.9-11 14.9-26.7 14-4.3-.2-11.7-.5-15.2-3.7-4.3-3.8-6.2-9-8.6-14.2-1-2.1-2.5-4.4-3.7-6.5-.2-.4-9.5-14.5-7.9-11.5s6.7 10.6 7 11.9-2.4-2.5-4.1-4.8c-6.2-8.1-12.8-16.7-15.3-27.2zm72.1-49.6c.5.2-1.3.3-2.7-.5-1.2-.7-2.4-1.4-4.3-1.7-1.7-.3-2.7-2.4-1.7-3.3.5-.5 1-.8 1.5-1.3.5-.6 1.1-.8 2.3-1.7 1.1-.9 5.6-2.6 4.6-1.8-.9.8-2.3 3.6-2.3 5s1 4.5 2.6 5.3zM127.4 229l-.3.2c-7.6 5.6-30.8 20.9-40 21.9-17.4 2-32.9-7.3-46.5-31-6.8-11.9-11.6-27.1-6.3-32.8 3.1 5.8 7.2 11.1 11.2 16.3 3 4 6.2 8.1 8.8 12.3 2.2 4.7 4.6 9.4 8.6 12.8 3.8 3.3 11.7 4.2 16.1 4.5.8 0 1.5.1 2.2.1 14.2 0 20.3-8.1 24.7-14.5 1.1-.9 2.7-2 4.6-3.4 5.1-3.7 11.5-8.4 13.9-11.8.4-.5.8-1.1 1.2-1.7 1.7-2.3 3.5-4.8 4.8-7.3 1.8-3.6 5.8-8.7 6.1-7.2.2.7.6 3.7.9 2.4.3-1.3-1.3-6.6-.6-9.2 1-3.8 4.2-1 6.6.5 2.5 1.6 5 3.8 5.9 6.2 4.1 11.5-12.2 34.5-21.9 41.7z"/>
    <path d="M65.3 142.6c-.3 3-2.5 15.8-1.7 12.7.8-3.2 2.2-10.5 2.5-13.5.9-8.6.1-18.2-1.9-23.9-.6-1.7-4.8-6-4.8-4.9s.8 2.8 1.4 3.2c4 3.3 5.3 17.9 4.5 26.4zm-3.1 27c-1.4-1.6-2.9-.6-3.4-.3s-1-.1-1.1-.4-1.7-3.1-1.6-3.9 2.2-4.2 2.3-5.3-3 4.1-3.1 5.3c-.2 1.3 1.3 3 1.6 4.1.3 1.3 3.5 3.2 5.1 3 .6-.1 4 3.3 6.2 4 .7.2 2.4.6 4 .6 1.1 0 2.2-.2 2.9-.6.9-.6 1.9-1.5 2.8-2.4.8-.7 2-1.7 2.5-2.2s3.3 0 4 0 3.3-1.3 3.4-2.1c0-.3-.1-.6-.4-.8-.9-.6-3-.3-4.9.6-2 1-3.8 2.5-5.3 3.9-1 .9-1.9 1.7-2.7 2.2-1.1.8-5 .3-6.5-.2-1.9-.8-3.6-3.2-5.8-5.5zm-27.5-66.3c.7.2 1.3.5 1.9.9s2 1 2.4.8c.5-.2 1-.8 1.1-1.4.2-1.6 2.2.1 3.3 1.2.6.7 2.1 2.4 2.7 1.9.4-.3.3-1 .7-1.3.4-.3 2 3.1 2.9 3.1s1-1.5 1-1.7c-.1-1.8.3-2.2 1.1-1.9.9.3 5 6.9 5 4.1s-3.5-6.1-6.2-6c-1 .1-1 4.4-2.8 1.9-1.8-2.6-2.1.1-2.3.4-.1.3-.9-.5-1.5-1.1-1.3-1.4-2.8-3.1-4.5-2.7-.7.2-.9 1.2-.9 1.9s-1.2.2-1.7-.1c-.7-.4-1.4-.8-2.2-1-4.7-1.2-10.9 5.2-9.4 4.6s5.1-4.6 9.4-3.6z"/>
    <path d="M91 169.9c-.5.4-1.6.8-2.6 1.1-.7.2-2.5 1.2-3 1.5s2.6-.3 3.2-.5c1.2-.3 2.3-.9 3-1.3 1.4-1 2.4-2.4 3.2-4.1.9-2.1.1-3.8-.9-5.5-1.4-2.6-1.1-7.2-1.6-5.1s0 3.7.6 5.4c.6 1.8 1.2 3.5.4 5.2-.7 1.7-1.1 2.4-2.3 3.3zm-5.8 19.2c-3-.3-5.2-.9-6-.7s-5.2 1.9-6.3 1.7c-1.4-.3-4.7-1.9-5.3-2.1-.7-.3-1.8.3-3.1.4-1.7.1-3.6.5-5.9-.1-2.6-1.8-4.1-3-4.5-3.1-.8-.2-1.7.4-2.3 1-.4.4-2.9 2.8-1.4 1.8 1.6-1 4.1-2.4 5.7-.6.7.7 1.3 3.2 1.9 4.8.5 1.4 1.2 3 1.8 3.8 1.2 1.9 2.3 3.3 3.3 4.4 1.8 1.8 4.8 1.9 8 1.9 1.1 0 2.3 0 3.4.1 1 .1 2.8.2 4.7.2 2.7 0 5.5-.2 6.9-1 2.8-1.5 4.9-4.2 7-6.7 1.7-2.1 2.3-5.2 4.6-5.9s4.8-.2 3.1-1.2c-2.4-.8-5.9 1.6-6.9 2.1s-5.7-.4-8.7-.8zm-20.6.3c1.1-.1 2-.1 2.5.1.6.2 1.1.4 1.5.6 1.5.6 2.9 1.4 4.4 1.7.3.1 3.3-.7 4.7-1.2.7-.2 1.5-.5 2.3-.7.6-.1 3.5 0 5.8.4 1.2.2 6.4.9 4.7 1.6-.8.3-2 .6-7.4 2.1-4 1.1-8.6 1.4-9.5 1.3-.6-.1-1-1.1-1.5-1.2-2.8-.3-5.5-.5-8-2-.4-.3-3.7-2.4-3.9-2.5 1.6.1 3.2-.2 4.4-.2zm27.7 5.2c-2 2.5-4.6 4.4-7.2 5.9-1.9 1.1-7.8.4-10.6.2-1.2-.1-8.7.7-10.2-.8-1-1-2.3-2-3.5-3.8s-2.4-5.7-3-6.6 5.5 3.7 5.9 4c2.6 1.6 4.4 2.2 7.3 2.5.6.1 1.9.8 2.4.9 1 .1 2.4-.5 3.4-.5 6.8 0 12.1-2.6 16.7-4.5.8-.4-.1 1.3-1.2 2.7z"/>
  </symbol>
</svg>
