<svg
  version="1.1"
  xmlns="http://www.w3.org/2000/svg"
  viewBox="0 0 19 19"
  width="19px"
  height="19px"
  data-icon="codepen"
>
<path
  d="M16.8,6.8l-7-4.7C9.6,2,9.4,2,9.2,2.1l-7,4.7C2.1,6.8,2,7,2,7.2v4.7c0,0.2,
    0.1,0.3,0.2,0.4l7,4.7C9.3,17,9.4,17,9.5,17
    s0.2,0,0.3-0.1l7-4.7c0.1-0.1,0.2-0.2,0.2-0.4V7.2C17,7,16.9,6.8,
    16.8,6.8L16.8,6.8z M9.5,11.2L6.9,9.5l2.6-1.7l2.6,1.7L9.5,11.2z
    M10,6.9V3.4l5.6,3.7L13,8.9L10,6.9L10,6.9z M9,6.9l-3,2L3.4,7.2L9,
    3.4V6.9L9,6.9z M5.1,9.5L3,10.9V8.1L5.1,9.5z M6,10.1l3,2v3.5
    l-5.6-3.7L6,10.1L6,10.1z M10,12.1l3-2l2.6,1.7L10,15.6V12.1L10,
    12.1z M13.9,9.5L16,8.1v2.8L13.9,9.5z"
  />
</svg>
