<svg
  version="1.1"
  xmlns="http://www.w3.org/2000/svg"
  viewBox="0 0 19 19"
  width="19px"
  height="19px"
  data-icon="email"
>
  <path
    d="M16.5,4.5C16.5,4.5,16.5,4.5,16.5,4.5l0,10c0,0,0,0,0,0h-14c0,0,0,0,0,0v-10c0,0,0,0,0,0C2.5,4.5,16.5,4.5,16.5,4.5z
    M16.5,3.5h-14c-0.5,0-1,0.5-1,1v10c0,0.6,0.5,1,1,1h14c0.5,0,1-0.4,1-1v-10C17.5,4,17,3.5,16.5,3.5L16.5,3.5z"/>
  <path
    d="M7.3,11.3l-3,2.2c-0.1,0.1-0.2,0.1-0.3,0.1c-0.2,0-0.3-0.1-0.5-0.2c-0.2-0.3-0.1-0.6,0.1-0.8l3-2.2
    c0.3-0.2,0.6-0.1,0.8,0.1S7.6,11.1,7.3,11.3L7.3,11.3z"/>
  <path
    d="M15.5,13.3c-0.1,0.2-0.3,0.2-0.5,0.2c-0.1,0-0.2,0-0.3-0.1l-3-2.2c-0.3-0.2-0.3-0.5-0.1-0.8s0.5-0.3,0.8-0.1l3,2.2
    C15.6,12.7,15.6,13.1,15.5,13.3L15.5,13.3z"/>
  <path
    d="M15.3,6.5l-5.5,4c-0.1,0.1-0.2,0.1-0.3,0.1s-0.2,0-0.3-0.1l-5.5-4C3.4,6.3,3.4,5.9,3.5,5.7s0.5-0.3,0.8-0.1l5.2,3.8
    l5.2-3.8c0.3-0.2,0.6-0.1,0.8,0.1S15.6,6.3,15.3,6.5C15.3,6.5,15.3,6.5,15.3,6.5z"/>
</svg>
