<svg
  version="1.1"
  xmlns="http://www.w3.org/2000/svg"
  viewBox="0 0 19 19"
>
  <path d="M9.5,2C5.4,2,2,5.4,2,9.5c0,3.3,2.1,6.1,5.1,7.1c0.4,0.1,0.5-0.2,0.5-0.4c0-0.2,0-0.8,0-1.4C5.5,15.3,5.1,14,5.1,14
    c-0.3-0.9-0.8-1.1-0.8-1.1c-0.7-0.5,0.1-0.5,0.1-0.5c0.8,0.1,1.1,0.8,1.1,0.8c0.7,1.1,1.8,0.8,2.2,0.6c0.1-0.5,0.3-0.8,0.5-1
    C6.5,12.6,4.7,12,4.7,9.1c0-0.8,0.3-1.5,0.8-2c-0.1-0.2-0.3-1,0.1-2c0,0,0.6-0.2,2.1,0.8c0.6-0.2,1.2-0.2,1.9-0.3
    c0.6,0,1.3,0.1,1.9,0.3c1.4-1,2.1-0.8,2.1-0.8c0.4,1,0.2,1.8,0.1,2c0.5,0.5,0.8,1.2,0.8,2c0,2.9-1.8,3.5-3.4,3.7
    c0.3,0.2,0.5,0.7,0.5,1.4c0,1,0,1.8,0,2.1c0,0.2,0.1,0.4,0.5,0.4c3-1,5.1-3.8,5.1-7.1C17,5.4,13.6,2,9.5,2L9.5,2z"
    />
</svg>
