<svg
  version="1.1"
  xmlns="http://www.w3.org/2000/svg"
  viewBox="0 0 19 19"
  width="19px"
  height="19px"
  data-icon="twitter"
>
  <path
    d="M17.5,4.5c-0.6,0.3-1.2,0.4-1.9,0.5c0.7-0.4,1.2-1,1.4-1.8C16.4,3.6,15.7,3.9,15,4c-0.6-0.6-1.5-1-2.4-1
    c-1.8,0-3.3,1.5-3.3,3.3c0,0.3,0,0.5,0.1,0.7C6.7,6.9,4.2,5.6,2.6,3.6c-0.3,0.5-0.4,1-0.4,1.6c0,1.1,0.6,2.1,1.5,2.7
    c-0.5,0-1-0.2-1.5-0.4c0,0,0,0,0,0c0,1.6,1.1,2.9,2.6,3.2c-0.3,0.1-0.6,0.1-0.9,0.1c-0.2,0-0.4,0-0.6-0.1c0.4,1.3,1.6,2.3,3.1,2.3
    c-1.1,0.9-2.5,1.4-4.1,1.4c-0.3,0-0.5,0-0.8,0C3,15.5,4.7,16,6.5,16c6,0,9.3-5,9.3-9.3c0-0.1,0-0.3,0-0.4
    C16.5,5.8,17.1,5.2,17.5,4.5L17.5,4.5z"
    />
</svg>
